<?xml version="1.0" encoding="UTF-8" standalone="no"?>
<svg
   xmlns:dc="http://purl.org/dc/elements/1.1/"
   xmlns:cc="http://creativecommons.org/ns#"
   xmlns:rdf="http://www.w3.org/1999/02/22-rdf-syntax-ns#"
   xmlns:svg="http://www.w3.org/2000/svg"
   xmlns="http://www.w3.org/2000/svg"
   height="480"
   width="480"
   xml:space="preserve"
   enable-background="new -281 373 48 48"
   viewBox="-281 373 480 480"
   y="0px"
   x="0px"
   id="Слой_1"
   version="1.1"><metadata
     id="metadata15"><rdf:RDF><cc:Work
         rdf:about=""><dc:format>image/svg+xml</dc:format><dc:type
           rdf:resource="http://purl.org/dc/dcmitype/StillImage" /><dc:title></dc:title></cc:Work></rdf:RDF></metadata><defs
     id="defs13" /><g
     transform="matrix(10,0,0,10,2529,-3362)"
     id="g3"><path
       style="display:none;fill-opacity:0.3"
       id="path5"
       d="m -257,416 23.3,-29 c -0.9,-0.7 -9.9,-8 -23.3,-8 -13.4,0 -22.4,7.3 -23.3,8 l 23.3,29 0,0 c 0,0 0,0 0,0 z"
       display="none" /><path
       id="path7"
       d="m -257,382 c 8.5,0 15.2,3.2 18.9,5.6 l -18.9,23.6 -18.9,-23.6 c 3.7,-2.4 10.4,-5.6 18.9,-5.6 m 0,-3 c -13.4,0 -22.4,7.3 -23.3,8 l 23.3,29 0,0 0,0 23.3,-29 c -0.9,-0.7 -9.9,-8 -23.3,-8 l 0,0 z" /></g></svg>