<?xml version="1.0" encoding="UTF-8" standalone="no"?>
<svg
   xmlns:dc="http://purl.org/dc/elements/1.1/"
   xmlns:cc="http://creativecommons.org/ns#"
   xmlns:rdf="http://www.w3.org/1999/02/22-rdf-syntax-ns#"
   xmlns:svg="http://www.w3.org/2000/svg"
   xmlns="http://www.w3.org/2000/svg"
   viewBox="0 0 480 480"
   height="480"
   width="480"
   xml:space="preserve"
   version="1.1"
   id="svg3390"><metadata
     id="metadata3396"><rdf:RDF><cc:Work
         rdf:about=""><dc:format>image/svg+xml</dc:format><dc:type
           rdf:resource="http://purl.org/dc/dcmitype/StillImage" /><dc:title></dc:title></cc:Work></rdf:RDF></metadata><defs
     id="defs3394"><clipPath
       id="clipPath3404"
       clipPathUnits="userSpaceOnUse"><path
         id="path3406"
         d="M 0,48 48,48 48,0 0,0 0,48 Z" /></clipPath><clipPath
       id="clipPath3416"
       clipPathUnits="userSpaceOnUse"><path
         id="path3418"
         d="M 0,48 48,48 48,0 0,0 0,48 Z" /></clipPath><clipPath
       id="clipPath3426"
       clipPathUnits="userSpaceOnUse"><path
         id="path3428"
         d="M 0,48 48,48 48,0 0,0 0,48 Z" /></clipPath><clipPath
       id="clipPath3434"
       clipPathUnits="userSpaceOnUse"><path
         id="path3436"
         d="M 0,48 48,48 48,0 0,0 0,48 Z" /></clipPath><clipPath
       id="clipPath3442"
       clipPathUnits="userSpaceOnUse"><path
         id="path3444"
         d="m -2.13623e-4,48.0002 48.000013623,0 0,-48.000047412 -48.000013623,0 0,48.000047412 z" /></clipPath><clipPath
       id="clipPath3446"
       clipPathUnits="userSpaceOnUse"><path
         id="path3448"
         d="m -2.13623e-4,47.9998 48.000013623,0 0,-47.999952588 -48.000013623,0 0,47.999952588 z" /></clipPath><clipPath
       id="clipPath3450"
       clipPathUnits="userSpaceOnUse"><path
         id="path3452"
         d="M 48,48 0,48 0,0 48,0 48,48 Z" /></clipPath><clipPath
       id="clipPath3658"
       clipPathUnits="userSpaceOnUse"><path
         id="path3660"
         d="M 0,48 48,48 48,0 0,0 0,48 Z" /></clipPath><clipPath
       id="clipPath3668"
       clipPathUnits="userSpaceOnUse"><path
         id="path3670"
         d="m -2.28882e-4,48.0001 48.000028882,0 0,-47.99997793 -48.000028882,0 0,47.99997793 z" /></clipPath><clipPath
       id="clipPath3676"
       clipPathUnits="userSpaceOnUse"><path
         id="path3678"
         d="m -2.28882e-4,48.0001 48.000028882,0 0,-47.99997793 -48.000028882,0 0,47.99997793 z" /></clipPath><clipPath
       id="clipPath3680"
       clipPathUnits="userSpaceOnUse"><path
         id="path3682"
         d="M 0,0 48,0 48,48 0,48 0,0 Z" /></clipPath></defs><g
     transform="matrix(1.25,0,0,-1.25,0,480)"
     id="g3398"><g
       id="g3412"><g
         clip-path="url(#clipPath3416)"
         id="g3414"><g
           transform="matrix(1,0,0,-1,0,48)"
           id="g3420"><g
             id="g3422"><g
               clip-path="url(#clipPath3426)"
               id="g3424" /></g></g></g></g><path
       style="fill:#000000"
       d="m 319.97523,258.60568 -79.99134,0 0,19.30599 79.99134,0 0,-19.30599 z m -132.0817,-75.53149 c 5.97055,-8.83571 8.90783,-19.37034 8.90783,-31.75835 0,-10.02625 -1.91979,-18.61098 -5.73378,-25.87647 -3.85238,-7.35558 -9.09341,-13.2053 -15.56951,-17.80013 -6.5273,-4.63987 -14.01449,-7.94763 -22.39758,-10.16138 -8.2935,-2.21376 -16.90697,-2.97312 -25.72521,-2.97312 L 32,94.50474 32,294 l 92.75796,0 c 9.41338,0 17.91806,-1.94347 25.68042,-3.63596 7.73036,-1.64745 14.32165,-5.27054 19.88905,-9.0352 5.4906,-3.77755 9.78454,-8.90651 12.84981,-15.23243 3.00767,-6.2101 4.51151,-14.07407 4.51151,-23.28947 0,-9.95546 -2.25256,-18.31495 -6.74487,-24.97552 -4.54351,-6.63483 -11.19879,-12.10486 -20.09383,-16.34574 12.12029,-3.49438 21.07932,-9.64656 27.03708,-18.41149 z m -114.29163,30.48417 45.55667,0 c 7.67916,0 14.04648,0.93956 19.08273,4.66562 4.97866,3.64883 7.3976,8.90006 7.3976,17.20164 0,4.61413 -0.79991,8.38523 -2.42534,11.33905 -1.66382,2.94738 -3.88438,5.28341 -6.66808,6.89224 -2.7773,1.68605 -5.91936,3.06965 -9.54776,3.70032 -3.55802,0.70788 -7.30801,1.24845 -11.1348,1.24845 l -42.26102,0 0,-45.04732 z m 79.95294,-59.80353 c 0,10.2 -2.84129,17.05362 -8.53027,21.44896 -5.69539,4.33097 -13.26577,6.17791 -22.60236,6.17791 l -48.82031,0 0,-54.70031 47.95001,0 c 4.28113,0 8.33189,0.79155 12.15868,1.66031 3.87158,0.8559 7.32081,2.21375 10.2133,4.20871 2.90528,1.90486 5.29862,4.74928 7.05203,8.09565 1.75341,3.31419 2.58532,7.89615 2.58532,13.10877 z m 198.19935,1.88554 -102.85607,0 c 0,-9.65299 3.81399,-21.68706 9.69495,-27.44668 5.85537,-5.75318 14.33445,-8.52681 25.31566,-8.52681 7.90315,0 14.71841,2.38751 20.43939,6.39672 5.67619,3.99634 9.12541,7.05312 10.46287,13.48845 l 34.47307,0 c -5.5354,-19.306 -13.94409,-30.23319 -25.41805,-37.64669 C 312.53923,94.45968 298.71033,90 282.59048,90 c -11.22439,0 -21.3289,1.85981 -30.39671,5.47003 -9.06782,3.64884 -16.6446,8.77136 -23.02471,15.42549 -6.20093,6.69274 -11.03881,14.61464 -14.46244,23.90082 -3.40443,9.25401 -5.12584,19.47331 -5.12584,30.55495 0,10.72127 1.78541,20.74108 5.26663,30.00152 3.54521,9.27975 8.46628,17.29817 14.91678,24.02309 6.4825,6.7571 14.16167,12.09199 23.1015,15.98536 8.94623,3.88695 18.80117,5.86259 29.72479,5.86259 12.06269,0 22.63435,-2.29741 31.68297,-7.05312 9.02302,-4.68492 16.41422,-10.96581 22.21839,-18.92631 5.81057,-7.94764 9.94452,-17.33678 12.52984,-27.53035 2.57253,-10.16138 3.46203,-22.42713 2.73251,-32.08012 z m -39.16376,25.74133 c -0.9343,9.65301 -4.35153,17.17591 -9.02302,22.38852 -4.6523,5.18688 -12.54265,7.78676 -22.15441,7.78676 -6.26492,0 -11.43556,-1.08115 -15.58231,-3.24341 -4.05716,-2.1301 -7.372,-4.77502 -9.91893,-7.88972 -2.52772,-3.17261 -4.24914,-6.30019 -5.25383,-9.87823 -0.99829,-3.47508 -1.59982,-5.93981 -1.77261,-9.15748 l 63.69871,0 z"
       id="path3592" /></g></svg>