<?xml version="1.0" encoding="UTF-8" standalone="no"?>
<!-- Created with Inkscape (http://www.inkscape.org/) -->

<svg
   xmlns:dc="http://purl.org/dc/elements/1.1/"
   xmlns:cc="http://creativecommons.org/ns#"
   xmlns:rdf="http://www.w3.org/1999/02/22-rdf-syntax-ns#"
   xmlns:svg="http://www.w3.org/2000/svg"
   xmlns="http://www.w3.org/2000/svg"
   xmlns:sodipodi="http://sodipodi.sourceforge.net/DTD/sodipodi-0.dtd"
   xmlns:inkscape="http://www.inkscape.org/namespaces/inkscape"
   id="svg3390"
   version="1.1"
   inkscape:version="0.91 r13725"
   xml:space="preserve"
   width="480"
   height="480"
   viewBox="0 0 480 480"
   sodipodi:docname="update-codepen.svg"><metadata
     id="metadata3396"><rdf:RDF><cc:Work
         rdf:about=""><dc:format>image/svg+xml</dc:format><dc:type
           rdf:resource="http://purl.org/dc/dcmitype/StillImage" /><dc:title></dc:title></cc:Work></rdf:RDF></metadata><defs
     id="defs3394"><inkscape:path-effect
       effect="bend_path"
       id="path-effect3560"
       is_visible="true"
       bendpath="m 6.2399998,-23.874916 35.0000002,0"
       prop_scale="1"
       scale_y_rel="false"
       vertical="false" /><clipPath
       clipPathUnits="userSpaceOnUse"
       id="clipPath3404"><path
         d="M 0,48 48,48 48,0 0,0 0,48 Z"
         id="path3406"
         inkscape:connector-curvature="0" /></clipPath><clipPath
       clipPathUnits="userSpaceOnUse"
       id="clipPath3416"><path
         d="M 0,48 48,48 48,0 0,0 0,48 Z"
         id="path3418"
         inkscape:connector-curvature="0" /></clipPath><clipPath
       clipPathUnits="userSpaceOnUse"
       id="clipPath3426"><path
         d="M 0,48 48,48 48,0 0,0 0,48 Z"
         id="path3428"
         inkscape:connector-curvature="0" /></clipPath><clipPath
       clipPathUnits="userSpaceOnUse"
       id="clipPath3434"><path
         d="M 0,48 48,48 48,0 0,0 0,48 Z"
         id="path3436"
         inkscape:connector-curvature="0" /></clipPath><clipPath
       clipPathUnits="userSpaceOnUse"
       id="clipPath3442"><path
         d="m -2.13623e-4,48.0002 48.000013623,0 0,-48.000047412 -48.000013623,0 0,48.000047412 z"
         id="path3444"
         inkscape:connector-curvature="0" /></clipPath><clipPath
       clipPathUnits="userSpaceOnUse"
       id="clipPath3446"><path
         d="m -2.13623e-4,47.9998 48.000013623,0 0,-47.999952588 -48.000013623,0 0,47.999952588 z"
         id="path3448"
         inkscape:connector-curvature="0" /></clipPath><clipPath
       clipPathUnits="userSpaceOnUse"
       id="clipPath3450"><path
         d="M 48,48 0,48 0,0 48,0 48,48 Z"
         id="path3452"
         inkscape:connector-curvature="0" /></clipPath><clipPath
       clipPathUnits="userSpaceOnUse"
       id="clipPath3658"><path
         d="M 0,48 48,48 48,0 0,0 0,48 Z"
         id="path3660"
         inkscape:connector-curvature="0" /></clipPath><clipPath
       clipPathUnits="userSpaceOnUse"
       id="clipPath3668"><path
         d="m -2.28882e-4,48.0001 48.000028882,0 0,-47.99997793 -48.000028882,0 0,47.99997793 z"
         id="path3670"
         inkscape:connector-curvature="0" /></clipPath><clipPath
       clipPathUnits="userSpaceOnUse"
       id="clipPath3676"><path
         d="m -2.28882e-4,48.0001 48.000028882,0 0,-47.99997793 -48.000028882,0 0,47.99997793 z"
         id="path3678"
         inkscape:connector-curvature="0" /></clipPath><clipPath
       clipPathUnits="userSpaceOnUse"
       id="clipPath3680"><path
         d="M 0,0 48,0 48,48 0,48 0,0 Z"
         id="path3682"
         inkscape:connector-curvature="0" /></clipPath></defs><sodipodi:namedview
     pagecolor="#ffffff"
     bordercolor="#666666"
     borderopacity="1"
     objecttolerance="10"
     gridtolerance="10"
     guidetolerance="10"
     inkscape:pageopacity="0"
     inkscape:pageshadow="2"
     inkscape:window-width="1280"
     inkscape:window-height="660"
     id="namedview3392"
     showgrid="false"
     inkscape:zoom="0.98333335"
     inkscape:cx="245.91393"
     inkscape:cy="244.36124"
     inkscape:window-x="-8"
     inkscape:window-y="-8"
     inkscape:window-maximized="1"
     inkscape:current-layer="g3398" /><g
     id="g3398"
     inkscape:groupmode="layer"
     inkscape:label="System_Icon_StickerSheet"
     transform="matrix(1.25,0,0,-1.25,0,480)"><g
       id="g3412"><g
         id="g3414"
         clip-path="url(#clipPath3416)"><g
           id="g3420"
           transform="matrix(1,0,0,-1,0,48)"><g
             id="g3422"><g
               id="g3424"
               clip-path="url(#clipPath3426)" /></g></g></g></g><path
       inkscape:connector-curvature="0"
       id="path4"
       d="m 324.44302,169.09984 -34.66845,22.93666 34.66845,22.93665 M 205.68121,71.486037 l 0,64.186773 59.73636,39.82796 48.00269,-32.18228 m -121.42865,16.18013 -48.7138,32.53788 48.7138,32.53805 48.71361,-32.53805 M 178.30182,71.486037 70.56277,143.31849 l 48.00269,32.18228 59.73636,-39.82796 M 59.54001,214.97315 94.20846,192.0365 59.54001,169.09984 m 118.76181,143.48729 0,-64.18696 -59.73636,-39.82796 -48.00269,32.18247 m 135.11844,71.83245 107.73905,-71.83245 -48.00269,-32.18247 -59.73636,39.82796 M 352,242.53261 c 0,0.17356 0,0.53416 0,0.71157 0,0.35481 0,0.71155 -0.5341,1.06636 0,0.17356 0,0.53416 -0.17354,1.06638 0,0 -0.17353,0 -0.35478,0.71156 0,0.17355 -0.17354,0.35481 -0.35478,0.53415 0,0.35481 -0.17354,0.71155 -0.35479,0.88896 -0.17353,0.35482 -0.35478,0.53415 -0.35478,0.71157 -0.17353,0.35481 -0.5341,0.53414 -0.71149,0.88896 -0.17354,0.17355 -0.17354,0.35481 -0.35479,0.53414 0,0.35483 -0.35478,0.71157 -0.71149,0.71157 -0.17353,0.17354 -0.35478,0.35481 -0.5341,0.53415 -0.35478,0.35481 -0.5341,0.53414 -0.88889,0.71155 -0.17353,0.17356 -0.35478,0.35482 -0.5341,0.53416 -0.17353,0 -0.17353,0 -0.17353,0.17354 l -146.31917,97.43619 c -4.62259,3.02269 -10.6672,3.02269 -15.28979,0 L 38.03709,252.31123 c 0,-0.17354 0,-0.17354 -0.17353,-0.17354 -0.17354,-0.17356 -0.35479,-0.35482 -0.53411,-0.53416 -0.35478,-0.17355 -0.5341,-0.35481 -0.88888,-0.71155 -0.17354,-0.17356 -0.35478,-0.35482 -0.5341,-0.53415 -0.17354,-0.17356 -0.35479,-0.35674 -0.7115,-0.71157 -0.17353,-0.17354 -0.17353,-0.35481 -0.35478,-0.53414 -0.17353,-0.35482 -0.5341,-0.53415 -0.71149,-0.88896 0,-0.17356 -0.17354,-0.35483 -0.35479,-0.71157 -0.17353,-0.17354 -0.35671,-0.53415 -0.35671,-0.88896 -0.17353,-0.17355 -0.35478,-0.35482 -0.35478,-0.53415 -0.17353,-0.71156 -0.17353,-0.71156 -0.35478,-0.71156 C 32.5341,244.84277 32.5341,244.48796 32.5341,244.31054 32,243.95573 32,243.59899 32,243.24418 c 0,-0.17356 0,-0.53415 0,-0.71157 0,-0.53415 0,-1.06636 0,-1.77793 l 0,-97.43619 c 0,-0.71155 0,-1.24378 0,-1.77793 0,-0.17354 0,-0.53415 0,-0.71155 0,-0.35483 0,-0.71157 0.5341,-1.06638 0,-0.17355 0,-0.53415 0.17354,-1.06638 0.17353,0 0.17353,0 0.35478,-0.71155 0,-0.17355 0.17354,-0.35481 0.35478,-0.53415 0,-0.35481 0.17354,-0.71156 0.35671,-0.88897 0.17354,-0.35481 0.35479,-0.53415 0.35479,-0.71155 0.17353,-0.35481 0.5341,-0.53415 0.71149,-0.88897 0.17354,-0.17355 0.17354,-0.35481 0.35478,-0.53415 0.35479,-0.17355 0.53411,-0.53415 0.7115,-0.71156 0.17353,-0.17355 0.35478,-0.35481 0.5341,-0.53414 0.35478,-0.35483 0.5341,-0.53416 0.88888,-0.71157 0.17354,-0.17354 0.35479,-0.35481 0.53411,-0.53415 0.17353,0 0.17353,0 0.17353,-0.17355 L 184.35588,34.325935 c 2.31129,-1.600515 4.97814,-2.311499 7.64499,-2.311499 2.66665,0 5.3335,0.711554 7.6448,2.311499 l 146.31878,97.436005 c 0,0.17355 0,0.17355 0.17354,0.17355 0.17353,0.17355 0.35478,0.35482 0.5341,0.53415 0.35478,0.17356 0.5341,0.35481 0.88888,0.71157 0.17354,0.17354 0.35479,0.35481 0.53411,0.53414 0.17353,0.17355 0.35478,0.53415 0.71149,0.71156 0.17353,0.17355 0.17353,0.35481 0.35478,0.53415 0.17354,0.35482 0.5341,0.53416 0.7115,0.88897 0,0.17354 0.17353,0.35481 0.35478,0.71155 0.17353,0.17356 0.35478,0.53416 0.35478,0.88897 0.17354,0.17355 0.35478,0.35481 0.35478,0.53222 0.17354,0.71156 0.35479,0.71156 0.35479,0.71156 0.17353,0.53415 0.17353,0.88896 0.17353,1.06637 0.5341,0.35482 0.5341,0.71156 0.5341,1.06638 0,0.17354 0,0.53414 0,0.71155 0,0.53416 0,1.06638 0,1.77793 l 0,97.4362 c 0,0.71156 0,1.24377 0,1.77793 z" /></g></svg>