<?xml version="1.0" encoding="UTF-8" standalone="no"?>
<svg
   xmlns:dc="http://purl.org/dc/elements/1.1/"
   xmlns:cc="http://creativecommons.org/ns#"
   xmlns:rdf="http://www.w3.org/1999/02/22-rdf-syntax-ns#"
   xmlns:svg="http://www.w3.org/2000/svg"
   xmlns="http://www.w3.org/2000/svg"
   xmlns:sodipodi="http://sodipodi.sourceforge.net/DTD/sodipodi-0.dtd"
   xmlns:inkscape="http://www.inkscape.org/namespaces/inkscape"
   viewBox="0 0 480 480"
   height="480"
   width="480"
   xml:space="preserve"
   version="1.1"
   id="svg3390"
   inkscape:version="0.91 r13725"
   sodipodi:docname="google-plus-box.svg"><sodipodi:namedview
     pagecolor="#ffffff"
     bordercolor="#666666"
     borderopacity="1"
     objecttolerance="10"
     gridtolerance="10"
     guidetolerance="10"
     inkscape:pageopacity="0"
     inkscape:pageshadow="2"
     inkscape:window-width="1280"
     inkscape:window-height="660"
     id="namedview40"
     showgrid="false"
     inkscape:zoom="0.69532167"
     inkscape:cx="186.43865"
     inkscape:cy="273.37019"
     inkscape:window-x="-8"
     inkscape:window-y="-8"
     inkscape:window-maximized="1"
     inkscape:current-layer="g4012" /><metadata
     id="metadata3396"><rdf:RDF><cc:Work
         rdf:about=""><dc:format>image/svg+xml</dc:format><dc:type
           rdf:resource="http://purl.org/dc/dcmitype/StillImage" /><dc:title /></cc:Work></rdf:RDF></metadata><defs
     id="defs3394"><clipPath
       id="clipPath3404"
       clipPathUnits="userSpaceOnUse"><path
         id="path3406"
         d="M 0,48 48,48 48,0 0,0 0,48 Z" /></clipPath><clipPath
       id="clipPath3416"
       clipPathUnits="userSpaceOnUse"><path
         id="path3418"
         d="M 0,48 48,48 48,0 0,0 0,48 Z" /></clipPath><clipPath
       id="clipPath3426"
       clipPathUnits="userSpaceOnUse"><path
         id="path3428"
         d="M 0,48 48,48 48,0 0,0 0,48 Z" /></clipPath><clipPath
       id="clipPath3434"
       clipPathUnits="userSpaceOnUse"><path
         id="path3436"
         d="M 0,48 48,48 48,0 0,0 0,48 Z" /></clipPath><clipPath
       id="clipPath3442"
       clipPathUnits="userSpaceOnUse"><path
         id="path3444"
         d="m -2.13623e-4,48.0002 48.000013623,0 0,-48.000047412 -48.000013623,0 0,48.000047412 z" /></clipPath><clipPath
       id="clipPath3446"
       clipPathUnits="userSpaceOnUse"><path
         id="path3448"
         d="m -2.13623e-4,47.9998 48.000013623,0 0,-47.999952588 -48.000013623,0 0,47.999952588 z" /></clipPath><clipPath
       id="clipPath3450"
       clipPathUnits="userSpaceOnUse"><path
         id="path3452"
         d="M 48,48 0,48 0,0 48,0 48,48 Z" /></clipPath><clipPath
       id="clipPath3658"
       clipPathUnits="userSpaceOnUse"><path
         id="path3660"
         d="M 0,48 48,48 48,0 0,0 0,48 Z" /></clipPath><clipPath
       id="clipPath3668"
       clipPathUnits="userSpaceOnUse"><path
         id="path3670"
         d="m -2.28882e-4,48.0001 48.000028882,0 0,-47.99997793 -48.000028882,0 0,47.99997793 z" /></clipPath><clipPath
       id="clipPath3676"
       clipPathUnits="userSpaceOnUse"><path
         id="path3678"
         d="m -2.28882e-4,48.0001 48.000028882,0 0,-47.99997793 -48.000028882,0 0,47.99997793 z" /></clipPath><clipPath
       id="clipPath3680"
       clipPathUnits="userSpaceOnUse"><path
         id="path3682"
         d="M 0,0 48,0 48,48 0,48 0,0 Z" /></clipPath></defs><g
     transform="matrix(1.1904251,0,0,-1.1904756,11.429635,468.57131)"
     id="g3398"><g
       id="g3412"><g
         clip-path="url(#clipPath3416)"
         id="g3414"><g
           transform="matrix(1,0,0,-1,0,48)"
           id="g3420"><g
             id="g3422"><g
               clip-path="url(#clipPath3426)"
               id="g3424" /></g></g></g></g><path
       id="path3762"
       d=""
       style="fill:#000000"
       inkscape:connector-curvature="0" /><path
       id="path3760"
       d=""
       style="fill:#000000"
       inkscape:connector-curvature="0" /><path
       id="path3758"
       d=""
       style="fill:#000000"
       inkscape:connector-curvature="0" /><g
       transform="matrix(4.4382802,0,0,-4.4444444,31.999999,352)"
       id="g4012"><path
         d="M 80.154297 40 C 57.963848 40 40 57.988727 40 80.210938 L 40 400.31836 C 40 422.01147 57.963848 440 80.154297 440 L 399.82812 440 C 422.01857 440 440.64436 422.00141 439.98242 399.78906 L 439.98242 89.736328 C 439.98242 67.514117 421.49123 40 399.30078 40 L 80.154297 40 z M 181.58789 138.13281 C 209.52439 138.13281 232.88848 148.32089 249.65039 165.12891 L 222.22266 191.61328 C 215.11155 184.48261 201.90535 175.82422 181.58789 175.82422 C 146.54027 175.82422 119.11133 204.85599 119.11133 240 C 119.11133 275.14399 146.54027 304.17578 181.58789 304.17578 C 222.73074 304.17578 236.95238 275.14371 240 260.37305 L 181.58789 260.37305 L 181.58789 225.22852 L 277.58789 225.22852 C 279.11171 230.83118 279.11133 235.41621 279.11133 242.54688 C 279.11133 301.12022 240.00059 341.86719 181.58789 341.86719 C 125.20693 341.86719 80 296.536 80 240 C 80 183.46399 124.699 138.13281 181.58789 138.13281 z M 341.58789 196.19727 L 371.04688 196.19727 L 371.04688 225.22852 L 400 225.22852 L 399.49219 254.26172 L 370.53906 254.26172 L 370.53906 283.29297 L 341.58789 283.29297 L 341.58789 254.26172 L 312.63477 254.26172 L 312.63477 225.22852 L 341.58789 225.22852 L 341.58789 196.19727 z "
         transform="matrix(0.18927062,0,0,0.1890001,-9.3732938,-9.3600216)"
         id="path4001" /></g></g><style
     type="text/css"
     id="style3999">
	.st0{fill:#FFFFFF;}
</style></svg>