<?xml version="1.0" encoding="UTF-8" standalone="no"?>
<!-- Created with Inkscape (http://www.inkscape.org/) -->

<svg
   xmlns:dc="http://purl.org/dc/elements/1.1/"
   xmlns:cc="http://creativecommons.org/ns#"
   xmlns:rdf="http://www.w3.org/1999/02/22-rdf-syntax-ns#"
   xmlns:svg="http://www.w3.org/2000/svg"
   xmlns="http://www.w3.org/2000/svg"
   xmlns:sodipodi="http://sodipodi.sourceforge.net/DTD/sodipodi-0.dtd"
   xmlns:inkscape="http://www.inkscape.org/namespaces/inkscape"
   id="svg3390"
   version="1.1"
   inkscape:version="0.91 r13725"
   xml:space="preserve"
   width="480"
   height="480"
   viewBox="0 0 480 480"
   sodipodi:docname="steam-new.svg"><metadata
     id="metadata3396"><rdf:RDF><cc:Work
         rdf:about=""><dc:format>image/svg+xml</dc:format><dc:type
           rdf:resource="http://purl.org/dc/dcmitype/StillImage" /><dc:title></dc:title></cc:Work></rdf:RDF></metadata><defs
     id="defs3394"><inkscape:path-effect
       effect="bend_path"
       id="path-effect3560"
       is_visible="true"
       bendpath="m 6.2399998,-23.874916 35.0000002,0"
       prop_scale="1"
       scale_y_rel="false"
       vertical="false" /><clipPath
       clipPathUnits="userSpaceOnUse"
       id="clipPath3404"><path
         d="M 0,48 48,48 48,0 0,0 0,48 Z"
         id="path3406"
         inkscape:connector-curvature="0" /></clipPath><clipPath
       clipPathUnits="userSpaceOnUse"
       id="clipPath3416"><path
         d="M 0,48 48,48 48,0 0,0 0,48 Z"
         id="path3418"
         inkscape:connector-curvature="0" /></clipPath><clipPath
       clipPathUnits="userSpaceOnUse"
       id="clipPath3426"><path
         d="M 0,48 48,48 48,0 0,0 0,48 Z"
         id="path3428"
         inkscape:connector-curvature="0" /></clipPath><clipPath
       clipPathUnits="userSpaceOnUse"
       id="clipPath3434"><path
         d="M 0,48 48,48 48,0 0,0 0,48 Z"
         id="path3436"
         inkscape:connector-curvature="0" /></clipPath><clipPath
       clipPathUnits="userSpaceOnUse"
       id="clipPath3442"><path
         d="m -2.13623e-4,48.0002 48.000013623,0 0,-48.000047412 -48.000013623,0 0,48.000047412 z"
         id="path3444"
         inkscape:connector-curvature="0" /></clipPath><clipPath
       clipPathUnits="userSpaceOnUse"
       id="clipPath3446"><path
         d="m -2.13623e-4,47.9998 48.000013623,0 0,-47.999952588 -48.000013623,0 0,47.999952588 z"
         id="path3448"
         inkscape:connector-curvature="0" /></clipPath><clipPath
       clipPathUnits="userSpaceOnUse"
       id="clipPath3450"><path
         d="M 48,48 0,48 0,0 48,0 48,48 Z"
         id="path3452"
         inkscape:connector-curvature="0" /></clipPath><clipPath
       clipPathUnits="userSpaceOnUse"
       id="clipPath3658"><path
         d="M 0,48 48,48 48,0 0,0 0,48 Z"
         id="path3660"
         inkscape:connector-curvature="0" /></clipPath><clipPath
       clipPathUnits="userSpaceOnUse"
       id="clipPath3668"><path
         d="m -2.28882e-4,48.0001 48.000028882,0 0,-47.99997793 -48.000028882,0 0,47.99997793 z"
         id="path3670"
         inkscape:connector-curvature="0" /></clipPath><clipPath
       clipPathUnits="userSpaceOnUse"
       id="clipPath3676"><path
         d="m -2.28882e-4,48.0001 48.000028882,0 0,-47.99997793 -48.000028882,0 0,47.99997793 z"
         id="path3678"
         inkscape:connector-curvature="0" /></clipPath><clipPath
       clipPathUnits="userSpaceOnUse"
       id="clipPath3680"><path
         d="M 0,0 48,0 48,48 0,48 0,0 Z"
         id="path3682"
         inkscape:connector-curvature="0" /></clipPath></defs><sodipodi:namedview
     pagecolor="#ffffff"
     bordercolor="#666666"
     borderopacity="1"
     objecttolerance="10"
     gridtolerance="10"
     guidetolerance="10"
     inkscape:pageopacity="0"
     inkscape:pageshadow="2"
     inkscape:window-width="1280"
     inkscape:window-height="660"
     id="namedview3392"
     showgrid="false"
     inkscape:zoom="0.98333335"
     inkscape:cx="250.26089"
     inkscape:cy="253.16188"
     inkscape:window-x="-8"
     inkscape:window-y="-8"
     inkscape:window-maximized="1"
     inkscape:current-layer="g3398" /><g
     id="g3398"
     inkscape:groupmode="layer"
     inkscape:label="System_Icon_StickerSheet"
     transform="matrix(1.25,0,0,-1.25,0,480)"><g
       id="g3412"><g
         id="g3414"
         clip-path="url(#clipPath3416)"><g
           id="g3420"
           transform="matrix(1,0,0,-1,0,48)"><g
             id="g3422"><g
               id="g3424"
               clip-path="url(#clipPath3426)" /></g></g></g></g><path
       style="fill:#000000"
       d=""
       id="path3762"
       inkscape:connector-curvature="0" /><path
       style="fill:#000000"
       d=""
       id="path3760"
       inkscape:connector-curvature="0" /><path
       style="fill:#000000"
       d=""
       id="path3758"
       inkscape:connector-curvature="0" /><path
       id="path4362"
       d="m 311.34053,252.83706 c 0,-26.08405 -21.12881,-47.2484 -47.16114,-47.2484 -26.03233,0 -47.16114,21.17079 -47.16114,47.2484 0,26.07762 21.13523,47.25484 47.16114,47.25484 26.02592,0 47.16114,-21.17079 47.16114,-47.25484 z M 32.006419,102.44218 49.996712,95.08514 C 56.427776,65.47691 82.768183,43.2 114.20466,43.2 c 34.05512,0 62.13486,26.14836 65.38249,59.42224 l 84.34835,61.78886 c 48.61807,0 88.0645,39.45405 88.0645,88.15586 0,48.72753 -39.44643,88.23304 -88.0645,88.23304 -48.34851,0 -87.62165,-39.06821 -88.05809,-87.4163 l -54.86943,-78.78593 c -2.23354,0.23794 -4.50559,0.373 -6.80332,0.373 -12.25881,0 -23.708931,-3.37627 -33.560911,-9.28633 l -48.643748,19.87172 0,-83.11398 z M 263.94192,311.72554 c 32.5725,0 59.03486,-26.52779 59.03486,-59.15858 0,-32.63078 -26.46236,-59.06854 -59.03486,-59.06854 -32.57251,0 -59.04128,26.43132 -59.04128,59.06854 0,32.63722 26.46877,59.15858 59.04128,59.15858 z M 114.21108,157.51709 c 26.7961,0 48.34209,-21.58237 48.34209,-48.43171 0,-26.84934 -21.54599,-48.4317 -48.34209,-48.4317 -18.638533,0 -34.72903,10.40532 -42.803161,25.80109 7.945766,-3.21549 15.910787,-6.3924 23.843717,-9.62075 19.710374,-7.93582 42.148504,1.60132 50.075014,21.35086 7.92651,19.74953 -1.70083,42.13577 -21.41121,50.06517 l -20.13398,8.0966 c 3.35031,0.73957 6.84825,1.1833 10.42962,1.1833 z"
       inkscape:connector-curvature="0"
       style="fill:#000000" /></g><style
     id="style3999"
     type="text/css">
	.st0{fill:#FFFFFF;}
</style><style
     id="style4048"
     type="text/css">
	.st0{fill:#FFFFFF;}
</style></svg>