<?xml version="1.0" encoding="UTF-8" standalone="no"?>
<!-- Created with Inkscape (http://www.inkscape.org/) -->

<svg
   xmlns:dc="http://purl.org/dc/elements/1.1/"
   xmlns:cc="http://creativecommons.org/ns#"
   xmlns:rdf="http://www.w3.org/1999/02/22-rdf-syntax-ns#"
   xmlns:svg="http://www.w3.org/2000/svg"
   xmlns="http://www.w3.org/2000/svg"
   xmlns:sodipodi="http://sodipodi.sourceforge.net/DTD/sodipodi-0.dtd"
   xmlns:inkscape="http://www.inkscape.org/namespaces/inkscape"
   id="svg3390"
   version="1.1"
   inkscape:version="0.91 r13725"
   xml:space="preserve"
   width="480"
   height="480"
   viewBox="0 0 480 480"
   sodipodi:docname="language.svg"><metadata
     id="metadata3396"><rdf:RDF><cc:Work
         rdf:about=""><dc:format>image/svg+xml</dc:format><dc:type
           rdf:resource="http://purl.org/dc/dcmitype/StillImage" /><dc:title></dc:title></cc:Work></rdf:RDF></metadata><defs
     id="defs3394"><inkscape:path-effect
       effect="bend_path"
       id="path-effect3560"
       is_visible="true"
       bendpath="m 6.2399998,-23.874916 35.0000002,0"
       prop_scale="1"
       scale_y_rel="false"
       vertical="false" /><clipPath
       clipPathUnits="userSpaceOnUse"
       id="clipPath3404"><path
         d="M 0,48 48,48 48,0 0,0 0,48 Z"
         id="path3406"
         inkscape:connector-curvature="0" /></clipPath><clipPath
       clipPathUnits="userSpaceOnUse"
       id="clipPath3416"><path
         d="M 0,48 48,48 48,0 0,0 0,48 Z"
         id="path3418"
         inkscape:connector-curvature="0" /></clipPath><clipPath
       clipPathUnits="userSpaceOnUse"
       id="clipPath3426"><path
         d="M 0,48 48,48 48,0 0,0 0,48 Z"
         id="path3428"
         inkscape:connector-curvature="0" /></clipPath><clipPath
       clipPathUnits="userSpaceOnUse"
       id="clipPath3434"><path
         d="M 0,48 48,48 48,0 0,0 0,48 Z"
         id="path3436"
         inkscape:connector-curvature="0" /></clipPath><clipPath
       clipPathUnits="userSpaceOnUse"
       id="clipPath3442"><path
         d="m -2.13623e-4,48.0002 48.000013623,0 0,-48.000047412 -48.000013623,0 0,48.000047412 z"
         id="path3444"
         inkscape:connector-curvature="0" /></clipPath><clipPath
       clipPathUnits="userSpaceOnUse"
       id="clipPath3446"><path
         d="m -2.13623e-4,47.9998 48.000013623,0 0,-47.999952588 -48.000013623,0 0,47.999952588 z"
         id="path3448"
         inkscape:connector-curvature="0" /></clipPath><clipPath
       clipPathUnits="userSpaceOnUse"
       id="clipPath3450"><path
         d="M 48,48 0,48 0,0 48,0 48,48 Z"
         id="path3452"
         inkscape:connector-curvature="0" /></clipPath><clipPath
       clipPathUnits="userSpaceOnUse"
       id="clipPath3658"><path
         d="M 0,48 48,48 48,0 0,0 0,48 Z"
         id="path3660"
         inkscape:connector-curvature="0" /></clipPath><clipPath
       clipPathUnits="userSpaceOnUse"
       id="clipPath3668"><path
         d="m -2.28882e-4,48.0001 48.000028882,0 0,-47.99997793 -48.000028882,0 0,47.99997793 z"
         id="path3670"
         inkscape:connector-curvature="0" /></clipPath><clipPath
       clipPathUnits="userSpaceOnUse"
       id="clipPath3676"><path
         d="m -2.28882e-4,48.0001 48.000028882,0 0,-47.99997793 -48.000028882,0 0,47.99997793 z"
         id="path3678"
         inkscape:connector-curvature="0" /></clipPath><clipPath
       clipPathUnits="userSpaceOnUse"
       id="clipPath3680"><path
         d="M 0,0 48,0 48,48 0,48 0,0 Z"
         id="path3682"
         inkscape:connector-curvature="0" /></clipPath></defs><sodipodi:namedview
     pagecolor="#ffffff"
     bordercolor="#666666"
     borderopacity="1"
     objecttolerance="10"
     gridtolerance="10"
     guidetolerance="10"
     inkscape:pageopacity="0"
     inkscape:pageshadow="2"
     inkscape:window-width="1280"
     inkscape:window-height="660"
     id="namedview3392"
     showgrid="false"
     inkscape:zoom="0.49166668"
     inkscape:cx="126.48556"
     inkscape:cy="174.51092"
     inkscape:window-x="-8"
     inkscape:window-y="-8"
     inkscape:window-maximized="1"
     inkscape:current-layer="g3398" /><g
     id="g3398"
     inkscape:groupmode="layer"
     inkscape:label="System_Icon_StickerSheet"
     transform="matrix(1.25,0,0,-1.25,0,480)"><g
       id="g3430"
       transform="scale(8.0000333,8.0000333)"><g
         id="g3432"
         clip-path="url(#clipPath3434)"><g
           id="g3438"><g
             id="g3440" /><g
             id="g3454"><g
               clip-path="url(#clipPath3442)"
               id="g3456"
               style="opacity:0.14999402"><g
                 transform="matrix(1,0,0,-1,0,48)"
                 id="g3458"><g
                   id="g3460"><g
                     clip-path="url(#clipPath3446)"
                     id="g3462"><g
                       id="g3464"><g
                         clip-path="url(#clipPath3450)"
                         id="g3466"><g
                           transform="translate(1.9998,47.9998)"
                           id="g3468"><path
                             d="M 0,0 0,-48"
                             style="fill:none;stroke:#000000;stroke-width:0.03124987;stroke-linecap:butt;stroke-linejoin:miter;stroke-miterlimit:10;stroke-dasharray:none;stroke-opacity:1"
                             id="path3470"
                             inkscape:connector-curvature="0" /></g><g
                           transform="translate(3.9998,47.9998)"
                           id="g3472"><path
                             d="M 0,0 0,-48"
                             style="fill:none;stroke:#000000;stroke-width:0.03124987;stroke-linecap:butt;stroke-linejoin:miter;stroke-miterlimit:10;stroke-dasharray:none;stroke-opacity:1"
                             id="path3474"
                             inkscape:connector-curvature="0" /></g><g
                           transform="translate(5.9998,47.9998)"
                           id="g3476"><path
                             d="M 0,0 0,-48"
                             style="fill:none;stroke:#000000;stroke-width:0.03124987;stroke-linecap:butt;stroke-linejoin:miter;stroke-miterlimit:10;stroke-dasharray:none;stroke-opacity:1"
                             id="path3478"
                             inkscape:connector-curvature="0" /></g><g
                           transform="translate(7.9998,47.9998)"
                           id="g3480"><path
                             d="M 0,0 0,-48"
                             style="fill:none;stroke:#000000;stroke-width:0.03124987;stroke-linecap:butt;stroke-linejoin:miter;stroke-miterlimit:10;stroke-dasharray:none;stroke-opacity:1"
                             id="path3482"
                             inkscape:connector-curvature="0" /></g><g
                           transform="translate(9.9998,47.9998)"
                           id="g3484"><path
                             d="M 0,0 0,-48"
                             style="fill:none;stroke:#000000;stroke-width:0.03124987;stroke-linecap:butt;stroke-linejoin:miter;stroke-miterlimit:10;stroke-dasharray:none;stroke-opacity:1"
                             id="path3486"
                             inkscape:connector-curvature="0" /></g><g
                           transform="translate(11.9998,47.9998)"
                           id="g3488"><path
                             d="M 0,0 0,-48"
                             style="fill:none;stroke:#000000;stroke-width:0.03124987;stroke-linecap:butt;stroke-linejoin:miter;stroke-miterlimit:10;stroke-dasharray:none;stroke-opacity:1"
                             id="path3490"
                             inkscape:connector-curvature="0" /></g><g
                           transform="translate(13.9998,47.9998)"
                           id="g3492"><path
                             d="M 0,0 0,-48"
                             style="fill:none;stroke:#000000;stroke-width:0.03124987;stroke-linecap:butt;stroke-linejoin:miter;stroke-miterlimit:10;stroke-dasharray:none;stroke-opacity:1"
                             id="path3494"
                             inkscape:connector-curvature="0" /></g><g
                           transform="translate(15.9998,47.9998)"
                           id="g3496"><path
                             d="M 0,0 0,-48"
                             style="fill:none;stroke:#000000;stroke-width:0.03124987;stroke-linecap:butt;stroke-linejoin:miter;stroke-miterlimit:10;stroke-dasharray:none;stroke-opacity:1"
                             id="path3498"
                             inkscape:connector-curvature="0" /></g><g
                           transform="translate(17.9998,47.9998)"
                           id="g3500"><path
                             d="M 0,0 0,-48"
                             style="fill:none;stroke:#000000;stroke-width:0.03124987;stroke-linecap:butt;stroke-linejoin:miter;stroke-miterlimit:10;stroke-dasharray:none;stroke-opacity:1"
                             id="path3502"
                             inkscape:connector-curvature="0" /></g><g
                           transform="translate(19.9998,47.9998)"
                           id="g3504"><path
                             d="M 0,0 0,-48"
                             style="fill:none;stroke:#000000;stroke-width:0.03124987;stroke-linecap:butt;stroke-linejoin:miter;stroke-miterlimit:10;stroke-dasharray:none;stroke-opacity:1"
                             id="path3506"
                             inkscape:connector-curvature="0" /></g><g
                           transform="translate(21.9998,47.9998)"
                           id="g3508"><path
                             d="M 0,0 0,-48"
                             style="fill:none;stroke:#000000;stroke-width:0.03124987;stroke-linecap:butt;stroke-linejoin:miter;stroke-miterlimit:10;stroke-dasharray:none;stroke-opacity:1"
                             id="path3510"
                             inkscape:connector-curvature="0" /></g><g
                           transform="translate(23.9998,47.9998)"
                           id="g3512"><path
                             d="M 0,0 0,-48"
                             style="fill:none;stroke:#000000;stroke-width:0.03124987;stroke-linecap:butt;stroke-linejoin:miter;stroke-miterlimit:10;stroke-dasharray:none;stroke-opacity:1"
                             id="path3514"
                             inkscape:connector-curvature="0" /></g><g
                           transform="translate(25.9998,47.9998)"
                           id="g3516"><path
                             d="M 0,0 0,-48"
                             style="fill:none;stroke:#000000;stroke-width:0.03124987;stroke-linecap:butt;stroke-linejoin:miter;stroke-miterlimit:10;stroke-dasharray:none;stroke-opacity:1"
                             id="path3518"
                             inkscape:connector-curvature="0" /></g><g
                           transform="translate(27.9998,47.9998)"
                           id="g3520"><path
                             d="M 0,0 0,-48"
                             style="fill:none;stroke:#000000;stroke-width:0.03124987;stroke-linecap:butt;stroke-linejoin:miter;stroke-miterlimit:10;stroke-dasharray:none;stroke-opacity:1"
                             id="path3522"
                             inkscape:connector-curvature="0" /></g><g
                           transform="translate(29.9998,47.9998)"
                           id="g3524"><path
                             d="M 0,0 0,-48"
                             style="fill:none;stroke:#000000;stroke-width:0.03124987;stroke-linecap:butt;stroke-linejoin:miter;stroke-miterlimit:10;stroke-dasharray:none;stroke-opacity:1"
                             id="path3526"
                             inkscape:connector-curvature="0" /></g><g
                           transform="translate(31.9998,47.9998)"
                           id="g3528"><path
                             d="M 0,0 0,-48"
                             style="fill:none;stroke:#000000;stroke-width:0.03124987;stroke-linecap:butt;stroke-linejoin:miter;stroke-miterlimit:10;stroke-dasharray:none;stroke-opacity:1"
                             id="path3530"
                             inkscape:connector-curvature="0" /></g><g
                           transform="translate(33.9998,47.9998)"
                           id="g3532"><path
                             d="M 0,0 0,-48"
                             style="fill:none;stroke:#000000;stroke-width:0.03124987;stroke-linecap:butt;stroke-linejoin:miter;stroke-miterlimit:10;stroke-dasharray:none;stroke-opacity:1"
                             id="path3534"
                             inkscape:connector-curvature="0" /></g><g
                           transform="translate(35.9998,47.9998)"
                           id="g3536"><path
                             d="M 0,0 0,-48"
                             style="fill:none;stroke:#000000;stroke-width:0.03124987;stroke-linecap:butt;stroke-linejoin:miter;stroke-miterlimit:10;stroke-dasharray:none;stroke-opacity:1"
                             id="path3538"
                             inkscape:connector-curvature="0" /></g><g
                           transform="translate(37.9998,47.9998)"
                           id="g3540"><path
                             d="M 0,0 0,-48"
                             style="fill:none;stroke:#000000;stroke-width:0.03124987;stroke-linecap:butt;stroke-linejoin:miter;stroke-miterlimit:10;stroke-dasharray:none;stroke-opacity:1"
                             id="path3542"
                             inkscape:connector-curvature="0" /></g><g
                           transform="translate(39.9998,47.9998)"
                           id="g3544"><path
                             d="M 0,0 0,-48"
                             style="fill:none;stroke:#000000;stroke-width:0.03124987;stroke-linecap:butt;stroke-linejoin:miter;stroke-miterlimit:10;stroke-dasharray:none;stroke-opacity:1"
                             id="path3546"
                             inkscape:connector-curvature="0" /></g><g
                           transform="translate(41.9998,47.9998)"
                           id="g3548"><path
                             d="M 0,0 0,-48"
                             style="fill:none;stroke:#000000;stroke-width:0.03124987;stroke-linecap:butt;stroke-linejoin:miter;stroke-miterlimit:10;stroke-dasharray:none;stroke-opacity:1"
                             id="path3550"
                             inkscape:connector-curvature="0" /></g><g
                           transform="translate(43.9998,47.9998)"
                           id="g3552"><path
                             d="M 0,0 0,-48"
                             style="fill:none;stroke:#000000;stroke-width:0.03124987;stroke-linecap:butt;stroke-linejoin:miter;stroke-miterlimit:10;stroke-dasharray:none;stroke-opacity:1"
                             id="path3554"
                             inkscape:connector-curvature="0" /></g><g
                           transform="translate(45.9998,47.9998)"
                           id="g3556"><path
                             d="M 0,0 0,-48"
                             style="fill:none;stroke:#000000;stroke-width:0.03124987;stroke-linecap:butt;stroke-linejoin:miter;stroke-miterlimit:10;stroke-dasharray:none;stroke-opacity:1"
                             id="path3558"
                             inkscape:connector-curvature="0" /></g><g
                           transform="translate(-2e-4,1.9998)"
                           id="g3560"><path
                             d="M 0,0 48,0"
                             style="fill:none;stroke:#000000;stroke-width:0.03124987;stroke-linecap:butt;stroke-linejoin:miter;stroke-miterlimit:10;stroke-dasharray:none;stroke-opacity:1"
                             id="path3562"
                             inkscape:connector-curvature="0" /></g><g
                           transform="translate(-2e-4,3.9998)"
                           id="g3564"><path
                             d="M 0,0 48,0"
                             style="fill:none;stroke:#000000;stroke-width:0.03124987;stroke-linecap:butt;stroke-linejoin:miter;stroke-miterlimit:10;stroke-dasharray:none;stroke-opacity:1"
                             id="path3566"
                             inkscape:connector-curvature="0" /></g><g
                           transform="translate(-2e-4,5.9998)"
                           id="g3568"><path
                             d="M 0,0 48,0"
                             style="fill:none;stroke:#000000;stroke-width:0.03124987;stroke-linecap:butt;stroke-linejoin:miter;stroke-miterlimit:10;stroke-dasharray:none;stroke-opacity:1"
                             id="path3570"
                             inkscape:connector-curvature="0" /></g><g
                           transform="translate(-2e-4,7.9998)"
                           id="g3572"><path
                             d="M 0,0 48,0"
                             style="fill:none;stroke:#000000;stroke-width:0.03124987;stroke-linecap:butt;stroke-linejoin:miter;stroke-miterlimit:10;stroke-dasharray:none;stroke-opacity:1"
                             id="path3574"
                             inkscape:connector-curvature="0" /></g><g
                           transform="translate(-2e-4,9.9998)"
                           id="g3576"><path
                             d="M 0,0 48,0"
                             style="fill:none;stroke:#000000;stroke-width:0.03124987;stroke-linecap:butt;stroke-linejoin:miter;stroke-miterlimit:10;stroke-dasharray:none;stroke-opacity:1"
                             id="path3578"
                             inkscape:connector-curvature="0" /></g><g
                           transform="translate(-2e-4,11.9998)"
                           id="g3580"><path
                             d="M 0,0 48,0"
                             style="fill:none;stroke:#000000;stroke-width:0.03124987;stroke-linecap:butt;stroke-linejoin:miter;stroke-miterlimit:10;stroke-dasharray:none;stroke-opacity:1"
                             id="path3582"
                             inkscape:connector-curvature="0" /></g><g
                           transform="translate(-2e-4,13.9998)"
                           id="g3584"><path
                             d="M 0,0 48,0"
                             style="fill:none;stroke:#000000;stroke-width:0.03124987;stroke-linecap:butt;stroke-linejoin:miter;stroke-miterlimit:10;stroke-dasharray:none;stroke-opacity:1"
                             id="path3586"
                             inkscape:connector-curvature="0" /></g><g
                           transform="translate(-2e-4,15.9998)"
                           id="g3588"><path
                             d="M 0,0 48,0"
                             style="fill:none;stroke:#000000;stroke-width:0.03124987;stroke-linecap:butt;stroke-linejoin:miter;stroke-miterlimit:10;stroke-dasharray:none;stroke-opacity:1"
                             id="path3590"
                             inkscape:connector-curvature="0" /></g><g
                           transform="translate(-2e-4,17.9998)"
                           id="g3592"><path
                             d="M 0,0 48,0"
                             style="fill:none;stroke:#000000;stroke-width:0.03124987;stroke-linecap:butt;stroke-linejoin:miter;stroke-miterlimit:10;stroke-dasharray:none;stroke-opacity:1"
                             id="path3594"
                             inkscape:connector-curvature="0" /></g><g
                           transform="translate(-2e-4,19.9998)"
                           id="g3596"><path
                             d="M 0,0 48,0"
                             style="fill:none;stroke:#000000;stroke-width:0.03124987;stroke-linecap:butt;stroke-linejoin:miter;stroke-miterlimit:10;stroke-dasharray:none;stroke-opacity:1"
                             id="path3598"
                             inkscape:connector-curvature="0" /></g><g
                           transform="translate(-2e-4,21.9998)"
                           id="g3600"><path
                             d="M 0,0 48,0"
                             style="fill:none;stroke:#000000;stroke-width:0.03124987;stroke-linecap:butt;stroke-linejoin:miter;stroke-miterlimit:10;stroke-dasharray:none;stroke-opacity:1"
                             id="path3602"
                             inkscape:connector-curvature="0" /></g><g
                           transform="translate(-2e-4,23.9998)"
                           id="g3604"><path
                             d="M 0,0 48,0"
                             style="fill:none;stroke:#000000;stroke-width:0.03124987;stroke-linecap:butt;stroke-linejoin:miter;stroke-miterlimit:10;stroke-dasharray:none;stroke-opacity:1"
                             id="path3606"
                             inkscape:connector-curvature="0" /></g><g
                           transform="translate(-2e-4,25.9998)"
                           id="g3608"><path
                             d="M 0,0 48,0"
                             style="fill:none;stroke:#000000;stroke-width:0.03124987;stroke-linecap:butt;stroke-linejoin:miter;stroke-miterlimit:10;stroke-dasharray:none;stroke-opacity:1"
                             id="path3610"
                             inkscape:connector-curvature="0" /></g><g
                           transform="translate(-2e-4,27.9998)"
                           id="g3612"><path
                             d="M 0,0 48,0"
                             style="fill:none;stroke:#000000;stroke-width:0.03124987;stroke-linecap:butt;stroke-linejoin:miter;stroke-miterlimit:10;stroke-dasharray:none;stroke-opacity:1"
                             id="path3614"
                             inkscape:connector-curvature="0" /></g><g
                           transform="translate(-2e-4,29.9998)"
                           id="g3616"><path
                             d="M 0,0 48,0"
                             style="fill:none;stroke:#000000;stroke-width:0.03124987;stroke-linecap:butt;stroke-linejoin:miter;stroke-miterlimit:10;stroke-dasharray:none;stroke-opacity:1"
                             id="path3618"
                             inkscape:connector-curvature="0" /></g><g
                           transform="translate(-2e-4,31.9998)"
                           id="g3620"><path
                             d="M 0,0 48,0"
                             style="fill:none;stroke:#000000;stroke-width:0.03124987;stroke-linecap:butt;stroke-linejoin:miter;stroke-miterlimit:10;stroke-dasharray:none;stroke-opacity:1"
                             id="path3622"
                             inkscape:connector-curvature="0" /></g><g
                           transform="translate(-2e-4,33.9998)"
                           id="g3624"><path
                             d="M 0,0 48,0"
                             style="fill:none;stroke:#000000;stroke-width:0.03124987;stroke-linecap:butt;stroke-linejoin:miter;stroke-miterlimit:10;stroke-dasharray:none;stroke-opacity:1"
                             id="path3626"
                             inkscape:connector-curvature="0" /></g><g
                           transform="translate(-2e-4,35.9998)"
                           id="g3628"><path
                             d="M 0,0 48,0"
                             style="fill:none;stroke:#000000;stroke-width:0.03124987;stroke-linecap:butt;stroke-linejoin:miter;stroke-miterlimit:10;stroke-dasharray:none;stroke-opacity:1"
                             id="path3630"
                             inkscape:connector-curvature="0" /></g><g
                           transform="translate(-2e-4,37.9998)"
                           id="g3632"><path
                             d="M 0,0 48,0"
                             style="fill:none;stroke:#000000;stroke-width:0.03124987;stroke-linecap:butt;stroke-linejoin:miter;stroke-miterlimit:10;stroke-dasharray:none;stroke-opacity:1"
                             id="path3634"
                             inkscape:connector-curvature="0" /></g><g
                           transform="translate(-2e-4,39.9998)"
                           id="g3636"><path
                             d="M 0,0 48,0"
                             style="fill:none;stroke:#000000;stroke-width:0.03124987;stroke-linecap:butt;stroke-linejoin:miter;stroke-miterlimit:10;stroke-dasharray:none;stroke-opacity:1"
                             id="path3638"
                             inkscape:connector-curvature="0" /></g><g
                           transform="translate(-2e-4,41.9998)"
                           id="g3640"><path
                             d="M 0,0 48,0"
                             style="fill:none;stroke:#000000;stroke-width:0.03124987;stroke-linecap:butt;stroke-linejoin:miter;stroke-miterlimit:10;stroke-dasharray:none;stroke-opacity:1"
                             id="path3642"
                             inkscape:connector-curvature="0" /></g><g
                           transform="translate(-2e-4,43.9998)"
                           id="g3644"><path
                             d="M 0,0 48,0"
                             style="fill:none;stroke:#000000;stroke-width:0.03124987;stroke-linecap:butt;stroke-linejoin:miter;stroke-miterlimit:10;stroke-dasharray:none;stroke-opacity:1"
                             id="path3646"
                             inkscape:connector-curvature="0" /></g><g
                           transform="translate(-2e-4,45.9998)"
                           id="g3648"><path
                             d="M 0,0 48,0"
                             style="fill:none;stroke:#000000;stroke-width:0.03124987;stroke-linecap:butt;stroke-linejoin:miter;stroke-miterlimit:10;stroke-dasharray:none;stroke-opacity:1"
                             id="path3650"
                             inkscape:connector-curvature="0" /></g></g></g><path
                       d="M 0,0 48,0 48,48 0,48 0,0 Z m 0.25,47.749 47.499,0 0,-47.499 -47.499,0 0,47.499 z"
                       style="fill:#000000;fill-opacity:1;fill-rule:nonzero;stroke:none"
                       id="path3652"
                       inkscape:connector-curvature="0" /></g></g></g></g></g></g></g></g><g
       id="g3654"
       transform="scale(8.0000333,8.0000333)"><g
         id="g3656"
         clip-path="url(#clipPath3658)"><g
           id="g3662"
           transform="matrix(1,0,0,-1,0,48)"><g
             id="g3664"><g
               id="g3666"
               clip-path="url(#clipPath3668)"><g
                 id="g3672"><g
                   id="g3674" /><g
                   id="g3684"><g
                     clip-path="url(#clipPath3676)"
                     id="g3686"
                     style="opacity:0.39999402"><g
                       id="g3688"><g
                         clip-path="url(#clipPath3680)"
                         id="g3690"><g
                           transform="translate(23.9998,1e-4)"
                           id="g3692"><path
                             d="M 0,0 0,48"
                             style="fill:none;stroke:#000000;stroke-width:0.03124987;stroke-linecap:butt;stroke-linejoin:miter;stroke-miterlimit:10;stroke-dasharray:none;stroke-opacity:1"
                             id="path3694"
                             inkscape:connector-curvature="0" /></g><g
                           transform="translate(47.9998,24.0001)"
                           id="g3696"><path
                             d="M 0,0 -48,0"
                             style="fill:none;stroke:#000000;stroke-width:0.03124987;stroke-linecap:butt;stroke-linejoin:miter;stroke-miterlimit:10;stroke-dasharray:none;stroke-opacity:1"
                             id="path3698"
                             inkscape:connector-curvature="0" /></g><g
                           transform="translate(47.9998,16.0001)"
                           id="g3700"><path
                             d="M 0,0 -48,0"
                             style="fill:none;stroke:#000000;stroke-width:0.03124987;stroke-linecap:butt;stroke-linejoin:miter;stroke-miterlimit:10;stroke-dasharray:none;stroke-opacity:1"
                             id="path3702"
                             inkscape:connector-curvature="0" /></g><g
                           transform="translate(47.9998,32.0001)"
                           id="g3704"><path
                             d="M 0,0 -48,0"
                             style="fill:none;stroke:#000000;stroke-width:0.03124987;stroke-linecap:butt;stroke-linejoin:miter;stroke-miterlimit:10;stroke-dasharray:none;stroke-opacity:1"
                             id="path3706"
                             inkscape:connector-curvature="0" /></g><g
                           transform="translate(31.9998,48.0001)"
                           id="g3708"><path
                             d="M 0,0 0,-48"
                             style="fill:none;stroke:#000000;stroke-width:0.03124987;stroke-linecap:butt;stroke-linejoin:miter;stroke-miterlimit:10;stroke-dasharray:none;stroke-opacity:1"
                             id="path3710"
                             inkscape:connector-curvature="0" /></g><g
                           transform="translate(15.9998,48.0001)"
                           id="g3712"><path
                             d="M 0,0 0,-48"
                             style="fill:none;stroke:#000000;stroke-width:0.03124987;stroke-linecap:butt;stroke-linejoin:miter;stroke-miterlimit:10;stroke-dasharray:none;stroke-opacity:1"
                             id="path3714"
                             inkscape:connector-curvature="0" /></g><g
                           transform="translate(47.7498,0.2501)"
                           id="g3716"><path
                             d="M 0,0 -47.5,47.5"
                             style="fill:none;stroke:#000000;stroke-width:0.03124987;stroke-linecap:butt;stroke-linejoin:miter;stroke-miterlimit:10;stroke-dasharray:none;stroke-opacity:1"
                             id="path3718"
                             inkscape:connector-curvature="0" /></g><g
                           transform="translate(0.2498,0.2501)"
                           id="g3720"><path
                             d="M 0,0 47.5,47.5"
                             style="fill:none;stroke:#000000;stroke-width:0.03124987;stroke-linecap:butt;stroke-linejoin:miter;stroke-miterlimit:10;stroke-dasharray:none;stroke-opacity:1"
                             id="path3722"
                             inkscape:connector-curvature="0" /></g><g
                           transform="translate(24.0005,13.9999)"
                           id="g3724"><path
                             d="m 0,0 c -5.523,0 -10,4.477 -10,10 0,5.522 4.477,10 10,10 C 5.522,20 10,15.522 10,10 10,4.477 5.522,0 0,0 Z"
                             style="fill:none;stroke:#000000;stroke-width:0.03124987;stroke-linecap:butt;stroke-linejoin:miter;stroke-miterlimit:10;stroke-dasharray:none;stroke-opacity:1"
                             id="path3726"
                             inkscape:connector-curvature="0" /></g><g
                           transform="translate(23.9998,4.0001)"
                           id="g3728"><path
                             d="m 0,0 c -11.054,0 -20,8.947 -20,20 0,11.053 8.946,20 20,20 C 11.053,40 20,31.053 20,20 20,8.947 11.053,0 0,0 Z"
                             style="fill:none;stroke:#000000;stroke-width:0.03124987;stroke-linecap:butt;stroke-linejoin:miter;stroke-miterlimit:10;stroke-dasharray:none;stroke-opacity:1"
                             id="path3730"
                             inkscape:connector-curvature="0" /></g><g
                           transform="translate(37.9998,6.0001)"
                           id="g3732"><path
                             d="m 0,0 -28,0 c -2.211,0 -4,1.791 -4,4 l 0,28 c 0,2.209 1.789,4 4,4 l 28,0 c 2.211,0 4,-1.791 4,-4 L 4,4 C 4,1.791 2.211,0 0,0 Z"
                             style="fill:none;stroke:#000000;stroke-width:0.03124987;stroke-linecap:butt;stroke-linejoin:miter;stroke-miterlimit:10;stroke-dasharray:none;stroke-opacity:1"
                             id="path3734"
                             inkscape:connector-curvature="0" /></g><g
                           transform="translate(39.9998,8.0001)"
                           id="g3736"><path
                             d="m 0,0 -32,0 c -2.209,0 -4,1.791 -4,4 l 0,24 c 0,2.209 1.791,4 4,4 l 32,0 c 2.209,0 4,-1.791 4,-4 L 4,4 C 4,1.791 2.209,0 0,0 Z"
                             style="fill:none;stroke:#000000;stroke-width:0.03124987;stroke-linecap:butt;stroke-linejoin:miter;stroke-miterlimit:10;stroke-dasharray:none;stroke-opacity:1"
                             id="path3738"
                             inkscape:connector-curvature="0" /></g><g
                           transform="translate(39.9998,40.0001)"
                           id="g3740"><path
                             d="m 0,0 0,-32 c 0,-2.209 -1.791,-4 -4,-4 l -24,0 c -2.209,0 -4,1.791 -4,4 l 0,32 c 0,2.209 1.791,4 4,4 L -4,4 C -1.791,4 0,2.209 0,0 Z"
                             style="fill:none;stroke:#000000;stroke-width:0.03124987;stroke-linecap:butt;stroke-linejoin:miter;stroke-miterlimit:10;stroke-dasharray:none;stroke-opacity:1"
                             id="path3742"
                             inkscape:connector-curvature="0" /></g><path
                           d="M 48,0 0,0 0,48 48,48 48,0 Z m -0.25,47.75 -47.5,0 0,-47.5 47.5,0 0,47.5 z"
                           style="fill:#000000;fill-opacity:1;fill-rule:nonzero;stroke:none"
                           id="path3744"
                           inkscape:connector-curvature="0" /></g></g></g></g></g></g></g></g></g></g><g
       id="g3412"><g
         id="g3414"
         clip-path="url(#clipPath3416)"><g
           id="g3420"
           transform="matrix(1,0,0,-1,0,48)"><g
             id="g3422"><g
               id="g3424"
               clip-path="url(#clipPath3426)" /></g></g></g></g><path
       style="fill:#000000"
       d="m 175.9588,32.288268 c -7.06821,0.734042 -12.10546,1.527035 -18.53488,2.91787 -5.44657,1.17821 -11.83701,3.000264 -16.98477,4.842715 -10.94998,3.919146 -19.18082,7.730175 -26.78795,12.403323 -3.80873,2.339736 -4.09122,2.647428 -4.09122,4.456192 0,0.895508 0.0428,1.133879 0.29415,1.638281 0.34109,0.684464 0.91485,1.227456 1.63247,1.544886 0.40085,0.177312 0.70013,0.215548 1.44,0.183981 0.83956,-0.03583 1.04867,-0.09532 2.06836,-0.588435 0.62389,-0.301711 2.14406,-1.158776 3.37814,-1.904574 2.9038,-1.754866 4.26901,-2.484623 8.35455,-4.46576 5.90299,-2.862459 9.81691,-4.519291 15.14375,-6.410654 10.5059,-3.730239 20.51947,-6.109712 30.47815,-7.242365 8.34004,-0.948558 8.13347,-0.933834 13.92141,-0.992808 5.28663,-0.05386 5.46287,-0.04833 9.62468,0.302363 9.10058,0.76687 14.85811,1.698137 22.80132,3.688075 5.11992,1.282648 13.603,4.159293 17.71359,6.006738 0.61736,0.277455 1.9373,0.847384 2.93322,1.266504 2.29888,0.967464 9.06654,4.35039 11.83648,5.916657 1.8562,1.049595 5.29343,3.126554 5.87413,3.549479 0.18527,0.134917 -0.12842,0.691647 -3.69379,6.555735 -2.14294,3.524558 -3.88399,6.416877 -3.869,6.427361 0.015,0.01043 6.43536,-0.472801 14.26747,-1.073966 9.51465,-0.730318 14.22588,-1.13318 14.197,-1.213992 -0.0238,-0.06652 -2.22966,-6.47506 -4.90199,-14.241179 -2.67233,-7.766119 -4.88626,-14.120985 -4.91986,-14.121924 -0.0336,-0.0012 -1.60205,2.53766 -3.48542,5.641333 -1.88339,3.103672 -3.48006,5.726203 -3.54816,5.827846 -0.1084,0.161763 -0.36665,0.05344 -2.07168,-0.868902 -1.07133,-0.579532 -2.44422,-1.369523 -3.05086,-1.755541 -1.29291,-0.822682 -8.22801,-4.423595 -11.20918,-5.820159 -10.32508,-4.836871 -23.48754,-9.061714 -33.69149,-10.814174 -2.78357,-0.478072 -8.71873,-1.313252 -11.80169,-1.660726 -2.55552,-0.288031 -2.65709,-0.290471 -11.62981,-0.279208 -8.68666,0.01089 -9.15809,0.02238 -11.68712,0.285028 z M 55.879472,72.250771 c -0.600588,0.281463 -1.507737,1.162202 -1.821016,1.768007 -0.16869,0.326208 -0.184123,8.459506 -0.184123,97.005272 l 0,96.6492 0.242996,0.64948 c 0.280018,0.74841 0.851882,1.43123 1.523403,1.81899 0.257343,0.1486 6.191144,2.18751 13.186223,4.53092 6.995079,2.34339 13.478845,4.5179 14.408378,4.83223 l 1.690047,0.57154 0,34.24928 c 0,20.71701 0.04159,34.2493 0.105182,34.2493 0.05787,0 22.602808,-7.9432 50.099898,-17.65154 l 49.9947,-17.65153 1.43225,0.42421 c 0.78773,0.23331 2.00708,0.64572 2.70965,0.91646 5.10924,1.9689 17.70349,6.29668 42.14823,14.48341 6.74299,2.25829 15.76614,5.31658 20.0514,6.79621 20.73088,7.15799 41.9453,14.28419 46.83394,15.73212 1.19252,0.35321 1.51954,0.40695 2.20421,0.36222 1.25916,-0.0823 2.23685,-0.71609 2.83695,-1.83915 l 0.25859,-0.48391 0.0573,-37.98279 0.0573,-37.98278 13.17665,-4.19472 13.17664,-4.19471 0.0287,-96.44281 0.0287,-96.4428 -0.25787,0.07772 c -0.3329,0.100315 -132.4374,42.19489 -135.9091,43.3069 -2.32602,0.74502 -2.65172,0.82306 -2.86449,0.6863 -0.36853,-0.23685 -5.74257,-2.06286 -37.65028,-12.79291 C 111.96568,89.752432 68.469034,75.324503 60.031199,72.715677 57.332087,71.881172 56.79618,71.821154 55.879443,72.250771 Z m 67.430048,28.868049 62.38854,20.77004 0.0287,92.08857 c 0.0158,50.6487 -0.01,92.08754 -0.0573,92.08629 -0.0473,-9.7e-4 -28.16084,-9.3488 -62.47454,-20.77236 l -62.38855,-20.7701 -0.02869,-92.08844 c -0.0158,-50.64866 0.01,-92.087464 0.05729,-92.086252 0.04731,9.69e-4 28.160843,9.348735 62.47455,20.772252 z m -41.289468,30.56956 c 2.372377,2.41125 4.131582,4.4002 10.478174,11.84658 3.629866,4.25887 4.278179,5.06906 7.655844,9.56739 9.13652,12.16787 21.16443,29.36492 24.04757,34.38229 2.4715,4.30103 14.08079,27.31892 15.71249,31.15333 l 0.357,0.83895 -0.67384,-0.0705 c -1.52317,-0.1592 -5.37898,-1.27609 -13.70973,-3.97125 -5.83872,-1.88893 -6.33609,-2.03461 -12.3173,-3.60778 -5.98916,-1.57527 -7.44972,-2.0436 -7.63044,-2.44678 -0.0472,-0.10542 -0.11567,-0.87856 -0.15207,-1.71809 l -0.0662,-1.52643 -0.40103,-0.33428 c -0.96026,-0.80038 -3.94003,-2.1203 -5.522282,-2.44615 -2.291836,-0.47195 -6.211114,-0.47334 -8.026886,-0.003 -1.476958,0.38272 -3.024489,1.377 -4.38055,2.81448 -0.968543,1.02671 -1.255298,1.6485 -1.546911,3.35424 -0.337147,1.97211 -0.377494,1.83431 0.599647,2.0479 0.456881,0.0999 1.91348,0.3433 3.236871,0.54096 1.323391,0.19766 3.000302,0.48426 3.72646,0.6369 3.466721,0.72868 17.450051,5.01213 24.711551,7.56977 10.03572,3.53478 11.51669,4.02975 14.65617,4.89838 1.44978,0.40114 2.96876,1.09048 6.23231,2.82841 4.19661,2.23481 7.82902,4.02337 9.05178,4.45698 0.59868,0.21231 2.25777,0.84173 3.68689,1.3987 2.67557,1.04275 3.60144,1.32729 3.92056,1.20482 0.15823,-0.0607 0.18395,-0.32579 0.18395,-1.89531 0,-2.87187 -0.15183,-3.99036 -0.71759,-5.28639 -0.70869,-1.62343 -9.86351,-19.93828 -11.02515,-22.05656 -2.7688,-5.04897 -8.10715,-13.93777 -11.72974,-19.53102 -0.38604,-0.59605 -0.66365,-1.1197 -0.61691,-1.16367 0.0467,-0.0439 0.65215,-0.31252 1.34536,-0.59679 2.42826,-0.99577 6.89755,-2.929 9.39552,-4.06409 3.71387,-1.68762 15.39419,-6.61857 23.66067,-9.98858 1.555,-0.63392 2.67417,-1.15681 2.82027,-1.31766 1.02237,-1.12548 2.92181,-9.03679 2.33844,-9.73971 -0.46036,-0.5547 -3.14482,0.23498 -8.36694,2.46124 -3.94571,1.68213 -5.25812,2.34242 -10.65589,5.36118 -6.6947,3.74407 -7.78428,4.47092 -14.20786,9.47807 -4.62978,3.60889 -6.85423,5.29463 -7.69429,5.83094 l -0.30391,0.19403 -2.1314,-3.15446 c -8.70667,-12.88573 -15.40096,-21.61724 -26.75542,-34.89764 -6.179752,-7.22796 -11.540904,-12.51596 -14.102687,-13.91025 -0.748803,-0.40756 -2.834811,-0.7536 -5.041678,-0.83638 l -1.775986,-0.0666 1.735144,1.76358 z m 30.347128,101.00008 c -1.39914,0.31099 -3.10083,1.12633 -4.49909,2.15568 -1.19601,0.88045 -2.55167,2.13569 -3.0943,2.86508 -0.68312,0.91824 -1.73397,3.1298 -2.24671,4.7283 -0.41226,1.28525 -0.65701,2.63299 -0.461,2.53851 0.0569,-0.0274 0.33555,-0.15978 0.61913,-0.29408 1.2868,-0.60935 5.29158,-1.09269 7.07861,-0.85429 1.21482,0.16206 3.50213,0.77453 8.81059,2.35922 9.25035,2.76143 12.42999,3.42197 13.85417,2.87807 1.36188,-0.5201 2.07464,-1.77137 2.28562,-4.01256 0.10445,-1.10953 -0.1,-2.11441 -0.65271,-3.20822 -1.35244,-2.67636 -3.54487,-4.58721 -7.54374,-6.57489 -2.45336,-1.21947 -4.51773,-1.87757 -7.61954,-2.42907 -1.85319,-0.3295 -5.36434,-0.41109 -6.53103,-0.15175 z M 302.39729,131.48072 c 0,0.17076 -32.56894,117.36614 -32.63051,117.41697 -0.16503,0.13621 -17.78656,5.41448 -17.85334,5.3477 -0.0673,-0.0673 -38.80236,-95.07434 -38.9323,-95.49072 -0.0586,-0.18773 0.88964,-0.49837 9.01247,-2.95251 4.99287,-1.50849 9.13116,-2.76005 9.19622,-2.78123 0.065,-0.0212 1.94703,4.37011 4.18215,9.75846 2.23513,5.38834 4.09818,9.798 4.1401,9.79924 0.30568,0.009 37.8588,-11.47891 37.90297,-11.5949 0.0308,-0.081 1.52671,-5.50905 3.32415,-12.06235 l 3.26808,-11.91507 9.10907,-2.77216 c 8.94552,-2.72238 9.28094,-2.82189 9.28094,-2.75343 z m -43.51157,55.0498 c -6.75876,2.05359 -12.28892,3.78966 -12.28926,3.85792 0,0.0683 3.02887,7.45518 6.73155,16.41538 4.60451,11.14251 6.75927,16.23032 6.81793,16.09843 0.0472,-0.10608 2.58917,-9.08709 5.64887,-19.95782 3.05971,-10.87073 5.58973,-19.8552 5.62228,-19.96548 0.0359,-0.12146 0,-0.1969 -0.0918,-0.19137 -0.083,0.005 -5.68084,1.68936 -12.43961,3.74294 z m 37.89718,123.32995 c 0,32.28934 -0.01,33.92636 -0.20102,33.87633 -0.41213,-0.10777 -102.6407,-34.8363 -102.79976,-34.92257 -0.11171,-0.0606 0.0935,-0.16815 0.6302,-0.33029 0.43771,-0.13225 23.61149,-7.50769 51.49727,-16.38988 27.88579,-8.8822 50.74011,-16.15237 50.78737,-16.15596 0.0473,-0.004 0.086,15.26148 0.086,33.92237 z"
       id="path3515"
       inkscape:connector-curvature="0" /></g></svg>