<?xml version="1.0" encoding="UTF-8" standalone="no"?>
<svg
   xmlns:dc="http://purl.org/dc/elements/1.1/"
   xmlns:cc="http://creativecommons.org/ns#"
   xmlns:rdf="http://www.w3.org/1999/02/22-rdf-syntax-ns#"
   xmlns:svg="http://www.w3.org/2000/svg"
   xmlns="http://www.w3.org/2000/svg"
   width="240"
   height="240"
   viewBox="0 0 240 240"
   id="svg2"
   version="1.1">
  <metadata
     id="metadata10">
    <rdf:RDF>
      <cc:Work
         rdf:about="">
        <dc:format>image/svg+xml</dc:format>
        <dc:type
           rdf:resource="http://purl.org/dc/dcmitype/StillImage" />
        <dc:title></dc:title>
      </cc:Work>
    </rdf:RDF>
  </metadata>
  <defs
     id="defs8" />
  <path
     id="path3353"
     d="M 150,50 90,50 120,20 Z" />
  <path
     id="path3351"
     d="m 90,190 60,0 -30,30 z" />
  <path
     d="m 63.53247,134.31064 16.4252,-45.200689 16.4252,45.200689 -32.8504,0 z M 73.09972,70 35,170 l 15.57856,0 7.78926,-21.3787 43.26436,0 L 109.42144,170 125,170 86.98495,70 73.09972,70 Z"
     id="path3347" />
  <path
     id="path4"
     d="m 151.18991,156.11354 53.81009,0 0,13.88646 -75,0 0,-11.26636 52.05157,-74.759839 -51.69986,0 0,-13.973801 72.9777,0 0,11.004369 -52.1395,75.109171 z" />
</svg>
