<?xml version="1.0" encoding="utf-8"?>
<!-- Generator: Adobe Illustrator 19.2.1, SVG Export Plug-In . SVG Version: 6.00 Build 0)  -->
<svg version="1.1" id="Layer_1" xmlns="http://www.w3.org/2000/svg" xmlns:xlink="http://www.w3.org/1999/xlink" x="0px" y="0px"
	 viewBox="0 0 24 24" style="enable-background:new 0 0 24 24;" xml:space="preserve">
<rect x="7.1" y="18.8" width="11.1" height="2.1"/>
<path d="M7.1,18.8l11.1,0.1c-0.1,0-0.2-0.1-0.3-0.1c-2.1-0.8-2.5-2.7-2.5-2.7c3.6-8.2,0.7-9.4-0.9-11.4c-2.7-3.3-1.6-0.2-2.3-0.2
	c-0.9,0.1-1.6,0.3-1.6,0.3L5.7,9l1.2,1.8c0,0,7.9-2.4,4.8-0.4c-3.1,2-1.4,5.6-1.4,5.6S9.4,18,7.1,18.8z M11.4,6.9
	c-0.4,0-0.7-0.3-0.7-0.7c0-0.4,0.3-0.7,0.7-0.7s0.7,0.3,0.7,0.7C12.2,6.5,11.8,6.9,11.4,6.9z"/>
</svg>
