<?xml version="1.0" encoding="utf-8"?>
<!-- Generator: Adobe Illustrator 19.2.1, SVG Export Plug-In . SVG Version: 6.00 Build 0)  -->
<svg version="1.1" id="Layer_1" xmlns="http://www.w3.org/2000/svg" xmlns:xlink="http://www.w3.org/1999/xlink" x="0px" y="0px"
	 viewBox="0 0 24 24" style="enable-background:new 0 0 24 24;" xml:space="preserve">
<style type="text/css">
	.st0{fill:#231F20;}
	.st1{fill:#FFFFFF;}
</style>
<path class="st0" d="M15.2,21.3H8.8c-0.6,0-1-0.5-1-1V9.7c0-0.6,0.4-1,1-1h6.5c0.6,0,1,0.4,1,1v10.6C16.2,20.9,15.8,21.3,15.2,21.3z
	"/>
<path class="st0" d="M10.8,9.6H9.1C9,9.6,8.8,9.4,8.8,9.2V8.2C8.8,8,9,7.8,9.1,7.8h1.6c0.2,0,0.4,0.2,0.4,0.3v1.1
	C11.1,9.4,11,9.6,10.8,9.6z"/>
<path class="st0" d="M10,2H9.9C9.6,2,9.4,2.2,9.4,2.4v5.8c0,0.2,0.2,0.4,0.4,0.4H10c0.2,0,0.4-0.2,0.4-0.4V2.4C10.5,2.2,10.3,2,10,2
	z"/>
<path class="st0" d="M7.1,12.9v-1.6c0-0.2,0.2-0.4,0.3-0.4h0.7c0.2,0,0.4,0.2,0.4,0.4v1.6c0,0.2-0.2,0.3-0.4,0.3H7.4
	C7.3,13.3,7.1,13.1,7.1,12.9z"/>
<path class="st0" d="M7.1,14.9v-0.7c0-0.2,0.2-0.4,0.3-0.4h0.7c0.2,0,0.4,0.2,0.4,0.4v0.7c0,0.2-0.2,0.3-0.4,0.3H7.4
	C7.3,15.2,7.1,15.1,7.1,14.9z"/>
<path class="st0" d="M14.1,9V8.4c0-0.2,0.2-0.4,0.3-0.4h0.7c0.2,0,0.4,0.2,0.4,0.4V9c0,0.2-0.2,0.3-0.4,0.3h-0.7
	C14.2,9.4,14.1,9.2,14.1,9z"/>
<path class="st1" d="M14.5,13.9H9.7c-0.4,0-0.7-0.3-0.7-0.7v-2.6c0-0.4,0.3-0.7,0.7-0.7h4.8c0.4,0,0.7,0.3,0.7,0.7v2.6
	C15.2,13.5,14.9,13.9,14.5,13.9z"/>
</svg>
