<?xml version="1.0" encoding="UTF-8" standalone="no"?>
<!-- Created with Inkscape (http://www.inkscape.org/) -->

<svg
   xmlns:dc="http://purl.org/dc/elements/1.1/"
   xmlns:cc="http://creativecommons.org/ns#"
   xmlns:rdf="http://www.w3.org/1999/02/22-rdf-syntax-ns#"
   xmlns:svg="http://www.w3.org/2000/svg"
   xmlns="http://www.w3.org/2000/svg"
   xmlns:sodipodi="http://sodipodi.sourceforge.net/DTD/sodipodi-0.dtd"
   xmlns:inkscape="http://www.inkscape.org/namespaces/inkscape"
   id="svg3390"
   version="1.1"
   inkscape:version="0.91 r13725"
   xml:space="preserve"
   width="480"
   height="480"
   viewBox="0 0 480 480"
   sodipodi:docname="500px.svg"><metadata
     id="metadata3396"><rdf:RDF><cc:Work
         rdf:about=""><dc:format>image/svg+xml</dc:format><dc:type
           rdf:resource="http://purl.org/dc/dcmitype/StillImage" /><dc:title></dc:title></cc:Work></rdf:RDF></metadata><defs
     id="defs3394"><inkscape:path-effect
       effect="bend_path"
       id="path-effect3560"
       is_visible="true"
       bendpath="m 6.2399998,-23.874916 35.0000002,0"
       prop_scale="1"
       scale_y_rel="false"
       vertical="false" /><clipPath
       clipPathUnits="userSpaceOnUse"
       id="clipPath3404"><path
         d="M 0,48 48,48 48,0 0,0 0,48 Z"
         id="path3406"
         inkscape:connector-curvature="0" /></clipPath><clipPath
       clipPathUnits="userSpaceOnUse"
       id="clipPath3416"><path
         d="M 0,48 48,48 48,0 0,0 0,48 Z"
         id="path3418"
         inkscape:connector-curvature="0" /></clipPath><clipPath
       clipPathUnits="userSpaceOnUse"
       id="clipPath3426"><path
         d="M 0,48 48,48 48,0 0,0 0,48 Z"
         id="path3428"
         inkscape:connector-curvature="0" /></clipPath><clipPath
       clipPathUnits="userSpaceOnUse"
       id="clipPath3434"><path
         d="M 0,48 48,48 48,0 0,0 0,48 Z"
         id="path3436"
         inkscape:connector-curvature="0" /></clipPath><clipPath
       clipPathUnits="userSpaceOnUse"
       id="clipPath3442"><path
         d="m -2.13623e-4,48.0002 48.000013623,0 0,-48.000047412 -48.000013623,0 0,48.000047412 z"
         id="path3444"
         inkscape:connector-curvature="0" /></clipPath><clipPath
       clipPathUnits="userSpaceOnUse"
       id="clipPath3446"><path
         d="m -2.13623e-4,47.9998 48.000013623,0 0,-47.999952588 -48.000013623,0 0,47.999952588 z"
         id="path3448"
         inkscape:connector-curvature="0" /></clipPath><clipPath
       clipPathUnits="userSpaceOnUse"
       id="clipPath3450"><path
         d="M 48,48 0,48 0,0 48,0 48,48 Z"
         id="path3452"
         inkscape:connector-curvature="0" /></clipPath><clipPath
       clipPathUnits="userSpaceOnUse"
       id="clipPath3658"><path
         d="M 0,48 48,48 48,0 0,0 0,48 Z"
         id="path3660"
         inkscape:connector-curvature="0" /></clipPath><clipPath
       clipPathUnits="userSpaceOnUse"
       id="clipPath3668"><path
         d="m -2.28882e-4,48.0001 48.000028882,0 0,-47.99997793 -48.000028882,0 0,47.99997793 z"
         id="path3670"
         inkscape:connector-curvature="0" /></clipPath><clipPath
       clipPathUnits="userSpaceOnUse"
       id="clipPath3676"><path
         d="m -2.28882e-4,48.0001 48.000028882,0 0,-47.99997793 -48.000028882,0 0,47.99997793 z"
         id="path3678"
         inkscape:connector-curvature="0" /></clipPath><clipPath
       clipPathUnits="userSpaceOnUse"
       id="clipPath3680"><path
         d="M 0,0 48,0 48,48 0,48 0,0 Z"
         id="path3682"
         inkscape:connector-curvature="0" /></clipPath></defs><sodipodi:namedview
     pagecolor="#ffffff"
     bordercolor="#666666"
     borderopacity="1"
     objecttolerance="10"
     gridtolerance="10"
     guidetolerance="10"
     inkscape:pageopacity="0"
     inkscape:pageshadow="2"
     inkscape:window-width="1280"
     inkscape:window-height="660"
     id="namedview3392"
     showgrid="false"
     inkscape:zoom="0.98333335"
     inkscape:cx="245.91393"
     inkscape:cy="244.36124"
     inkscape:window-x="-8"
     inkscape:window-y="-8"
     inkscape:window-maximized="1"
     inkscape:current-layer="g3398" /><g
     id="g3398"
     inkscape:groupmode="layer"
     inkscape:label="System_Icon_StickerSheet"
     transform="matrix(1.25,0,0,-1.25,0,480)"><g
       id="g3412"><g
         id="g3414"
         clip-path="url(#clipPath3416)"><g
           id="g3420"
           transform="matrix(1,0,0,-1,0,48)"><g
             id="g3422"><g
               id="g3424"
               clip-path="url(#clipPath3426)" /></g></g></g></g><path
       id="path3518"
       d="m 243.10071,150.64951 c -3.37274,-3.56471 -6.3551,-7.06532 -9.69585,-10.18766 -4.86392,-4.53925 -9.69585,-9.20031 -15.05256,-13.10484 -13.47819,-9.82862 -28.72275,-12.48934 -44.8633,-9.12337 -15.78856,3.28904 -26.46999,13.29077 -33.61228,27.43424 -0.33279,0.66678 -0.65919,1.33998 -1.01118,2.00035 -0.064,0.12823 -0.2432,0.19234 -0.3008,0.2308 -2.06077,-3.2185 -3.97434,-6.55241 -6.2015,-9.65551 -10.52784,-14.63074 -24.95961,-21.79865 -42.853736,-22.21539 -10.182241,-0.24364 -20.095687,1.06428 -29.53554,5.08421 C 40.678265,129.3253 32.467193,145.80893 32,162.95293 c 9.945445,0 19.89729,0 30.092331,0 0.223997,-1.00017 0.454393,-2.11576 0.723189,-3.21851 2.188766,-8.84127 6.822293,-15.66297 16.05095,-18.048 9.913445,-2.55813 18.879705,-0.62831 26.04759,7.11662 9.08146,9.80298 10.32944,26.78669 2.91836,37.92324 -7.75028,11.64945 -25.356407,14.68844 -36.780229,6.28954 -1.599975,-1.17327 -3.321548,-2.40426 -4.428731,-4.00068 -2.175966,-3.14158 -4.998322,-3.69937 -8.563066,-3.57114 -6.969491,0.25646 -13.958183,0.0802 -21.465266,0.0802 4.921524,27.65222 9.785448,55.00311 14.668572,82.47583 27.839566,0 55.43594,0 83.20511,0 0,-8.14886 0,-16.26565 0,-24.69659 -1.05599,0 -2.02237,0 -2.99516,0 -18.56611,0 -37.132221,-0.0401 -55.691932,0.0481 -2.105567,0.016 -2.815956,-0.58343 -3.161551,-2.67354 -1.638374,-9.86068 -3.481546,-19.68931 -5.241518,-29.53076 -0.0768,-0.40391 -0.0768,-0.81424 0.0832,-1.68618 11.219026,10.3223 24.492419,12.65603 38.764201,10.1556 14.82216,-2.59019 24.74841,-11.8418 31.7179,-25.01715 0.79999,1.6413 1.45918,3.04539 2.15677,4.42384 10.05424,20.00988 29.23474,29.93467 51.372,26.96621 13.47819,-1.80159 24.92761,-7.57823 34.61066,-16.89396 5.87511,-5.64841 11.33422,-11.7392 17.20293,-17.85565 0.46719,0.49367 1.06878,1.1284 1.66397,1.75671 5.91351,6.21262 11.58382,12.68169 17.79813,18.56732 8.08307,7.65518 17.65092,12.7971 28.82515,14.35505 20.31968,2.82742 44.32571,-3.93658 54.60395,-27.31883 8.15987,-18.56091 7.78867,-37.45521 -1.40158,-55.58014 -8.44787,-16.65674 -22.74525,-24.89534 -41.25376,-25.91475 -14.41257,-0.80142 -27.42357,3.26979 -38.553,12.36111 -6.4255,5.25092 -12.13421,11.37377 -18.14372,17.13759 -1.13278,1.09635 -2.14396,2.32092 -3.73114,4.04557 z m -57.22151,-3.77629 c 6.3999,0.0801 12.26861,1.94905 17.79813,5.09062 7.99987,4.55207 14.16938,11.27119 20.71007,17.54151 0.93439,0.89758 1.08159,1.68618 0,2.69918 -5.11992,4.77005 -10.05424,9.73246 -15.28936,14.36146 -4.51833,3.99428 -9.66385,7.08456 -15.48776,8.86693 -13.97738,4.2892 -26.50838,-2.44274 -30.14353,-16.24 -0.53119,-2.00035 -0.80638,-4.09045 -0.95358,-6.16133 -1.11998,-15.38728 8.72306,-26.38277 23.37243,-26.15196 z m 74.18765,24.36319 c 6.4959,-5.96898 11.93581,-11.36094 17.79812,-16.25282 6.5855,-5.49453 14.31658,-8.3476 23.00764,-8.17449 11.44942,0.23723 19.4557,6.5973 21.75326,17.83001 0.74879,3.67372 0.83839,7.64236 0.3776,11.37377 -1.69598,13.66263 -12.16621,21.92047 -25.766,20.6959 -8.06388,-0.72449 -14.70057,-4.52643 -20.54368,-9.85427 -5.47832,-4.98163 -10.80303,-10.13637 -16.62694,-15.62451 z"
       inkscape:connector-curvature="0"
       style="fill:#000000" /></g></svg>