<?xml version="1.0" encoding="UTF-8" standalone="no"?>
<svg
   xmlns:dc="http://purl.org/dc/elements/1.1/"
   xmlns:cc="http://creativecommons.org/ns#"
   xmlns:rdf="http://www.w3.org/1999/02/22-rdf-syntax-ns#"
   xmlns:svg="http://www.w3.org/2000/svg"
   xmlns="http://www.w3.org/2000/svg"
   viewBox="0 0 480 480"
   height="480"
   width="480"
   xml:space="preserve"
   version="1.1"
   id="svg3390"><metadata
     id="metadata3396"><rdf:RDF><cc:Work
         rdf:about=""><dc:format>image/svg+xml</dc:format><dc:type
           rdf:resource="http://purl.org/dc/dcmitype/StillImage" /><dc:title></dc:title></cc:Work></rdf:RDF></metadata><defs
     id="defs3394"><clipPath
       id="clipPath3404"
       clipPathUnits="userSpaceOnUse"><path
         id="path3406"
         d="M 0,48 48,48 48,0 0,0 0,48 Z" /></clipPath><clipPath
       id="clipPath3416"
       clipPathUnits="userSpaceOnUse"><path
         id="path3418"
         d="M 0,48 48,48 48,0 0,0 0,48 Z" /></clipPath><clipPath
       id="clipPath3426"
       clipPathUnits="userSpaceOnUse"><path
         id="path3428"
         d="M 0,48 48,48 48,0 0,0 0,48 Z" /></clipPath><clipPath
       id="clipPath3434"
       clipPathUnits="userSpaceOnUse"><path
         id="path3436"
         d="M 0,48 48,48 48,0 0,0 0,48 Z" /></clipPath><clipPath
       id="clipPath3442"
       clipPathUnits="userSpaceOnUse"><path
         id="path3444"
         d="m -2.13623e-4,48.0002 48.000013623,0 0,-48.000047412 -48.000013623,0 0,48.000047412 z" /></clipPath><clipPath
       id="clipPath3446"
       clipPathUnits="userSpaceOnUse"><path
         id="path3448"
         d="m -2.13623e-4,47.9998 48.000013623,0 0,-47.999952588 -48.000013623,0 0,47.999952588 z" /></clipPath><clipPath
       id="clipPath3450"
       clipPathUnits="userSpaceOnUse"><path
         id="path3452"
         d="M 48,48 0,48 0,0 48,0 48,48 Z" /></clipPath><clipPath
       id="clipPath3658"
       clipPathUnits="userSpaceOnUse"><path
         id="path3660"
         d="M 0,48 48,48 48,0 0,0 0,48 Z" /></clipPath><clipPath
       id="clipPath3668"
       clipPathUnits="userSpaceOnUse"><path
         id="path3670"
         d="m -2.28882e-4,48.0001 48.000028882,0 0,-47.99997793 -48.000028882,0 0,47.99997793 z" /></clipPath><clipPath
       id="clipPath3676"
       clipPathUnits="userSpaceOnUse"><path
         id="path3678"
         d="m -2.28882e-4,48.0001 48.000028882,0 0,-47.99997793 -48.000028882,0 0,47.99997793 z" /></clipPath><clipPath
       id="clipPath3680"
       clipPathUnits="userSpaceOnUse"><path
         id="path3682"
         d="M 0,0 48,0 48,48 0,48 0,0 Z" /></clipPath></defs><g
     transform="matrix(1.25,0,0,-1.25,0,480)"
     id="g3398"><g
       id="g3412"><g
         clip-path="url(#clipPath3416)"
         id="g3414"><g
           transform="matrix(1,0,0,-1,0,48)"
           id="g3420"><g
             id="g3422"><g
               clip-path="url(#clipPath3426)"
               id="g3424" /></g></g></g></g><path
       style="fill:#000000"
       d="m 321.03315,244.2368 c -22.53228,-6.9888 -37.27546,-38.6688 -37.27546,-61.696 0,-29.6128 16.79563,-61.28 44.24231,-68.6912 -7.78272,-26.3232 -28.67687,-59.2256 -47.92652,-73.216 -8.19066,-5.76 -18.01945,-8.224 -29.49274,-8.224 -7.78272,0 -16.3877,1.6448 -27.85462,6.1696 -9.42723,4.5248 -18.02582,6.5856 -23.7561,6.5856 -4.91439,0 -15.56544,-3.2896 -29.90706,-9.0496 C 160.86593,33.6448 154.3134,32 149.80695,32 c -13.10506,0 -24.57835,5.344 -36.45321,15.2192 -36.459593,33.728 -57.353742,83.0848 -57.353742,134.496 0,51.0016 32.361072,99.9488 81.109832,99.9488 14.74319,0 25.80217,-3.2896 35.63733,-8.224 9.42085,-5.76 17.20357,-7.8144 25.80855,-7.8144 6.96684,0 15.1575,1.2352 22.94022,4.5248 18.8417,7.3984 31.53882,11.52 38.9136,11.52 18.8417,0 33.59126,-6.1696 45.88044,-17.28 4.91439,-4.9344 10.23673,-11.52 14.74318,-20.16 z m -130.67448,35.3728 c 0,17.6832 6.96047,32.9024 18.84171,47.712 12.29555,13.5744 28.26893,21.7984 45.88044,24.6784 0,-18.0928 -6.15096,-36.1984 -18.43377,-50.592 -13.51936,-14.8032 -28.26893,-21.7984 -46.28838,-21.7984 z"
       id="path3570" /></g></svg>