<?xml version="1.0" encoding="UTF-8" standalone="no"?>
<!-- Created with Inkscape (http://www.inkscape.org/) -->

<svg
   xmlns:dc="http://purl.org/dc/elements/1.1/"
   xmlns:cc="http://creativecommons.org/ns#"
   xmlns:rdf="http://www.w3.org/1999/02/22-rdf-syntax-ns#"
   xmlns:svg="http://www.w3.org/2000/svg"
   xmlns="http://www.w3.org/2000/svg"
   xmlns:sodipodi="http://sodipodi.sourceforge.net/DTD/sodipodi-0.dtd"
   xmlns:inkscape="http://www.inkscape.org/namespaces/inkscape"
   id="svg3390"
   version="1.1"
   inkscape:version="0.91 r13725"
   xml:space="preserve"
   width="480"
   height="480"
   viewBox="0 0 480 480"
   sodipodi:docname="flattr.svg"><metadata
     id="metadata3396"><rdf:RDF><cc:Work
         rdf:about=""><dc:format>image/svg+xml</dc:format><dc:type
           rdf:resource="http://purl.org/dc/dcmitype/StillImage" /><dc:title></dc:title></cc:Work></rdf:RDF></metadata><defs
     id="defs3394"><inkscape:path-effect
       effect="bend_path"
       id="path-effect3560"
       is_visible="true"
       bendpath="m 6.2399998,-23.874916 35.0000002,0"
       prop_scale="1"
       scale_y_rel="false"
       vertical="false" /><clipPath
       clipPathUnits="userSpaceOnUse"
       id="clipPath3404"><path
         d="M 0,48 48,48 48,0 0,0 0,48 Z"
         id="path3406"
         inkscape:connector-curvature="0" /></clipPath><clipPath
       clipPathUnits="userSpaceOnUse"
       id="clipPath3416"><path
         d="M 0,48 48,48 48,0 0,0 0,48 Z"
         id="path3418"
         inkscape:connector-curvature="0" /></clipPath><clipPath
       clipPathUnits="userSpaceOnUse"
       id="clipPath3426"><path
         d="M 0,48 48,48 48,0 0,0 0,48 Z"
         id="path3428"
         inkscape:connector-curvature="0" /></clipPath><clipPath
       clipPathUnits="userSpaceOnUse"
       id="clipPath3434"><path
         d="M 0,48 48,48 48,0 0,0 0,48 Z"
         id="path3436"
         inkscape:connector-curvature="0" /></clipPath><clipPath
       clipPathUnits="userSpaceOnUse"
       id="clipPath3442"><path
         d="m -2.13623e-4,48.0002 48.000013623,0 0,-48.000047412 -48.000013623,0 0,48.000047412 z"
         id="path3444"
         inkscape:connector-curvature="0" /></clipPath><clipPath
       clipPathUnits="userSpaceOnUse"
       id="clipPath3446"><path
         d="m -2.13623e-4,47.9998 48.000013623,0 0,-47.999952588 -48.000013623,0 0,47.999952588 z"
         id="path3448"
         inkscape:connector-curvature="0" /></clipPath><clipPath
       clipPathUnits="userSpaceOnUse"
       id="clipPath3450"><path
         d="M 48,48 0,48 0,0 48,0 48,48 Z"
         id="path3452"
         inkscape:connector-curvature="0" /></clipPath><clipPath
       clipPathUnits="userSpaceOnUse"
       id="clipPath3658"><path
         d="M 0,48 48,48 48,0 0,0 0,48 Z"
         id="path3660"
         inkscape:connector-curvature="0" /></clipPath><clipPath
       clipPathUnits="userSpaceOnUse"
       id="clipPath3668"><path
         d="m -2.28882e-4,48.0001 48.000028882,0 0,-47.99997793 -48.000028882,0 0,47.99997793 z"
         id="path3670"
         inkscape:connector-curvature="0" /></clipPath><clipPath
       clipPathUnits="userSpaceOnUse"
       id="clipPath3676"><path
         d="m -2.28882e-4,48.0001 48.000028882,0 0,-47.99997793 -48.000028882,0 0,47.99997793 z"
         id="path3678"
         inkscape:connector-curvature="0" /></clipPath><clipPath
       clipPathUnits="userSpaceOnUse"
       id="clipPath3680"><path
         d="M 0,0 48,0 48,48 0,48 0,0 Z"
         id="path3682"
         inkscape:connector-curvature="0" /></clipPath></defs><sodipodi:namedview
     pagecolor="#ffffff"
     bordercolor="#666666"
     borderopacity="1"
     objecttolerance="10"
     gridtolerance="10"
     guidetolerance="10"
     inkscape:pageopacity="0"
     inkscape:pageshadow="2"
     inkscape:window-width="1280"
     inkscape:window-height="660"
     id="namedview3392"
     showgrid="false"
     inkscape:zoom="0.98333335"
     inkscape:cx="250.26089"
     inkscape:cy="253.16188"
     inkscape:window-x="-8"
     inkscape:window-y="-8"
     inkscape:window-maximized="1"
     inkscape:current-layer="g3398" /><g
     id="g3398"
     inkscape:groupmode="layer"
     inkscape:label="System_Icon_StickerSheet"
     transform="matrix(1.25,0,0,-1.25,0,480)"><g
       id="g3412"><g
         id="g3414"
         clip-path="url(#clipPath3416)"><g
           id="g3420"
           transform="matrix(1,0,0,-1,0,48)"><g
             id="g3422"><g
               id="g3424"
               clip-path="url(#clipPath3426)" /></g></g></g></g><path
       style="fill:#000000"
       d=""
       id="path3762"
       inkscape:connector-curvature="0" /><path
       style="fill:#000000"
       d=""
       id="path3760"
       inkscape:connector-curvature="0" /><path
       style="fill:#000000"
       d=""
       id="path3758"
       inkscape:connector-curvature="0" /><path
       id="path3865"
       d="m 351.8592,157.01799 c -0.0256,-20.86297 -2.4961,-41.40597 -9.9588,-61.078596 -12.76851,-33.66235 -37.28149,-53.46298 -72.22049,-60.82262 -10.63723,-2.23989 -21.41526,-3.12305 -32.27649,-3.11665 -59.92559,0.024 -119.8384,0.016 -179.757586,0.016 -0.800032,0 -1.600064,0 -2.400096,0 -0.07681,0 -0.147207,0.44158 -0.224009,0.66557 11.334853,11.28264 22.708108,22.54609 34.017361,33.86074 31.05404,31.05768 62.07608,62.140946 93.11092,93.211426 0.35201,0.35198 0.70403,0.71037 1.05605,1.06235 1.62566,1.61912 3.39853,2.77106 5.79222,1.70871 2.3809,-1.06234 3.02733,-3.05905 3.02733,-5.52292 -0.0384,-15.91602 -0.0192,-31.82565 -0.0192,-47.74167 0,-0.99835 0,-1.9967 0,-3.10384 0,-0.1344 0.99844,-0.35839 1.45286,-0.34559 13.57494,0.23039 27.15628,0.21759 40.70562,0.87676 4.9858,0.24319 10.0548,1.61912 14.8038,3.26384 14.92539,5.18375 22.81051,16.61359 25.74822,31.48006 1.60647,8.1212 2.43851,16.50479 2.5217,24.78598 0.29442,28.5746 0.14721,57.162 0.0832,85.743 -0.006,1.91351 0.60162,3.22544 1.93287,4.55658 23.34814,23.32046 46.68348,46.69211 69.9612,70.07657 0.67843,0.67836 1.10725,1.67671 1.61287,2.52147 0.34561,-0.23679 1.17125,-0.47997 1.17125,-0.71676 0,-0.87676 0,-1.75992 0,-2.63667 0,-56.24045 -0.096,-112.49369 -0.15361,-168.74054 z M 106.62699,132.05922 c -0.0512,27.99863 -0.21761,55.99725 0.0768,83.98948 0.0896,8.61398 0.80003,17.34315 2.39369,25.80354 3.02732,16.10801 11.73166,27.94743 28.05232,32.95838 3.25134,0.99835 6.62427,2.0543 9.9716,2.1759 14.72058,0.54397 29.49878,0.74876 44.22577,1.07514 0.1344,0 0.66563,-0.14719 0.66563,-0.35198 0,-0.78076 0,-1.67672 0,-2.57907 0,-15.66643 -0.0448,-31.33287 -0.0384,-46.9993 0,-0.83836 -0.29442,-1.82391 0.064,-2.46388 0.84483,-1.50393 1.73447,-3.16144 3.06572,-4.1598 1.56166,-1.16474 3.36013,-0.37118 4.78739,0.85116 0.76163,0.65277 1.44646,1.37594 2.15688,2.0799 41.69767,41.74516 83.38894,83.49031 125.07381,125.22267 0.58242,0.58877 1.13924,2.33588 2.21449,2.33588 -1.46566,0 -2.26569,0 -3.06572,0 -59.91281,0 -119.832,0.006 -179.74479,0 -10.60523,0 -21.13365,-0.88316 -31.53406,-3.01425 -36.19985,-7.43644 -61.160849,-28.03703 -73.705351,-63.10091 -6.905876,-19.30785 -9.158766,-39.35167 -9.158766,-59.71547 0,-55.99726 -0.128005,-111.98172 -0.128005,-167.978966 0,-0.87676 0,-1.74712 0,-3.16785 1.280051,0.95356 1.747269,1.47833 2.316892,2.0479 23.424938,23.48045 46.901077,46.967296 70.36442,70.409346 1.34405,1.34394 1.94567,2.68147 1.94567,4.57578 z"
       inkscape:connector-curvature="0"
       style="fill:#000000" /></g></svg>