<?xml version="1.0" encoding="UTF-8" standalone="no"?>
<svg
   xmlns:dc="http://purl.org/dc/elements/1.1/"
   xmlns:cc="http://creativecommons.org/ns#"
   xmlns:rdf="http://www.w3.org/1999/02/22-rdf-syntax-ns#"
   xmlns:svg="http://www.w3.org/2000/svg"
   xmlns="http://www.w3.org/2000/svg"
   viewBox="0 0 480 480"
   height="480"
   width="480"
   xml:space="preserve"
   version="1.1"
   id="svg3390"><metadata
     id="metadata3396"><rdf:RDF><cc:Work
         rdf:about=""><dc:format>image/svg+xml</dc:format><dc:type
           rdf:resource="http://purl.org/dc/dcmitype/StillImage" /><dc:title></dc:title></cc:Work></rdf:RDF></metadata><defs
     id="defs3394"><clipPath
       id="clipPath3404"
       clipPathUnits="userSpaceOnUse"><path
         id="path3406"
         d="M 0,48 48,48 48,0 0,0 0,48 Z" /></clipPath><clipPath
       id="clipPath3416"
       clipPathUnits="userSpaceOnUse"><path
         id="path3418"
         d="M 0,48 48,48 48,0 0,0 0,48 Z" /></clipPath><clipPath
       id="clipPath3426"
       clipPathUnits="userSpaceOnUse"><path
         id="path3428"
         d="M 0,48 48,48 48,0 0,0 0,48 Z" /></clipPath><clipPath
       id="clipPath3434"
       clipPathUnits="userSpaceOnUse"><path
         id="path3436"
         d="M 0,48 48,48 48,0 0,0 0,48 Z" /></clipPath><clipPath
       id="clipPath3442"
       clipPathUnits="userSpaceOnUse"><path
         id="path3444"
         d="m -2.13623e-4,48.0002 48.000013623,0 0,-48.000047412 -48.000013623,0 0,48.000047412 z" /></clipPath><clipPath
       id="clipPath3446"
       clipPathUnits="userSpaceOnUse"><path
         id="path3448"
         d="m -2.13623e-4,47.9998 48.000013623,0 0,-47.999952588 -48.000013623,0 0,47.999952588 z" /></clipPath><clipPath
       id="clipPath3450"
       clipPathUnits="userSpaceOnUse"><path
         id="path3452"
         d="M 48,48 0,48 0,0 48,0 48,48 Z" /></clipPath><clipPath
       id="clipPath3658"
       clipPathUnits="userSpaceOnUse"><path
         id="path3660"
         d="M 0,48 48,48 48,0 0,0 0,48 Z" /></clipPath><clipPath
       id="clipPath3668"
       clipPathUnits="userSpaceOnUse"><path
         id="path3670"
         d="m -2.28882e-4,48.0001 48.000028882,0 0,-47.99997793 -48.000028882,0 0,47.99997793 z" /></clipPath><clipPath
       id="clipPath3676"
       clipPathUnits="userSpaceOnUse"><path
         id="path3678"
         d="m -2.28882e-4,48.0001 48.000028882,0 0,-47.99997793 -48.000028882,0 0,47.99997793 z" /></clipPath><clipPath
       id="clipPath3680"
       clipPathUnits="userSpaceOnUse"><path
         id="path3682"
         d="M 0,0 48,0 48,48 0,48 0,0 Z" /></clipPath></defs><g
     transform="matrix(1.25,0,0,-1.25,0,480)"
     id="g3398"><g
       id="g3412"><g
         clip-path="url(#clipPath3416)"
         id="g3414"><g
           transform="matrix(1,0,0,-1,0,48)"
           id="g3420"><g
             id="g3422"><g
               clip-path="url(#clipPath3426)"
               id="g3424" /></g></g></g></g><path
       id="path3762"
       d=""
       style="fill:#000000" /><path
       id="path3760"
       d=""
       style="fill:#000000" /><path
       id="path3758"
       d=""
       style="fill:#000000" /><path
       d="M 63.999998,352 320,352 c 17.6,0 32,-14.4 32,-32 L 352,64 C 352,46.4 337.6,32 320,32 l -82.4,0 C 232,33.28 232,44.16 232,48 l 0,43.84 c 0,14.88 -5.28,24.64 -11.04,29.6 35.68,4 73.12,17.44 73.12,78.56 0,17.76 -6.08,32 -16.48,43.36 1.6,4 7.2,20.64 -1.6,42.24 0,0 -13.44,4.32 -44,-16.32 -12.64,3.52 -26.4,5.28 -40,5.28 -13.6,0 -27.36,-1.76 -40,-5.28 -30.56,20.64 -44,16.32 -44,16.32 C 99.199999,264 104.8,247.36 106.4,243.36 95.999999,232 89.919999,217.76 89.919999,200 c 0,-60.96 37.280001,-74.72 72.800001,-78.72 -4.48,-4 -8.64,-11.04 -10.08,-21.44 C 143.52,96 120,88.8 106.08,113.12 c 0,0 -8.480001,15.36 -24.480001,16.48 0,0 -15.68,0.32 -1.6,-9.6 0,0 10.88,-4.96 18.24,-23.52 0,0 9.440001,-31.04 53.760001,-21.44 L 152,48 c 0,-3.84 0,-14.72 -5.76,-16 l -82.240001,0 c -17.6,0 -32,14.4 -32,32 l 0,256 c 0,17.6 14.4,32 32,32 z"
       id="path3942" /></g></svg>