<?xml version="1.0" encoding="UTF-8" standalone="no"?>
<!-- Created with Inkscape (http://www.inkscape.org/) -->

<svg
   xmlns:dc="http://purl.org/dc/elements/1.1/"
   xmlns:cc="http://creativecommons.org/ns#"
   xmlns:rdf="http://www.w3.org/1999/02/22-rdf-syntax-ns#"
   xmlns:svg="http://www.w3.org/2000/svg"
   xmlns="http://www.w3.org/2000/svg"
   xmlns:sodipodi="http://sodipodi.sourceforge.net/DTD/sodipodi-0.dtd"
   xmlns:inkscape="http://www.inkscape.org/namespaces/inkscape"
   id="svg3390"
   version="1.1"
   inkscape:version="0.91 r13725"
   xml:space="preserve"
   width="480"
   height="480"
   viewBox="0 0 480 480"
   sodipodi:docname="pocket-new.svg"><metadata
     id="metadata3396"><rdf:RDF><cc:Work
         rdf:about=""><dc:format>image/svg+xml</dc:format><dc:type
           rdf:resource="http://purl.org/dc/dcmitype/StillImage" /><dc:title></dc:title></cc:Work></rdf:RDF></metadata><defs
     id="defs3394"><inkscape:path-effect
       effect="bend_path"
       id="path-effect3560"
       is_visible="true"
       bendpath="m 6.2399998,-23.874916 35.0000002,0"
       prop_scale="1"
       scale_y_rel="false"
       vertical="false" /><clipPath
       clipPathUnits="userSpaceOnUse"
       id="clipPath3404"><path
         d="M 0,48 48,48 48,0 0,0 0,48 Z"
         id="path3406"
         inkscape:connector-curvature="0" /></clipPath><clipPath
       clipPathUnits="userSpaceOnUse"
       id="clipPath3416"><path
         d="M 0,48 48,48 48,0 0,0 0,48 Z"
         id="path3418"
         inkscape:connector-curvature="0" /></clipPath><clipPath
       clipPathUnits="userSpaceOnUse"
       id="clipPath3426"><path
         d="M 0,48 48,48 48,0 0,0 0,48 Z"
         id="path3428"
         inkscape:connector-curvature="0" /></clipPath><clipPath
       clipPathUnits="userSpaceOnUse"
       id="clipPath3434"><path
         d="M 0,48 48,48 48,0 0,0 0,48 Z"
         id="path3436"
         inkscape:connector-curvature="0" /></clipPath><clipPath
       clipPathUnits="userSpaceOnUse"
       id="clipPath3442"><path
         d="m -2.13623e-4,48.0002 48.000013623,0 0,-48.000047412 -48.000013623,0 0,48.000047412 z"
         id="path3444"
         inkscape:connector-curvature="0" /></clipPath><clipPath
       clipPathUnits="userSpaceOnUse"
       id="clipPath3446"><path
         d="m -2.13623e-4,47.9998 48.000013623,0 0,-47.999952588 -48.000013623,0 0,47.999952588 z"
         id="path3448"
         inkscape:connector-curvature="0" /></clipPath><clipPath
       clipPathUnits="userSpaceOnUse"
       id="clipPath3450"><path
         d="M 48,48 0,48 0,0 48,0 48,48 Z"
         id="path3452"
         inkscape:connector-curvature="0" /></clipPath><clipPath
       clipPathUnits="userSpaceOnUse"
       id="clipPath3658"><path
         d="M 0,48 48,48 48,0 0,0 0,48 Z"
         id="path3660"
         inkscape:connector-curvature="0" /></clipPath><clipPath
       clipPathUnits="userSpaceOnUse"
       id="clipPath3668"><path
         d="m -2.28882e-4,48.0001 48.000028882,0 0,-47.99997793 -48.000028882,0 0,47.99997793 z"
         id="path3670"
         inkscape:connector-curvature="0" /></clipPath><clipPath
       clipPathUnits="userSpaceOnUse"
       id="clipPath3676"><path
         d="m -2.28882e-4,48.0001 48.000028882,0 0,-47.99997793 -48.000028882,0 0,47.99997793 z"
         id="path3678"
         inkscape:connector-curvature="0" /></clipPath><clipPath
       clipPathUnits="userSpaceOnUse"
       id="clipPath3680"><path
         d="M 0,0 48,0 48,48 0,48 0,0 Z"
         id="path3682"
         inkscape:connector-curvature="0" /></clipPath></defs><sodipodi:namedview
     pagecolor="#ffffff"
     bordercolor="#666666"
     borderopacity="1"
     objecttolerance="10"
     gridtolerance="10"
     guidetolerance="10"
     inkscape:pageopacity="0"
     inkscape:pageshadow="2"
     inkscape:window-width="1280"
     inkscape:window-height="660"
     id="namedview3392"
     showgrid="false"
     inkscape:zoom="0.98333335"
     inkscape:cx="250.26089"
     inkscape:cy="253.16188"
     inkscape:window-x="-8"
     inkscape:window-y="-8"
     inkscape:window-maximized="1"
     inkscape:current-layer="g3398" /><g
     id="g3398"
     inkscape:groupmode="layer"
     inkscape:label="System_Icon_StickerSheet"
     transform="matrix(1.25,0,0,-1.25,0,480)"><g
       id="g3412"><g
         id="g3414"
         clip-path="url(#clipPath3416)"><g
           id="g3420"
           transform="matrix(1,0,0,-1,0,48)"><g
             id="g3422"><g
               id="g3424"
               clip-path="url(#clipPath3426)" /></g></g></g></g><path
       style="fill:#000000"
       d=""
       id="path3762"
       inkscape:connector-curvature="0" /><path
       style="fill:#000000"
       d=""
       id="path3760"
       inkscape:connector-curvature="0" /><path
       style="fill:#000000"
       d=""
       id="path3758"
       inkscape:connector-curvature="0" /><path
       id="path4238"
       d="m 351.99453,297.1087 c -0.006,8.50045 0.37758,16.76959 -4.30697,24.24201 -3.7118,5.91754 -9.84907,10.49223 -16.55591,12.39407 -8.24276,2.32589 -17.70785,1.68981 -26.1874,1.68981 C 267.32706,335.41849 229.70987,336 192.08629,336 c -4.14058,0 -8.28116,0 -12.42814,0 -5.17732,0 -10.35464,0 -15.53195,0 -18.6358,0 -37.27801,0 -55.91381,0 -9.317899,0 -18.6358,0 -27.953702,0 -5.081328,0 -10.162656,0 -15.250384,0 -3.961388,0 -7.807582,-0.52043 -11.660176,-1.61271 -13.304889,-3.77154 -21.310859,-16.20417 -21.330059,-29.75476 -0.024,-18.81921 0.04,-37.78619 0.032,-56.60538 -0.006,-18.55577 -0.35838,-37.18864 0.89595,-55.71229 1.17114,-17.23861 5.88129,-34.48366 13.0233,-50.1674 12.933712,-28.43119 34.385364,-52.364793 60.566361,-69.147223 28.51688,-18.27307 62.88302,-26.99839 96.63481,-24.61467 33.16303,2.34517 65.35331,15.43316 90.92634,36.7196 23.87072,19.866503 41.89856,46.003923 50.99887,75.835793 5.17092,16.93664 6.86683,34.58647 6.87963,52.24915 0.0128,18.64571 0.0256,37.29144 0.0128,55.93716 -0.006,9.32929 -0.0128,18.64572 -0.0256,27.975 z m -63.427,-72.85452 c -2.45107,-8.18562 -10.25866,-13.74978 -16.14634,-19.42317 -14.29044,-13.77548 -28.60007,-27.52524 -42.90331,-41.28787 -7.3148,-7.04194 -14.49522,-14.26379 -21.96362,-21.15152 -5.6189,-5.17866 -13.1321,-7.48527 -20.6389,-5.65412 -8.57554,2.08817 -14.68081,10.13243 -20.77327,15.99858 -6.95643,6.7014 -13.91285,13.40281 -20.86928,20.10422 -14.41203,13.87185 -29.14404,27.48027 -43.26169,41.64768 -10.853815,10.89702 -8.51794,30.01178 6.16287,36.3341 6.80284,2.92985 14.81521,2.3259 20.93968,-1.88899 3.827,-2.6343 7.03963,-6.30304 10.37385,-9.50918 3.61581,-3.46958 7.22521,-6.93914 10.82822,-10.41514 13.95125,-13.43494 27.61451,-27.2554 41.91134,-40.31768 16.22313,15.45886 32.30547,31.07834 48.43901,46.63359 6.73244,6.48937 13.40088,15.28537 23.10276,16.98803 7.62839,1.33643 15.60237,-1.61913 20.5685,-7.57523 4.61415,-5.52561 6.29087,-13.55701 4.21098,-20.4833 z"
       inkscape:connector-curvature="0"
       style="fill:#000000" /></g><style
     id="style3999"
     type="text/css">
	.st0{fill:#FFFFFF;}
</style><style
     id="style4048"
     type="text/css">
	.st0{fill:#FFFFFF;}
</style></svg>