<?xml version="1.0" encoding="UTF-8" standalone="no"?>
<svg
   xmlns:dc="http://purl.org/dc/elements/1.1/"
   xmlns:cc="http://creativecommons.org/ns#"
   xmlns:rdf="http://www.w3.org/1999/02/22-rdf-syntax-ns#"
   xmlns:svg="http://www.w3.org/2000/svg"
   xmlns="http://www.w3.org/2000/svg"
   viewBox="0 0 480 480"
   height="480"
   width="480"
   xml:space="preserve"
   version="1.1"
   id="svg3390"><metadata
     id="metadata3396"><rdf:RDF><cc:Work
         rdf:about=""><dc:format>image/svg+xml</dc:format><dc:type
           rdf:resource="http://purl.org/dc/dcmitype/StillImage" /><dc:title></dc:title></cc:Work></rdf:RDF></metadata><defs
     id="defs3394"><clipPath
       id="clipPath3404"
       clipPathUnits="userSpaceOnUse"><path
         id="path3406"
         d="M 0,48 48,48 48,0 0,0 0,48 Z" /></clipPath><clipPath
       id="clipPath3416"
       clipPathUnits="userSpaceOnUse"><path
         id="path3418"
         d="M 0,48 48,48 48,0 0,0 0,48 Z" /></clipPath><clipPath
       id="clipPath3426"
       clipPathUnits="userSpaceOnUse"><path
         id="path3428"
         d="M 0,48 48,48 48,0 0,0 0,48 Z" /></clipPath><clipPath
       id="clipPath3434"
       clipPathUnits="userSpaceOnUse"><path
         id="path3436"
         d="M 0,48 48,48 48,0 0,0 0,48 Z" /></clipPath><clipPath
       id="clipPath3442"
       clipPathUnits="userSpaceOnUse"><path
         id="path3444"
         d="m -2.13623e-4,48.0002 48.000013623,0 0,-48.000047412 -48.000013623,0 0,48.000047412 z" /></clipPath><clipPath
       id="clipPath3446"
       clipPathUnits="userSpaceOnUse"><path
         id="path3448"
         d="m -2.13623e-4,47.9998 48.000013623,0 0,-47.999952588 -48.000013623,0 0,47.999952588 z" /></clipPath><clipPath
       id="clipPath3450"
       clipPathUnits="userSpaceOnUse"><path
         id="path3452"
         d="M 48,48 0,48 0,0 48,0 48,48 Z" /></clipPath><clipPath
       id="clipPath3658"
       clipPathUnits="userSpaceOnUse"><path
         id="path3660"
         d="M 0,48 48,48 48,0 0,0 0,48 Z" /></clipPath><clipPath
       id="clipPath3668"
       clipPathUnits="userSpaceOnUse"><path
         id="path3670"
         d="m -2.28882e-4,48.0001 48.000028882,0 0,-47.99997793 -48.000028882,0 0,47.99997793 z" /></clipPath><clipPath
       id="clipPath3676"
       clipPathUnits="userSpaceOnUse"><path
         id="path3678"
         d="m -2.28882e-4,48.0001 48.000028882,0 0,-47.99997793 -48.000028882,0 0,47.99997793 z" /></clipPath><clipPath
       id="clipPath3680"
       clipPathUnits="userSpaceOnUse"><path
         id="path3682"
         d="M 0,0 48,0 48,48 0,48 0,0 Z" /></clipPath></defs><g
     transform="matrix(1.25,0,0,-1.25,0,480)"
     id="g3398"><g
       id="g3412"><g
         clip-path="url(#clipPath3416)"
         id="g3414"><g
           transform="matrix(1,0,0,-1,0,48)"
           id="g3420"><g
             id="g3422"><g
               clip-path="url(#clipPath3426)"
               id="g3424" /></g></g></g></g><path
       id="path3762"
       d=""
       style="fill:#000000" /><path
       id="path3760"
       d=""
       style="fill:#000000" /><path
       id="path3758"
       d=""
       style="fill:#000000" /><path
       style="fill:#000000"
       d="m 342.79612,158.04297 c 2.31071,10.39958 3.53096,21.20235 3.53096,32.2931 0,83.10707 -68.32802,150.47718 -152.61677,150.47718 -8.89881,0 -17.62236,-0.76157 -26.09927,-2.20152 C 153.9675,347.0786 137.83152,352 120.51422,352 71.63246,352 31.999998,312.92316 31.999998,264.73309 c 0,-16.10815 4.446157,-31.18595 12.170138,-44.14543 -2.025111,-9.77241 -3.089592,-19.8904 -3.089592,-30.26439 0,-83.11347 68.328026,-150.483569 152.623266,-150.483569 9.54788,0 18.88805,0.87676 27.94914,2.5215 12.46221,-6.59814 26.70939,-10.361202 41.8393,-10.361202 48.88177,0 88.50775,39.070452 88.50775,87.266921 0,13.92584 -3.32327,27.07731 -9.21037,38.75685 z m -72.00178,-39.19843 c -7.06193,-9.84921 -17.49254,-17.6569 -31.00627,-23.199079 -13.3839,-5.49098 -29.43551,-8.26846 -47.69396,-8.26846 -21.91923,0 -40.30101,3.80144 -54.64555,11.30834 -10.24887,5.465379 -18.7128,12.863489 -25.12565,21.983119 -6.48425,9.21563 -9.77506,18.36727 -9.77506,27.18611 0,5.51658 2.14194,10.29719 6.36742,14.21383 4.18003,3.87825 9.5349,5.84297 15.92828,5.84297 5.24451,0 9.76856,-1.54874 13.44232,-4.61421 3.51798,-2.93749 6.52969,-7.28291 8.95073,-12.88909 2.70664,-6.10535 5.65344,-11.26355 8.77549,-15.32098 2.99223,-3.91025 7.29559,-7.19332 12.79324,-9.75961 5.53011,-2.5855 12.99447,-3.89105 22.16588,-3.89105 12.618,0 22.95775,2.6559 30.74664,7.89089 7.60065,5.11979 11.29389,11.26354 11.29389,18.78324 0,5.93257 -1.92776,10.61078 -5.89359,14.27783 -4.15408,3.82705 -9.63226,6.80293 -16.28528,8.85085 -6.93859,2.13111 -16.35017,4.43502 -28.00105,6.83492 -15.83741,3.34707 -29.2927,7.32131 -40.00243,11.80113 -10.94339,4.58862 -19.7643,10.95636 -26.2226,18.91764 -6.55564,8.08288 -9.87241,18.22647 -9.87241,30.1556 0,11.36594 3.48553,21.61193 10.36571,30.44998 6.82826,8.77404 16.79155,15.60257 29.62374,20.28078 12.66992,4.61422 27.73494,6.96293 44.77963,6.96293 13.63055,0 25.61246,-1.54874 35.62118,-4.61422 10.06064,-3.09108 18.54404,-7.26371 25.20354,-12.3963 6.70494,-5.171 11.7028,-10.70677 14.83784,-16.45374 3.16747,-5.79817 4.77069,-11.57714 4.77069,-17.16412 0,-5.37578 -2.1095,-10.26519 -6.26356,-14.52102 -4.18004,-4.28782 -9.45052,-6.45734 -15.67514,-6.45734 -5.65344,0 -10.07364,1.35675 -13.14375,4.03824 -2.85593,2.4895 -5.82219,6.37415 -9.113,11.95472 -3.81006,7.12932 -8.412,12.74829 -13.69546,16.70973 -5.12769,3.85265 -13.70196,5.79817 -25.48266,5.79817 -10.9369,0 -19.83569,-2.16311 -26.44327,-6.43814 -6.36741,-4.10864 -9.45701,-8.83165 -9.45701,-14.42502 0,-3.42387 0.99957,-6.29095 3.04416,-8.75485 2.17439,-2.6111 5.23153,-4.90861 9.10002,-6.81573 4.00478,-1.99032 8.14588,-3.56466 12.28048,-4.69741 4.24494,-1.15836 11.3588,-2.87989 21.12087,-5.107 12.35836,-2.61109 23.70419,-5.53578 33.73887,-8.70365 10.15801,-3.20627 18.94647,-7.16131 26.10576,-11.75633 7.31506,-4.69101 13.1048,-10.71957 17.21344,-17.91928 4.12162,-7.22531 6.20514,-16.13375 6.20514,-26.49494 0,-12.3963 -3.58937,-23.69185 -10.67726,-33.58585 z"
       id="path4279" /></g><style
     type="text/css"
     id="style3999">
	.st0{fill:#FFFFFF;}
</style><style
     type="text/css"
     id="style4048">
	.st0{fill:#FFFFFF;}
</style></svg>