<?xml version="1.0" encoding="UTF-8" standalone="no"?>
<svg
   xmlns:dc="http://purl.org/dc/elements/1.1/"
   xmlns:cc="http://creativecommons.org/ns#"
   xmlns:rdf="http://www.w3.org/1999/02/22-rdf-syntax-ns#"
   xmlns:svg="http://www.w3.org/2000/svg"
   xmlns="http://www.w3.org/2000/svg"
   viewBox="0 0 480 480"
   height="480"
   width="480"
   xml:space="preserve"
   version="1.1"
   id="svg3390"><metadata
     id="metadata3396"><rdf:RDF><cc:Work
         rdf:about=""><dc:format>image/svg+xml</dc:format><dc:type
           rdf:resource="http://purl.org/dc/dcmitype/StillImage" /><dc:title></dc:title></cc:Work></rdf:RDF></metadata><defs
     id="defs3394"><clipPath
       id="clipPath3404"
       clipPathUnits="userSpaceOnUse"><path
         id="path3406"
         d="M 0,48 48,48 48,0 0,0 0,48 Z" /></clipPath><clipPath
       id="clipPath3416"
       clipPathUnits="userSpaceOnUse"><path
         id="path3418"
         d="M 0,48 48,48 48,0 0,0 0,48 Z" /></clipPath><clipPath
       id="clipPath3426"
       clipPathUnits="userSpaceOnUse"><path
         id="path3428"
         d="M 0,48 48,48 48,0 0,0 0,48 Z" /></clipPath><clipPath
       id="clipPath3434"
       clipPathUnits="userSpaceOnUse"><path
         id="path3436"
         d="M 0,48 48,48 48,0 0,0 0,48 Z" /></clipPath><clipPath
       id="clipPath3442"
       clipPathUnits="userSpaceOnUse"><path
         id="path3444"
         d="m -2.13623e-4,48.0002 48.000013623,0 0,-48.000047412 -48.000013623,0 0,48.000047412 z" /></clipPath><clipPath
       id="clipPath3446"
       clipPathUnits="userSpaceOnUse"><path
         id="path3448"
         d="m -2.13623e-4,47.9998 48.000013623,0 0,-47.999952588 -48.000013623,0 0,47.999952588 z" /></clipPath><clipPath
       id="clipPath3450"
       clipPathUnits="userSpaceOnUse"><path
         id="path3452"
         d="M 48,48 0,48 0,0 48,0 48,48 Z" /></clipPath><clipPath
       id="clipPath3658"
       clipPathUnits="userSpaceOnUse"><path
         id="path3660"
         d="M 0,48 48,48 48,0 0,0 0,48 Z" /></clipPath><clipPath
       id="clipPath3668"
       clipPathUnits="userSpaceOnUse"><path
         id="path3670"
         d="m -2.28882e-4,48.0001 48.000028882,0 0,-47.99997793 -48.000028882,0 0,47.99997793 z" /></clipPath><clipPath
       id="clipPath3676"
       clipPathUnits="userSpaceOnUse"><path
         id="path3678"
         d="m -2.28882e-4,48.0001 48.000028882,0 0,-47.99997793 -48.000028882,0 0,47.99997793 z" /></clipPath><clipPath
       id="clipPath3680"
       clipPathUnits="userSpaceOnUse"><path
         id="path3682"
         d="M 0,0 48,0 48,48 0,48 0,0 Z" /></clipPath></defs><g
     transform="matrix(1.25,0,0,-1.25,0,480)"
     id="g3398"><g
       id="g3412"><g
         clip-path="url(#clipPath3416)"
         id="g3414"><g
           transform="matrix(1,0,0,-1,0,48)"
           id="g3420"><g
             id="g3422"><g
               clip-path="url(#clipPath3426)"
               id="g3424" /></g></g></g></g><path
       id="path3762"
       d=""
       style="fill:#000000" /><path
       id="path3760"
       d=""
       style="fill:#000000" /><path
       id="path3758"
       d=""
       style="fill:#000000" /><path
       style="fill:#000000"
       d="M 305.37833,305.4976 C 275.29797,335.4688 235.29154,351.9808 192.66859,352 104.84474,352 33.369335,280.8704 33.337191,193.44 33.324331,165.4912 40.666024,138.2144 54.603664,114.1696 L 32,32 116.46159,54.048 C 139.73385,41.4144 165.93764,34.7584 192.6043,34.7456 l 0.0643,0 c 0.006,0 -0.006,0 0,0 87.81099,0 159.29283,71.136 159.3314,158.5664 0.0129,42.368 -16.5413,82.208 -46.62166,112.1792 z m -112.70974,-243.968 -0.0514,0 c -23.76085,0.016 -47.07168,6.3616 -67.40597,18.368 l -4.83446,2.8544 -50.118935,-13.0816 13.378335,48.6336 -3.150113,4.9856 c -13.256187,20.9856 -20.257151,45.2352 -20.250723,70.1376 0.02572,72.6656 59.440696,131.7888 132.484726,131.7888 35.37126,-0.016 68.62102,-13.7408 93.62263,-38.6496 25.00161,-24.9088 38.76567,-58.0224 38.75281,-93.2416 -0.0321,-72.672 -59.44069,-131.7952 -132.4333,-131.7952 z m 72.63902,98.7072 c -3.97943,1.984 -23.55512,11.5712 -27.20668,12.8896 -3.65156,1.3184 -6.30023,1.984 -8.95532,-1.984 -2.6551,-3.968 -10.28608,-12.8896 -12.60688,-15.5328 -2.3208,-2.6432 -4.64159,-2.976 -8.62745,-0.992 -3.97943,1.984 -16.81132,6.1696 -32.01543,19.6672 -11.83542,10.5024 -19.82642,23.4816 -22.14722,27.4496 -2.3208,3.968 -0.24429,6.112 1.74864,8.0832 1.79363,1.7728 3.97942,4.6272 5.97235,6.944 1.99293,2.3168 2.6551,3.968 3.97943,6.6112 1.32433,2.6432 0.66217,4.96 -0.3343,6.944 -0.99646,1.984 -8.95532,21.4848 -12.27258,29.4144 -3.23369,7.7248 -6.51237,6.6816 -8.95532,6.8032 -2.3208,0.1152 -4.97589,0.1408 -7.63099,0.1408 -2.65509,0 -6.96882,-0.992 -10.61395,-4.96 -3.65156,-3.968 -13.93121,-13.5488 -13.93121,-33.056 0,-19.5072 14.26551,-38.3424 16.25844,-40.9856 1.99293,-2.6432 28.07457,-42.6624 68.01028,-59.8272 9.49534,-4.0832 16.91418,-6.5216 22.69367,-8.3456 9.54034,-3.0144 18.21922,-2.592 25.07875,-1.568 7.65028,1.1392 23.55513,9.5872 26.87239,18.8416 3.31726,9.2544 3.31726,17.1904 2.3208,18.8416 -0.99647,1.6512 -3.64513,2.6432 -7.63099,4.6272 z"
       id="path4433" /></g><style
     type="text/css"
     id="style3999">
	.st0{fill:#FFFFFF;}
</style><style
     type="text/css"
     id="style4048">
	.st0{fill:#FFFFFF;}
</style></svg>