<?xml version="1.0" encoding="UTF-8" standalone="no"?>
<svg
   xmlns:dc="http://purl.org/dc/elements/1.1/"
   xmlns:cc="http://creativecommons.org/ns#"
   xmlns:rdf="http://www.w3.org/1999/02/22-rdf-syntax-ns#"
   xmlns:svg="http://www.w3.org/2000/svg"
   xmlns="http://www.w3.org/2000/svg"
   viewBox="0 0 480 480"
   height="480"
   width="480"
   xml:space="preserve"
   version="1.1"
   id="svg3390"><metadata
     id="metadata3396"><rdf:RDF><cc:Work
         rdf:about=""><dc:format>image/svg+xml</dc:format><dc:type
           rdf:resource="http://purl.org/dc/dcmitype/StillImage" /><dc:title></dc:title></cc:Work></rdf:RDF></metadata><defs
     id="defs3394"><clipPath
       id="clipPath3404"
       clipPathUnits="userSpaceOnUse"><path
         id="path3406"
         d="M 0,48 48,48 48,0 0,0 0,48 Z" /></clipPath><clipPath
       id="clipPath3416"
       clipPathUnits="userSpaceOnUse"><path
         id="path3418"
         d="M 0,48 48,48 48,0 0,0 0,48 Z" /></clipPath><clipPath
       id="clipPath3426"
       clipPathUnits="userSpaceOnUse"><path
         id="path3428"
         d="M 0,48 48,48 48,0 0,0 0,48 Z" /></clipPath><clipPath
       id="clipPath3434"
       clipPathUnits="userSpaceOnUse"><path
         id="path3436"
         d="M 0,48 48,48 48,0 0,0 0,48 Z" /></clipPath><clipPath
       id="clipPath3442"
       clipPathUnits="userSpaceOnUse"><path
         id="path3444"
         d="m -2.13623e-4,48.0002 48.000013623,0 0,-48.000047412 -48.000013623,0 0,48.000047412 z" /></clipPath><clipPath
       id="clipPath3446"
       clipPathUnits="userSpaceOnUse"><path
         id="path3448"
         d="m -2.13623e-4,47.9998 48.000013623,0 0,-47.999952588 -48.000013623,0 0,47.999952588 z" /></clipPath><clipPath
       id="clipPath3450"
       clipPathUnits="userSpaceOnUse"><path
         id="path3452"
         d="M 48,48 0,48 0,0 48,0 48,48 Z" /></clipPath><clipPath
       id="clipPath3658"
       clipPathUnits="userSpaceOnUse"><path
         id="path3660"
         d="M 0,48 48,48 48,0 0,0 0,48 Z" /></clipPath><clipPath
       id="clipPath3668"
       clipPathUnits="userSpaceOnUse"><path
         id="path3670"
         d="m -2.28882e-4,48.0001 48.000028882,0 0,-47.99997793 -48.000028882,0 0,47.99997793 z" /></clipPath><clipPath
       id="clipPath3676"
       clipPathUnits="userSpaceOnUse"><path
         id="path3678"
         d="m -2.28882e-4,48.0001 48.000028882,0 0,-47.99997793 -48.000028882,0 0,47.99997793 z" /></clipPath><clipPath
       id="clipPath3680"
       clipPathUnits="userSpaceOnUse"><path
         id="path3682"
         d="M 0,0 48,0 48,48 0,48 0,0 Z" /></clipPath></defs><g
     transform="matrix(1.25,0,0,-1.25,0,480)"
     id="g3398"><g
       id="g3412"><g
         clip-path="url(#clipPath3416)"
         id="g3414"><g
           transform="matrix(1,0,0,-1,0,48)"
           id="g3420"><g
             id="g3422"><g
               clip-path="url(#clipPath3426)"
               id="g3424" /></g></g></g></g><g
       transform="matrix(6.4000169,0,0,-6.4187314,31.998165,352.83915)"
       id="g3552"><path
         style="fill:#000000"
         d="m 44.399,37.35 c -6.137,2.603 -12.806,3.862 -18.873,3.862 -8.994,0 -17.702,-2.467 -24.744,-6.565 -0.616,-0.358 -1.073,0.273 -0.56,0.737 6.527,5.894 15.152,9.433 24.729,9.433 6.834,0 14.77,-2.148 20.244,-6.188 0.906,-0.669 0.129,-1.671 -0.796,-1.279 z"
         id="path3540" /><path
         style="fill:#000000"
         d="m 49.809,34.245 c -0.597,-0.737 -5.731,-1.373 -8.865,0.829 -0.481,0.338 -0.399,0.806 0.136,0.742 1.765,-0.212 5.692,-0.683 6.393,0.213 0.701,0.896 -0.779,4.592 -1.439,6.242 -0.2,0.499 0.229,0.7 0.681,0.323 2.936,-2.456 3.695,-7.604 3.094,-8.348 z"
         id="path3542" /><path
         style="fill:#000000"
         d="m 27.717,15.806 c -2.831,0.318 -6.532,0.529 -9.181,1.692 -3.061,1.321 -5.208,4.017 -5.208,7.981 0,5.073 3.198,7.611 7.308,7.611 3.471,0 5.369,-0.819 8.05,-3.55 0.885,1.283 1.176,1.906 2.799,3.254 0.364,0.196 0.831,0.177 1.154,-0.113 l 0.012,0.011 c 0.975,-0.868 2.748,-2.407 3.745,-3.244 0.398,-0.325 0.327,-0.852 0.015,-1.298 -0.892,-1.233 -1.842,-2.236 -1.842,-4.525 l 0,-7.606 c 0,-3.225 0.227,-6.185 -2.147,-8.405 -1.873,-1.798 -4.979,-2.431 -7.354,-2.431 -4.648,0 -9.833,1.735 -10.92,7.475 -0.115,0.61 0.329,0.931 0.729,1.021 l 4.733,0.513 c 0.443,-0.023 0.764,-0.458 0.848,-0.898 0.406,-1.978 2.063,-2.932 3.925,-2.932 1.004,0 2.146,0.37 2.741,1.269 0.685,1.005 0.593,2.378 0.593,3.541 l 0,0.634 z m -0.913,10.149 c -0.776,1.373 -2.01,2.22 -3.381,2.22 -1.872,0 -2.969,-1.427 -2.969,-3.542 0,-4.159 3.731,-4.915 7.262,-4.915 l 0,1.056 c 0,1.904 0.046,3.488 -0.913,5.18 z"
         id="path3544" /></g></g></svg>