<?xml version="1.0" encoding="UTF-8" standalone="no"?>
<svg
   xmlns:dc="http://purl.org/dc/elements/1.1/"
   xmlns:cc="http://creativecommons.org/ns#"
   xmlns:rdf="http://www.w3.org/1999/02/22-rdf-syntax-ns#"
   xmlns:svg="http://www.w3.org/2000/svg"
   xmlns="http://www.w3.org/2000/svg"
   viewBox="0 0 480 480"
   height="480"
   width="480"
   xml:space="preserve"
   version="1.1"
   id="svg3390"><metadata
     id="metadata3396"><rdf:RDF><cc:Work
         rdf:about=""><dc:format>image/svg+xml</dc:format><dc:type
           rdf:resource="http://purl.org/dc/dcmitype/StillImage" /><dc:title></dc:title></cc:Work></rdf:RDF></metadata><defs
     id="defs3394"><clipPath
       id="clipPath3404"
       clipPathUnits="userSpaceOnUse"><path
         id="path3406"
         d="M 0,48 48,48 48,0 0,0 0,48 Z" /></clipPath><clipPath
       id="clipPath3416"
       clipPathUnits="userSpaceOnUse"><path
         id="path3418"
         d="M 0,48 48,48 48,0 0,0 0,48 Z" /></clipPath><clipPath
       id="clipPath3426"
       clipPathUnits="userSpaceOnUse"><path
         id="path3428"
         d="M 0,48 48,48 48,0 0,0 0,48 Z" /></clipPath><clipPath
       id="clipPath3434"
       clipPathUnits="userSpaceOnUse"><path
         id="path3436"
         d="M 0,48 48,48 48,0 0,0 0,48 Z" /></clipPath><clipPath
       id="clipPath3442"
       clipPathUnits="userSpaceOnUse"><path
         id="path3444"
         d="m -2.13623e-4,48.0002 48.000013623,0 0,-48.000047412 -48.000013623,0 0,48.000047412 z" /></clipPath><clipPath
       id="clipPath3446"
       clipPathUnits="userSpaceOnUse"><path
         id="path3448"
         d="m -2.13623e-4,47.9998 48.000013623,0 0,-47.999952588 -48.000013623,0 0,47.999952588 z" /></clipPath><clipPath
       id="clipPath3450"
       clipPathUnits="userSpaceOnUse"><path
         id="path3452"
         d="M 48,48 0,48 0,0 48,0 48,48 Z" /></clipPath><clipPath
       id="clipPath3658"
       clipPathUnits="userSpaceOnUse"><path
         id="path3660"
         d="M 0,48 48,48 48,0 0,0 0,48 Z" /></clipPath><clipPath
       id="clipPath3668"
       clipPathUnits="userSpaceOnUse"><path
         id="path3670"
         d="m -2.28882e-4,48.0001 48.000028882,0 0,-47.99997793 -48.000028882,0 0,47.99997793 z" /></clipPath><clipPath
       id="clipPath3676"
       clipPathUnits="userSpaceOnUse"><path
         id="path3678"
         d="m -2.28882e-4,48.0001 48.000028882,0 0,-47.99997793 -48.000028882,0 0,47.99997793 z" /></clipPath><clipPath
       id="clipPath3680"
       clipPathUnits="userSpaceOnUse"><path
         id="path3682"
         d="M 0,0 48,0 48,48 0,48 0,0 Z" /></clipPath></defs><g
     transform="matrix(1.25,0,0,-1.25,0,480)"
     id="g3398"><g
       id="g3412"><g
         clip-path="url(#clipPath3416)"
         id="g3414"><g
           transform="matrix(1,0,0,-1,0,48)"
           id="g3420"><g
             id="g3422"><g
               clip-path="url(#clipPath3426)"
               id="g3424" /></g></g></g></g><path
       id="path3762"
       d=""
       style="fill:#000000" /><path
       id="path3760"
       d=""
       style="fill:#000000" /><path
       id="path3758"
       d=""
       style="fill:#000000" /><path
       style="fill:#000000"
       d="m 336,240.61116 c 0,22.71565 -8.13329,41.27381 -21.57259,55.84104 2.17534,5.2465 9.35329,26.39909 -2.05915,55.06591 0,0 -17.57695,5.59243 -57.59793,-21.32555 -16.75717,4.61232 -34.70851,6.92488 -52.5243,7.00816 -17.81579,-0.0833 -35.74778,-2.38944 -52.47268,-7.00816 -40.05971,26.91798 -57.662482,21.32555 -57.662482,21.32555 C 80.730709,322.8577 87.90221,301.6987 90.077543,296.4522 76.66406,281.87856 68.47267,263.3204 68.47267,240.61116 c 0,-79.72258 48.9547,-97.56327 95.52104,-102.82259 -5.99669,-5.19526 -11.4318,-14.37505 -13.3102,-27.82123 -11.96756,-5.31698 -42.31251,-14.509569 -61.012631,17.29618 0,0 -11.083229,19.98029 -32.139428,21.44726 0,0 -20.455885,0.26906 -1.43301,-12.65183 0,0 13.742688,-6.39318 23.276718,-30.44128 0,0 12.303224,-37.135539 70.630581,-24.547759 0.0904,-17.38587 0.28401,-44.11808 0.28401,-49.06991 l 103.95127,0 c 0,6.85441 0.24529,39.59544 0.24529,67.43589 0,19.410149 -6.70028,32.068399 -14.22036,38.532039 C 286.95494,143.11835 336,160.71561 336,240.62397 Z M 72.003554,139.07617 c -0.458306,-1.03777 -2.097875,-1.34526 -3.58898,-0.63419 -1.523378,0.67903 -2.368983,2.08835 -1.884858,3.12612 0.45185,1.0634 2.091419,1.35807 3.614799,0.65341 1.516923,-0.67903 2.388348,-2.10757 1.859039,-3.13893 z m 8.494775,-9.404 c -1.000525,-0.92246 -2.956389,-0.49326 -4.279663,0.9609 -1.374915,1.45416 -1.626659,3.38877 -0.613224,4.32405 1.032798,0.92246 2.930567,0.48685 4.299027,-0.9609 1.374914,-1.46697 1.639569,-3.38877 0.59386,-4.32405 z m 8.262396,-11.9728 c -1.284545,-0.88402 -3.388873,-0.056 -4.686328,1.79368 -1.284544,1.85133 -1.284544,4.06781 0.02582,4.95824 1.297455,0.88403 3.369508,0.0833 4.686328,-1.74884 1.284543,-1.88336 1.284543,-4.09983 -0.02582,-5.00308 z m 11.328515,-11.58203 c -1.148985,-1.25558 -3.601885,-0.92247 -5.389919,0.80075 -1.833219,1.67837 -2.343163,4.05499 -1.194174,5.31697 1.168354,1.25557 3.627709,0.90965 5.435108,-0.80075 1.820305,-1.67837 2.368985,-4.0678 1.148985,-5.31697 z m 15.6211,-6.726299 c -0.50995,-1.62712 -2.86602,-2.37021 -5.24146,-1.67837 -2.36899,0.71748 -3.92464,2.620059 -3.44051,4.266399 0.49058,1.63993 2.86601,2.41506 5.24791,1.67196 2.36898,-0.71107 3.92464,-2.60083 3.4276,-4.259989 z m 12.70988,-4.40732 c -2.50453,-0.056 -4.53786,1.33245 -4.56368,3.01722 0,1.73603 1.96878,3.138939 4.47977,3.183779 2.49163,0.0481 4.53786,-1.332439 4.53786,-3.036439 0.0516,-1.7104 -1.96232,-3.13893 -4.45395,-3.16456 z m 16.50543,2.01148 c -2.43353,-0.44201 -4.68632,0.58935 -4.99617,2.25491 -0.29692,1.716809 1.46529,3.440019 3.89237,3.882029 2.47872,0.42921 4.69924,-0.57653 5.01553,-2.28053 0.29693,-1.671959 -1.43946,-3.388769 -3.91173,-3.849999 z"
       id="path3920" /></g></svg>