<?xml version="1.0" encoding="UTF-8" standalone="no"?>
<svg
   xmlns:dc="http://purl.org/dc/elements/1.1/"
   xmlns:cc="http://creativecommons.org/ns#"
   xmlns:rdf="http://www.w3.org/1999/02/22-rdf-syntax-ns#"
   xmlns:svg="http://www.w3.org/2000/svg"
   xmlns="http://www.w3.org/2000/svg"
   viewBox="0 0 480 480"
   height="480"
   width="480"
   xml:space="preserve"
   version="1.1"
   id="svg3390"><metadata
     id="metadata3396"><rdf:RDF><cc:Work
         rdf:about=""><dc:format>image/svg+xml</dc:format><dc:type
           rdf:resource="http://purl.org/dc/dcmitype/StillImage" /><dc:title></dc:title></cc:Work></rdf:RDF></metadata><defs
     id="defs3394"><clipPath
       id="clipPath3404"
       clipPathUnits="userSpaceOnUse"><path
         id="path3406"
         d="M 0,48 48,48 48,0 0,0 0,48 Z" /></clipPath><clipPath
       id="clipPath3416"
       clipPathUnits="userSpaceOnUse"><path
         id="path3418"
         d="M 0,48 48,48 48,0 0,0 0,48 Z" /></clipPath><clipPath
       id="clipPath3426"
       clipPathUnits="userSpaceOnUse"><path
         id="path3428"
         d="M 0,48 48,48 48,0 0,0 0,48 Z" /></clipPath><clipPath
       id="clipPath3434"
       clipPathUnits="userSpaceOnUse"><path
         id="path3436"
         d="M 0,48 48,48 48,0 0,0 0,48 Z" /></clipPath><clipPath
       id="clipPath3442"
       clipPathUnits="userSpaceOnUse"><path
         id="path3444"
         d="m -2.13623e-4,48.0002 48.000013623,0 0,-48.000047412 -48.000013623,0 0,48.000047412 z" /></clipPath><clipPath
       id="clipPath3446"
       clipPathUnits="userSpaceOnUse"><path
         id="path3448"
         d="m -2.13623e-4,47.9998 48.000013623,0 0,-47.999952588 -48.000013623,0 0,47.999952588 z" /></clipPath><clipPath
       id="clipPath3450"
       clipPathUnits="userSpaceOnUse"><path
         id="path3452"
         d="M 48,48 0,48 0,0 48,0 48,48 Z" /></clipPath><clipPath
       id="clipPath3658"
       clipPathUnits="userSpaceOnUse"><path
         id="path3660"
         d="M 0,48 48,48 48,0 0,0 0,48 Z" /></clipPath><clipPath
       id="clipPath3668"
       clipPathUnits="userSpaceOnUse"><path
         id="path3670"
         d="m -2.28882e-4,48.0001 48.000028882,0 0,-47.99997793 -48.000028882,0 0,47.99997793 z" /></clipPath><clipPath
       id="clipPath3676"
       clipPathUnits="userSpaceOnUse"><path
         id="path3678"
         d="m -2.28882e-4,48.0001 48.000028882,0 0,-47.99997793 -48.000028882,0 0,47.99997793 z" /></clipPath><clipPath
       id="clipPath3680"
       clipPathUnits="userSpaceOnUse"><path
         id="path3682"
         d="M 0,0 48,0 48,48 0,48 0,0 Z" /></clipPath></defs><g
     transform="matrix(1.25,0,0,-1.25,0,480)"
     id="g3398"><g
       id="g3412"><g
         clip-path="url(#clipPath3416)"
         id="g3414"><g
           transform="matrix(1,0,0,-1,0,48)"
           id="g3420"><g
             id="g3422"><g
               clip-path="url(#clipPath3426)"
               id="g3424" /></g></g></g></g><path
       id="path3762"
       d=""
       style="fill:#000000" /><path
       id="path3760"
       d=""
       style="fill:#000000" /><path
       id="path3758"
       d=""
       style="fill:#000000" /><path
       d="m 202.20408,51.57806 c -45.30613,0 -74.14967,20.11814 -74.14967,49.9578 0,29.70465 26.66668,39.29114 36.05442,42.66667 17.68708,5.94093 40.81633,6.61604 44.4898,6.61604 4.08163,0 6.25851,0 9.93198,-0.27005 31.83674,-22.81856 45.57823,-32.94514 45.57823,-54.4135 0,-23.89873 -24.7619,-44.55696 -61.90476,-44.55696 m -49.65987,242.90295 c 0,29.83967 17.82313,43.34177 36.59864,43.34177 36.19048,0 54.55782,-46.58227 54.55782,-74.66666 0,-34.70042 -28.16326,-41.45148 -39.31972,-41.45148 -33.46939,0 -51.83674,41.31646 -51.83674,72.77637 m 104.08164,-123.40928 -14.69388,11.47679 c -4.89796,4.05064 -11.15646,9.31646 -11.15646,19.173 0,9.85654 7.48299,17.41772 13.19728,21.87342 17.82313,13.77215 34.96599,28.35443 34.96599,58.59915 0,27.94937 -17.27892,44.01688 -27.75511,52.92827 l 23.80953,0 L 292,352 l -84.76191,0 c -59.31973,0 -89.79592,-36.59072 -89.79592,-77.23207 0,-31.45991 24.35374,-65.21519 67.7551,-65.21519 l 10.88436,0 C 194.31291,204.827 191.31972,198.21097 191.31972,192 c 0,-13.63713 5.71429,-19.30802 12.51701,-27.00422 C 184.517,163.64557 149.2789,159.18987 123.29251,143.39241 97.986394,128.54008 91.999997,107.88186 91.999997,92.75949 91.999997,61.70464 120.02721,32 181.38775,32 c 72.78912,0 109.2517,39.96624 109.2517,79.39241 0,29.16455 -15.37414,44.15189 -34.0136,59.67932 z"
       id="path3979" /></g></svg>