<?xml version="1.0" encoding="UTF-8" standalone="no"?>
<svg
   xmlns:dc="http://purl.org/dc/elements/1.1/"
   xmlns:cc="http://creativecommons.org/ns#"
   xmlns:rdf="http://www.w3.org/1999/02/22-rdf-syntax-ns#"
   xmlns:svg="http://www.w3.org/2000/svg"
   xmlns="http://www.w3.org/2000/svg"
   viewBox="0 0 480 480"
   height="480"
   width="480"
   xml:space="preserve"
   version="1.1"
   id="svg3390"><metadata
     id="metadata3396"><rdf:RDF><cc:Work
         rdf:about=""><dc:format>image/svg+xml</dc:format><dc:type
           rdf:resource="http://purl.org/dc/dcmitype/StillImage" /><dc:title></dc:title></cc:Work></rdf:RDF></metadata><defs
     id="defs3394"><clipPath
       id="clipPath3404"
       clipPathUnits="userSpaceOnUse"><path
         id="path3406"
         d="M 0,48 48,48 48,0 0,0 0,48 Z" /></clipPath><clipPath
       id="clipPath3416"
       clipPathUnits="userSpaceOnUse"><path
         id="path3418"
         d="M 0,48 48,48 48,0 0,0 0,48 Z" /></clipPath><clipPath
       id="clipPath3426"
       clipPathUnits="userSpaceOnUse"><path
         id="path3428"
         d="M 0,48 48,48 48,0 0,0 0,48 Z" /></clipPath><clipPath
       id="clipPath3434"
       clipPathUnits="userSpaceOnUse"><path
         id="path3436"
         d="M 0,48 48,48 48,0 0,0 0,48 Z" /></clipPath><clipPath
       id="clipPath3442"
       clipPathUnits="userSpaceOnUse"><path
         id="path3444"
         d="m -2.13623e-4,48.0002 48.000013623,0 0,-48.000047412 -48.000013623,0 0,48.000047412 z" /></clipPath><clipPath
       id="clipPath3446"
       clipPathUnits="userSpaceOnUse"><path
         id="path3448"
         d="m -2.13623e-4,47.9998 48.000013623,0 0,-47.999952588 -48.000013623,0 0,47.999952588 z" /></clipPath><clipPath
       id="clipPath3450"
       clipPathUnits="userSpaceOnUse"><path
         id="path3452"
         d="M 48,48 0,48 0,0 48,0 48,48 Z" /></clipPath><clipPath
       id="clipPath3658"
       clipPathUnits="userSpaceOnUse"><path
         id="path3660"
         d="M 0,48 48,48 48,0 0,0 0,48 Z" /></clipPath><clipPath
       id="clipPath3668"
       clipPathUnits="userSpaceOnUse"><path
         id="path3670"
         d="m -2.28882e-4,48.0001 48.000028882,0 0,-47.99997793 -48.000028882,0 0,47.99997793 z" /></clipPath><clipPath
       id="clipPath3676"
       clipPathUnits="userSpaceOnUse"><path
         id="path3678"
         d="m -2.28882e-4,48.0001 48.000028882,0 0,-47.99997793 -48.000028882,0 0,47.99997793 z" /></clipPath><clipPath
       id="clipPath3680"
       clipPathUnits="userSpaceOnUse"><path
         id="path3682"
         d="M 0,0 48,0 48,48 0,48 0,0 Z" /></clipPath></defs><g
     transform="matrix(1.25,0,0,-1.25,0,480)"
     id="g3398"><g
       id="g3412"><g
         clip-path="url(#clipPath3416)"
         id="g3414"><g
           transform="matrix(1,0,0,-1,0,48)"
           id="g3420"><g
             id="g3422"><g
               clip-path="url(#clipPath3426)"
               id="g3424" /></g></g></g></g><path
       id="path3762"
       d=""
       style="fill:#000000" /><path
       id="path3760"
       d=""
       style="fill:#000000" /><path
       id="path3758"
       d=""
       style="fill:#000000" /><path
       style="fill:#000000"
       d="m 271.13439,187.91559 c -4.10889,5.13689 -11.49463,7.71177 -22.17005,7.71177 -13.61307,0 -23.16206,-4.01038 -28.66617,-12.03113 -5.50411,-8.02076 -8.23696,-19.17645 -8.23696,-33.49923 l 0,-109.92819 c 0,-2.16933 -0.81282,-4.07475 -2.43845,-5.7098 -1.62564,-1.63504 -3.59048,-2.45257 -5.90732,-2.45257 l -57.08915,0 c -2.16324,0 -4.05768,0.81753 -5.68331,2.45257 -1.62563,1.63505 -2.43845,3.54047 -2.43845,5.7098 l 0,202.59822 c 0,2.17579 0.81282,4.08763 2.43845,5.72269 1.62563,1.62861 3.52007,2.44613 5.68331,2.44613 l 55.46992,0 c 1.99684,0 3.62887,-0.39266 4.87689,-1.17801 1.23523,-0.76602 2.04164,-2.21439 2.43845,-4.30648 0.36481,-2.10498 0.60161,-3.50184 0.69122,-4.20351 0.064,-0.69521 0.1088,-2.45257 0.1088,-5.25919 14.38109,13.54388 33.40227,20.30295 57.08274,20.30295 26.45813,0 47.18814,-6.63676 62.19644,-19.94891 C 344.47985,223.04343 352,203.24259 352,176.95303 l 0,-136.79065 c 0,-2.16934 -0.81281,-4.07475 -2.43205,-5.7098 C 347.94232,32.81753 346.04788,32 343.87824,32 l -58.47797,0 c -2.16324,0 -4.06408,0.81753 -5.68331,2.45258 -1.62563,1.63505 -2.43845,3.54046 -2.43845,5.7098 l 0,123.47207 c 0,11.05269 -2.04164,19.12494 -6.14412,24.27471 z M 98.138925,285.48434 c -7.596952,-7.62809 -16.723535,-11.43892 -27.398948,-11.43892 -10.675414,0 -19.789196,3.81083 -27.373348,11.43892 -7.571351,7.62809 -11.366627,16.80112 -11.366627,27.53838 0,10.73725 3.788876,19.91672 11.373028,27.53837 C 50.957181,348.18274 60.077364,352 70.746377,352 c 10.669013,0 19.801996,-3.81082 27.398948,-11.43891 7.564955,-7.62809 11.373025,-16.80112 11.373025,-27.53837 0,-10.73726 -3.80807,-19.91029 -11.373025,-27.53838 z m 9.267385,-42.71731 0,-202.59822 c 0,-2.16933 -0.80642,-4.07475 -2.43205,-5.7098 -1.62563,-1.63504 -3.52647,-2.45257 -5.683312,-2.45257 l -57.095542,0 c -2.163243,0 -4.057681,0.81753 -5.676914,2.45257 -1.619232,1.63505 -2.438448,3.54047 -2.438448,5.7098 l 0,202.59822 c 0,2.17579 0.812816,4.08763 2.438448,5.72269 1.625633,1.62861 3.520071,2.44613 5.676914,2.44613 l 57.095542,0 c 2.163242,0 4.064082,-0.81752 5.683312,-2.44613 1.62563,-1.63506 2.42565,-3.54047 2.42565,-5.72269 z"
       id="path4140" /></g><style
     type="text/css"
     id="style3999">
	.st0{fill:#FFFFFF;}
</style><style
     type="text/css"
     id="style4048">
	.st0{fill:#FFFFFF;}
</style></svg>