<?xml version="1.0" encoding="UTF-8" standalone="no"?>
<!-- Created with Inkscape (http://www.inkscape.org/) -->

<svg
   xmlns:dc="http://purl.org/dc/elements/1.1/"
   xmlns:cc="http://creativecommons.org/ns#"
   xmlns:rdf="http://www.w3.org/1999/02/22-rdf-syntax-ns#"
   xmlns:svg="http://www.w3.org/2000/svg"
   xmlns="http://www.w3.org/2000/svg"
   xmlns:sodipodi="http://sodipodi.sourceforge.net/DTD/sodipodi-0.dtd"
   xmlns:inkscape="http://www.inkscape.org/namespaces/inkscape"
   id="svg3390"
   version="1.1"
   inkscape:version="0.91 r13725"
   xml:space="preserve"
   width="480"
   height="480"
   viewBox="0 0 480 480"
   sodipodi:docname="pinterest.svg"><metadata
     id="metadata3396"><rdf:RDF><cc:Work
         rdf:about=""><dc:format>image/svg+xml</dc:format><dc:type
           rdf:resource="http://purl.org/dc/dcmitype/StillImage" /><dc:title></dc:title></cc:Work></rdf:RDF></metadata><defs
     id="defs3394"><inkscape:path-effect
       effect="bend_path"
       id="path-effect3560"
       is_visible="true"
       bendpath="m 6.2399998,-23.874916 35.0000002,0"
       prop_scale="1"
       scale_y_rel="false"
       vertical="false" /><clipPath
       clipPathUnits="userSpaceOnUse"
       id="clipPath3404"><path
         d="M 0,48 48,48 48,0 0,0 0,48 Z"
         id="path3406"
         inkscape:connector-curvature="0" /></clipPath><clipPath
       clipPathUnits="userSpaceOnUse"
       id="clipPath3416"><path
         d="M 0,48 48,48 48,0 0,0 0,48 Z"
         id="path3418"
         inkscape:connector-curvature="0" /></clipPath><clipPath
       clipPathUnits="userSpaceOnUse"
       id="clipPath3426"><path
         d="M 0,48 48,48 48,0 0,0 0,48 Z"
         id="path3428"
         inkscape:connector-curvature="0" /></clipPath><clipPath
       clipPathUnits="userSpaceOnUse"
       id="clipPath3434"><path
         d="M 0,48 48,48 48,0 0,0 0,48 Z"
         id="path3436"
         inkscape:connector-curvature="0" /></clipPath><clipPath
       clipPathUnits="userSpaceOnUse"
       id="clipPath3442"><path
         d="m -2.13623e-4,48.0002 48.000013623,0 0,-48.000047412 -48.000013623,0 0,48.000047412 z"
         id="path3444"
         inkscape:connector-curvature="0" /></clipPath><clipPath
       clipPathUnits="userSpaceOnUse"
       id="clipPath3446"><path
         d="m -2.13623e-4,47.9998 48.000013623,0 0,-47.999952588 -48.000013623,0 0,47.999952588 z"
         id="path3448"
         inkscape:connector-curvature="0" /></clipPath><clipPath
       clipPathUnits="userSpaceOnUse"
       id="clipPath3450"><path
         d="M 48,48 0,48 0,0 48,0 48,48 Z"
         id="path3452"
         inkscape:connector-curvature="0" /></clipPath><clipPath
       clipPathUnits="userSpaceOnUse"
       id="clipPath3658"><path
         d="M 0,48 48,48 48,0 0,0 0,48 Z"
         id="path3660"
         inkscape:connector-curvature="0" /></clipPath><clipPath
       clipPathUnits="userSpaceOnUse"
       id="clipPath3668"><path
         d="m -2.28882e-4,48.0001 48.000028882,0 0,-47.99997793 -48.000028882,0 0,47.99997793 z"
         id="path3670"
         inkscape:connector-curvature="0" /></clipPath><clipPath
       clipPathUnits="userSpaceOnUse"
       id="clipPath3676"><path
         d="m -2.28882e-4,48.0001 48.000028882,0 0,-47.99997793 -48.000028882,0 0,47.99997793 z"
         id="path3678"
         inkscape:connector-curvature="0" /></clipPath><clipPath
       clipPathUnits="userSpaceOnUse"
       id="clipPath3680"><path
         d="M 0,0 48,0 48,48 0,48 0,0 Z"
         id="path3682"
         inkscape:connector-curvature="0" /></clipPath></defs><sodipodi:namedview
     pagecolor="#ffffff"
     bordercolor="#666666"
     borderopacity="1"
     objecttolerance="10"
     gridtolerance="10"
     guidetolerance="10"
     inkscape:pageopacity="0"
     inkscape:pageshadow="2"
     inkscape:window-width="1280"
     inkscape:window-height="660"
     id="namedview3392"
     showgrid="false"
     inkscape:zoom="0.98333335"
     inkscape:cx="250.26089"
     inkscape:cy="253.16188"
     inkscape:window-x="-8"
     inkscape:window-y="-8"
     inkscape:window-maximized="1"
     inkscape:current-layer="g3398" /><g
     id="g3398"
     inkscape:groupmode="layer"
     inkscape:label="System_Icon_StickerSheet"
     transform="matrix(1.25,0,0,-1.25,0,480)"><g
       id="g3412"><g
         id="g3414"
         clip-path="url(#clipPath3416)"><g
           id="g3420"
           transform="matrix(1,0,0,-1,0,48)"><g
             id="g3422"><g
               id="g3424"
               clip-path="url(#clipPath3426)" /></g></g></g></g><path
       style="fill:#000000"
       d=""
       id="path3762"
       inkscape:connector-curvature="0" /><path
       style="fill:#000000"
       d=""
       id="path3760"
       inkscape:connector-curvature="0" /><path
       style="fill:#000000"
       d=""
       id="path3758"
       inkscape:connector-curvature="0" /><path
       id="path4211"
       d="m 137.99765,229.25045 c 0,13.82373 3.53894,25.4523 10.6232,34.87931 7.08427,9.41421 15.70443,14.12451 25.87326,14.12451 8.15939,0 14.46292,-2.71354 18.87219,-8.12143 4.41567,-5.42069 6.6235,-12.21096 6.6235,-20.3708 0,-5.17109 -0.92153,-11.37897 -2.75179,-18.62362 -1.83026,-7.24466 -4.29408,-15.74369 -7.37225,-25.50349 -3.08457,-9.74701 -5.2924,-17.45245 -6.6235,-23.12274 -2.33583,-10.003 -0.41597,-18.62363 5.74677,-25.87468 6.16273,-7.25106 14.25173,-10.86699 24.25418,-10.86699 17.66267,0 32.12559,9.82381 43.36955,29.49701 11.25035,19.66041 16.87553,43.49353 16.87553,71.49297 0,21.50357 -6.95628,39.00082 -20.87523,52.49815 -13.91896,13.50373 -33.29031,20.2556 -58.12045,20.2556 -27.83791,0 -50.37062,-8.87662 -67.62372,-26.62347 -17.25311,-17.74684 -25.87966,-39.12242 -25.87966,-64.12032 0,-14.6685 4.17248,-27.16105 12.50466,-37.50325 2.82859,-3.17433 3.75012,-6.66866 2.75179,-10.50859 -0.83833,-2.82874 -2.07984,-7.91664 -3.75012,-15.25089 -0.66555,-2.33595 -1.87506,-3.91672 -3.62852,-4.74871 -1.75347,-0.83198 -3.70533,-0.83838 -5.87476,0 -12.83744,5.3311 -22.539113,14.50851 -29.124219,27.50025 -6.578707,13.00454 -9.86806,27.99944 -9.86806,44.9975 0,11.00138 1.791865,22.04116 5.375596,33.11934 3.583732,11.07818 9.132116,21.74677 16.625954,32.00576 7.500238,10.2462 16.453169,19.37241 26.877979,27.37225 10.41202,7.99984 23.15987,14.37412 38.24994,19.12282 15.09006,4.74871 31.29365,7.12306 48.62355,7.12306 17.66268,0 34.07744,-3.03994 49.24431,-9.11982 15.16686,-6.09268 27.8763,-14.17571 38.12834,-24.25551 10.25203,-10.0798 18.28982,-21.66357 24.12619,-34.75131 C 317.07542,270.79202 320,257.25629 320,243.25337 c 0,-37.66964 -9.53528,-68.78582 -28.62505,-93.37413 -19.08976,-24.58831 -43.70232,-36.87606 -73.87606,-36.87606 -10.00245,0 -19.37135,2.32315 -28.11949,7.00146 -8.74815,4.66551 -14.87889,10.25259 -18.37302,16.74846 C 163.67252,107.58249 159.25686,90.16844 157.75937,84.50455 153.91966,69.82964 144.92193,52.33239 130.75979,32 l -12.99742,0 c -2.84139,25.66989 -2.24623,46.84066 1.74707,63.49953 l 24.50376,103.49873 c -3.9997,8.16624 -6.00275,18.25243 -6.00275,30.25219 z"
       inkscape:connector-curvature="0"
       style="fill:#000000" /></g><style
     id="style3999"
     type="text/css">
	.st0{fill:#FFFFFF;}
</style><style
     id="style4048"
     type="text/css">
	.st0{fill:#FFFFFF;}
</style></svg>