<?xml version="1.0" encoding="UTF-8" standalone="no"?>
<!-- Created with Inkscape (http://www.inkscape.org/) -->

<svg
   xmlns:dc="http://purl.org/dc/elements/1.1/"
   xmlns:cc="http://creativecommons.org/ns#"
   xmlns:rdf="http://www.w3.org/1999/02/22-rdf-syntax-ns#"
   xmlns:svg="http://www.w3.org/2000/svg"
   xmlns="http://www.w3.org/2000/svg"
   xmlns:sodipodi="http://sodipodi.sourceforge.net/DTD/sodipodi-0.dtd"
   xmlns:inkscape="http://www.inkscape.org/namespaces/inkscape"
   id="svg3390"
   version="1.1"
   inkscape:version="0.91 r13725"
   xml:space="preserve"
   width="480"
   height="480"
   viewBox="0 0 480 480"
   sodipodi:docname="reddit.svg"><metadata
     id="metadata3396"><rdf:RDF><cc:Work
         rdf:about=""><dc:format>image/svg+xml</dc:format><dc:type
           rdf:resource="http://purl.org/dc/dcmitype/StillImage" /><dc:title></dc:title></cc:Work></rdf:RDF></metadata><defs
     id="defs3394"><inkscape:path-effect
       effect="bend_path"
       id="path-effect3560"
       is_visible="true"
       bendpath="m 6.2399998,-23.874916 35.0000002,0"
       prop_scale="1"
       scale_y_rel="false"
       vertical="false" /><clipPath
       clipPathUnits="userSpaceOnUse"
       id="clipPath3404"><path
         d="M 0,48 48,48 48,0 0,0 0,48 Z"
         id="path3406"
         inkscape:connector-curvature="0" /></clipPath><clipPath
       clipPathUnits="userSpaceOnUse"
       id="clipPath3416"><path
         d="M 0,48 48,48 48,0 0,0 0,48 Z"
         id="path3418"
         inkscape:connector-curvature="0" /></clipPath><clipPath
       clipPathUnits="userSpaceOnUse"
       id="clipPath3426"><path
         d="M 0,48 48,48 48,0 0,0 0,48 Z"
         id="path3428"
         inkscape:connector-curvature="0" /></clipPath><clipPath
       clipPathUnits="userSpaceOnUse"
       id="clipPath3434"><path
         d="M 0,48 48,48 48,0 0,0 0,48 Z"
         id="path3436"
         inkscape:connector-curvature="0" /></clipPath><clipPath
       clipPathUnits="userSpaceOnUse"
       id="clipPath3442"><path
         d="m -2.13623e-4,48.0002 48.000013623,0 0,-48.000047412 -48.000013623,0 0,48.000047412 z"
         id="path3444"
         inkscape:connector-curvature="0" /></clipPath><clipPath
       clipPathUnits="userSpaceOnUse"
       id="clipPath3446"><path
         d="m -2.13623e-4,47.9998 48.000013623,0 0,-47.999952588 -48.000013623,0 0,47.999952588 z"
         id="path3448"
         inkscape:connector-curvature="0" /></clipPath><clipPath
       clipPathUnits="userSpaceOnUse"
       id="clipPath3450"><path
         d="M 48,48 0,48 0,0 48,0 48,48 Z"
         id="path3452"
         inkscape:connector-curvature="0" /></clipPath><clipPath
       clipPathUnits="userSpaceOnUse"
       id="clipPath3658"><path
         d="M 0,48 48,48 48,0 0,0 0,48 Z"
         id="path3660"
         inkscape:connector-curvature="0" /></clipPath><clipPath
       clipPathUnits="userSpaceOnUse"
       id="clipPath3668"><path
         d="m -2.28882e-4,48.0001 48.000028882,0 0,-47.99997793 -48.000028882,0 0,47.99997793 z"
         id="path3670"
         inkscape:connector-curvature="0" /></clipPath><clipPath
       clipPathUnits="userSpaceOnUse"
       id="clipPath3676"><path
         d="m -2.28882e-4,48.0001 48.000028882,0 0,-47.99997793 -48.000028882,0 0,47.99997793 z"
         id="path3678"
         inkscape:connector-curvature="0" /></clipPath><clipPath
       clipPathUnits="userSpaceOnUse"
       id="clipPath3680"><path
         d="M 0,0 48,0 48,48 0,48 0,0 Z"
         id="path3682"
         inkscape:connector-curvature="0" /></clipPath></defs><sodipodi:namedview
     pagecolor="#ffffff"
     bordercolor="#666666"
     borderopacity="1"
     objecttolerance="10"
     gridtolerance="10"
     guidetolerance="10"
     inkscape:pageopacity="0"
     inkscape:pageshadow="2"
     inkscape:window-width="1280"
     inkscape:window-height="660"
     id="namedview3392"
     showgrid="false"
     inkscape:zoom="0.98333335"
     inkscape:cx="250.26089"
     inkscape:cy="253.16188"
     inkscape:window-x="-8"
     inkscape:window-y="-8"
     inkscape:window-maximized="1"
     inkscape:current-layer="g3398" /><g
     id="g3398"
     inkscape:groupmode="layer"
     inkscape:label="System_Icon_StickerSheet"
     transform="matrix(1.25,0,0,-1.25,0,480)"><g
       id="g3412"><g
         id="g3414"
         clip-path="url(#clipPath3416)"><g
           id="g3420"
           transform="matrix(1,0,0,-1,0,48)"><g
             id="g3422"><g
               id="g3424"
               clip-path="url(#clipPath3426)" /></g></g></g></g><path
       style="fill:#000000"
       d=""
       id="path3762"
       inkscape:connector-curvature="0" /><path
       style="fill:#000000"
       d=""
       id="path3760"
       inkscape:connector-curvature="0" /><path
       style="fill:#000000"
       d=""
       id="path3758"
       inkscape:connector-curvature="0" /><path
       id="path4268"
       d="m 351.98721,194.55981 c 0,17.46332 -14.0743,31.62048 -31.43537,31.62048 -9.89868,0 -18.62718,-4.70191 -24.39502,-11.89948 -24.88739,17.78489 -60.12109,29.20199 -99.44727,30.16678 l 23.43584,68.92052 57.63364,-13.64259 c 0.78013,-0.18653 1.56026,-0.19296 2.31481,-0.0641 0.41564,-13.39817 11.2799,-24.15272 24.70195,-24.15272 13.68424,0 24.77869,11.15978 24.77869,24.92457 0,13.76482 -11.09445,24.9246 -24.77869,24.9246 -10.08412,0 -18.72309,-6.08481 -22.59177,-14.7811 -0.53074,0.32162 -1.06788,0.63679 -1.70093,0.78474 l -62.86434,14.87756 c -2.97344,0.70754 -5.99804,-0.97769 -6.9828,-3.88501 L 184.15714,244.41547 C 145.98837,243.17407 111.79697,232.05289 87.331615,214.87903 81.563775,221.72926 73.059089,226.1739 63.435366,226.1739 46.074296,226.1739 32,212.01671 32,194.55341 c 0,-12.89005 7.692584,-23.93404 18.691126,-28.85465 -1.144616,-4.7662 -1.745699,-9.64824 -1.745699,-14.63315 0,-51.61802 63.746773,-93.4656 142.373563,-93.4656 78.62678,0 142.37355,41.84758 142.37355,93.4656 0,4.79842 -0.55632,9.51316 -1.61781,14.12499 C 343.72552,169.81535 352,181.18738 352,194.55341 Z m -233.2522,-25.32335 c 0,12.71633 10.60847,23.39372 23.2568,23.39372 12.64832,0 22.91149,-10.67096 22.91149,-23.39372 0,-12.71642 -10.26317,-23.04643 -22.91149,-23.04643 -12.64833,0 -23.2568,10.32359 -23.2568,23.04643 z M 243.79226,105.41022 C 233.10705,94.67491 216.21917,89.45204 192.16945,89.45204 c -24.4142,0 -41.29568,5.22287 -51.9745,15.9646 -1.44516,1.45365 -1.44516,3.80781 0,5.25504 1.44516,1.44722 3.78555,1.45364 5.22431,0 9.22087,-9.27516 24.39502,-13.77768 46.38571,-13.77768 22.35517,0 37.52932,4.50892 46.75659,13.78409 1.44515,1.44723 3.78554,1.44723 5.2307,0 1.44515,-1.44723 1.44515,-3.8078 0,-5.26145 z m -1.44516,40.78623 c -12.65472,0 -23.28238,10.31717 -23.28238,23.04642 0,12.72925 10.63406,23.39374 23.28238,23.39374 12.65472,0 22.9115,-10.66449 22.9115,-23.39374 0,-12.72925 -10.25678,-23.04642 -22.9115,-23.04642 z"
       inkscape:connector-curvature="0"
       style="fill:#000000" /></g><style
     id="style3999"
     type="text/css">
	.st0{fill:#FFFFFF;}
</style><style
     id="style4048"
     type="text/css">
	.st0{fill:#FFFFFF;}
</style></svg>