<?xml version="1.0" encoding="UTF-8" standalone="no"?>
<svg
   xmlns:dc="http://purl.org/dc/elements/1.1/"
   xmlns:cc="http://creativecommons.org/ns#"
   xmlns:rdf="http://www.w3.org/1999/02/22-rdf-syntax-ns#"
   xmlns:svg="http://www.w3.org/2000/svg"
   xmlns="http://www.w3.org/2000/svg"
   viewBox="0 0 480 480"
   height="480"
   width="480"
   xml:space="preserve"
   version="1.1"
   id="svg3390"><metadata
     id="metadata3396"><rdf:RDF><cc:Work
         rdf:about=""><dc:format>image/svg+xml</dc:format><dc:type
           rdf:resource="http://purl.org/dc/dcmitype/StillImage" /><dc:title></dc:title></cc:Work></rdf:RDF></metadata><defs
     id="defs3394"><clipPath
       id="clipPath3404"
       clipPathUnits="userSpaceOnUse"><path
         id="path3406"
         d="M 0,48 48,48 48,0 0,0 0,48 Z" /></clipPath><clipPath
       id="clipPath3416"
       clipPathUnits="userSpaceOnUse"><path
         id="path3418"
         d="M 0,48 48,48 48,0 0,0 0,48 Z" /></clipPath><clipPath
       id="clipPath3426"
       clipPathUnits="userSpaceOnUse"><path
         id="path3428"
         d="M 0,48 48,48 48,0 0,0 0,48 Z" /></clipPath><clipPath
       id="clipPath3434"
       clipPathUnits="userSpaceOnUse"><path
         id="path3436"
         d="M 0,48 48,48 48,0 0,0 0,48 Z" /></clipPath><clipPath
       id="clipPath3442"
       clipPathUnits="userSpaceOnUse"><path
         id="path3444"
         d="m -2.13623e-4,48.0002 48.000013623,0 0,-48.000047412 -48.000013623,0 0,48.000047412 z" /></clipPath><clipPath
       id="clipPath3446"
       clipPathUnits="userSpaceOnUse"><path
         id="path3448"
         d="m -2.13623e-4,47.9998 48.000013623,0 0,-47.999952588 -48.000013623,0 0,47.999952588 z" /></clipPath><clipPath
       id="clipPath3450"
       clipPathUnits="userSpaceOnUse"><path
         id="path3452"
         d="M 48,48 0,48 0,0 48,0 48,48 Z" /></clipPath><clipPath
       id="clipPath3658"
       clipPathUnits="userSpaceOnUse"><path
         id="path3660"
         d="M 0,48 48,48 48,0 0,0 0,48 Z" /></clipPath><clipPath
       id="clipPath3668"
       clipPathUnits="userSpaceOnUse"><path
         id="path3670"
         d="m -2.28882e-4,48.0001 48.000028882,0 0,-47.99997793 -48.000028882,0 0,47.99997793 z" /></clipPath><clipPath
       id="clipPath3676"
       clipPathUnits="userSpaceOnUse"><path
         id="path3678"
         d="m -2.28882e-4,48.0001 48.000028882,0 0,-47.99997793 -48.000028882,0 0,47.99997793 z" /></clipPath><clipPath
       id="clipPath3680"
       clipPathUnits="userSpaceOnUse"><path
         id="path3682"
         d="M 0,0 48,0 48,48 0,48 0,0 Z" /></clipPath></defs><g
     transform="matrix(1.25,0,0,-1.25,0,480)"
     id="g3398"><g
       id="g3412"><g
         clip-path="url(#clipPath3416)"
         id="g3414"><g
           transform="matrix(1,0,0,-1,0,48)"
           id="g3420"><g
             id="g3422"><g
               clip-path="url(#clipPath3426)"
               id="g3424" /></g></g></g></g><path
       id="path3762"
       d=""
       style="fill:#000000" /><path
       id="path3760"
       d=""
       style="fill:#000000" /><path
       id="path3758"
       d=""
       style="fill:#000000" /><g
       transform="matrix(6.4269644,0,0,-6.399994,30.304524,351.9936)"
       id="g4313"><path
         style="fill:#000000"
         d="m 18.463,15.202 c -3.238,0 -5.872,2.46 -5.872,5.496 0,3.037 2.635,5.496 5.872,5.496 3.238,0 5.873,-2.459 5.873,-5.496 0,-3.036 -2.635,-5.496 -5.873,-5.496 z"
         id="path4301" /><path
         style="fill:#000000"
         d="m 32.354,15.102 c -3.262,0 -5.91,2.485 -5.91,5.535 0,3.061 2.648,5.533 5.91,5.533 3.263,0 5.911,-2.472 5.911,-5.533 0,-3.05 -2.648,-5.535 -5.911,-5.535 z"
         id="path4303" /><path
         style="fill:#000000"
         d="M 47.713,23.811 C 47.52,23.948 47.5,24.079 47,24.209 L 47,4.862 c 0,-2.687 -1.746,-4.863 -4.231,-4.863 l -35.05,0 C 5.234,-0.001 3,2.175 3,4.862 L 3,24.227 C 3,24.092 2.706,23.954 2.504,23.81 1.012,22.768 0.085,24.187 1.002,25.542 c 1.782,2.183 5.197,4.894 10.392,7.027 -5.496,18.723 13.429,21.698 13.14,12.098 0,0.179 0.017,-5.448 0.025,-9.44 0.496,0.116 0.931,0.231 1.336,0.331 0.008,3.963 0.019,9.283 0.019,9.109 -0.288,9.6 18.637,6.626 13.127,-12.098 5.196,-2.133 8.515,-4.844 10.297,-7.027 0.915,-1.356 -0.131,-2.774 -1.625,-1.732 z M 44.5,25.671 C 38,29.313 32.148,28.679 29.002,28.579 26.689,28.464 25.925,29.458 25.812,30.991 25.256,30.595 24.733,30.124 24.15,29.583 24.052,29.492 23.984,29.411 23.895,29.337 23.387,28.802 22.617,28.514 21.317,28.579 18.217,28.677 12,29.291 6,25.828 L 6,7.057 C 6,3.656 6.754,2.499 9.865,2.499 l 31.021,0 c 2.95,0 3.613,1.358 3.613,4.558 l 0,18.613 z"
         id="path4305" /></g></g><style
     type="text/css"
     id="style3999">
	.st0{fill:#FFFFFF;}
</style><style
     type="text/css"
     id="style4048">
	.st0{fill:#FFFFFF;}
</style></svg>