<?xml version="1.0" encoding="UTF-8" standalone="no"?>
<svg
   xmlns:dc="http://purl.org/dc/elements/1.1/"
   xmlns:cc="http://creativecommons.org/ns#"
   xmlns:rdf="http://www.w3.org/1999/02/22-rdf-syntax-ns#"
   xmlns:svg="http://www.w3.org/2000/svg"
   xmlns="http://www.w3.org/2000/svg"
   viewBox="0 0 480 480"
   height="480"
   width="480"
   xml:space="preserve"
   version="1.1"
   id="svg3390"><metadata
     id="metadata3396"><rdf:RDF><cc:Work
         rdf:about=""><dc:format>image/svg+xml</dc:format><dc:type
           rdf:resource="http://purl.org/dc/dcmitype/StillImage" /><dc:title></dc:title></cc:Work></rdf:RDF></metadata><defs
     id="defs3394"><clipPath
       id="clipPath3404"
       clipPathUnits="userSpaceOnUse"><path
         id="path3406"
         d="M 0,48 48,48 48,0 0,0 0,48 Z" /></clipPath><clipPath
       id="clipPath3416"
       clipPathUnits="userSpaceOnUse"><path
         id="path3418"
         d="M 0,48 48,48 48,0 0,0 0,48 Z" /></clipPath><clipPath
       id="clipPath3426"
       clipPathUnits="userSpaceOnUse"><path
         id="path3428"
         d="M 0,48 48,48 48,0 0,0 0,48 Z" /></clipPath><clipPath
       id="clipPath3434"
       clipPathUnits="userSpaceOnUse"><path
         id="path3436"
         d="M 0,48 48,48 48,0 0,0 0,48 Z" /></clipPath><clipPath
       id="clipPath3442"
       clipPathUnits="userSpaceOnUse"><path
         id="path3444"
         d="m -2.13623e-4,48.0002 48.000013623,0 0,-48.000047412 -48.000013623,0 0,48.000047412 z" /></clipPath><clipPath
       id="clipPath3446"
       clipPathUnits="userSpaceOnUse"><path
         id="path3448"
         d="m -2.13623e-4,47.9998 48.000013623,0 0,-47.999952588 -48.000013623,0 0,47.999952588 z" /></clipPath><clipPath
       id="clipPath3450"
       clipPathUnits="userSpaceOnUse"><path
         id="path3452"
         d="M 48,48 0,48 0,0 48,0 48,48 Z" /></clipPath><clipPath
       id="clipPath3658"
       clipPathUnits="userSpaceOnUse"><path
         id="path3660"
         d="M 0,48 48,48 48,0 0,0 0,48 Z" /></clipPath><clipPath
       id="clipPath3668"
       clipPathUnits="userSpaceOnUse"><path
         id="path3670"
         d="m -2.28882e-4,48.0001 48.000028882,0 0,-47.99997793 -48.000028882,0 0,47.99997793 z" /></clipPath><clipPath
       id="clipPath3676"
       clipPathUnits="userSpaceOnUse"><path
         id="path3678"
         d="m -2.28882e-4,48.0001 48.000028882,0 0,-47.99997793 -48.000028882,0 0,47.99997793 z" /></clipPath><clipPath
       id="clipPath3680"
       clipPathUnits="userSpaceOnUse"><path
         id="path3682"
         d="M 0,0 48,0 48,48 0,48 0,0 Z" /></clipPath></defs><g
     transform="matrix(1.25,0,0,-1.25,0,480)"
     id="g3398"><g
       id="g3412"><g
         clip-path="url(#clipPath3416)"
         id="g3414"><g
           transform="matrix(1,0,0,-1,0,48)"
           id="g3420"><g
             id="g3422"><g
               clip-path="url(#clipPath3426)"
               id="g3424" /></g></g></g></g><path
       id="path3762"
       d=""
       style="fill:#000000" /><path
       id="path3760"
       d=""
       style="fill:#000000" /><path
       id="path3758"
       d=""
       style="fill:#000000" /><path
       style="fill:#000000"
       d="m 38.398339,141.19473 -6.398337,0 0,38.38947 6.398337,0 0,-38.38947 z m 15.995839,-12.79648 -6.39833,0 0,60.78332 6.39833,0 0,-60.78332 z m 12.79668,-3.19913 -6.39834,0 0,70.38069 6.39834,0 0,-70.38069 z M 79.987528,122 l -6.39834,0 0,70.38069 6.39834,0 0,-70.38069 z m 15.99581,0 -6.3983,0 0,92.77454 6.3983,0 0,-92.77454 z m 12.796682,0 -6.39834,0 0,105.57103 6.39834,0 0,-105.57103 z m 15.99584,0 -6.39834,0 0,111.96928 6.39834,0 0,-111.96928 z m 12.79667,0 -6.39833,0 0,115.1684 6.39833,0 0,-115.1684 z m 15.99585,0 -6.39834,0 0,111.96928 6.39834,0 0,-111.96928 z m 12.79667,0 -6.39834,0 0,108.77015 6.39834,0 0,-108.77015 z m 12.79667,0 -6.39833,0 0,121.56664 6.39833,0 0,-121.56664 z m 15.99585,0 -6.39834,0 0,131.16401 6.39834,0 0,-131.16401 z m 117.52465,0.76779 c -0.70381,0 -109.6483,0.048 -109.75707,0.064 -2.36099,0.23673 -4.57481,2.24579 -4.57481,4.66432 l 0,125.14966 c 0,2.30337 1.1325,3.48065 4.10773,4.63873 7.65241,2.96239 16.34775,4.7155 25.24784,4.7155 36.34895,0 66.29957,-27.87715 69.43475,-63.41939 4.70278,1.97065 9.91742,3.06476 15.33042,3.06476 21.77354,0 39.52892,-17.65276 39.52892,-39.43238 0,-21.77963 -17.55063,-39.43878 -39.32418,-39.43878 z"
       id="path4320" /></g><style
     type="text/css"
     id="style3999">
	.st0{fill:#FFFFFF;}
</style><style
     type="text/css"
     id="style4048">
	.st0{fill:#FFFFFF;}
</style></svg>