<?xml version="1.0" encoding="UTF-8" standalone="no"?>
<svg
   xmlns:dc="http://purl.org/dc/elements/1.1/"
   xmlns:cc="http://creativecommons.org/ns#"
   xmlns:rdf="http://www.w3.org/1999/02/22-rdf-syntax-ns#"
   xmlns:svg="http://www.w3.org/2000/svg"
   xmlns="http://www.w3.org/2000/svg"
   viewBox="0 0 480 480"
   height="480"
   width="480"
   xml:space="preserve"
   version="1.1"
   id="svg3390"><metadata
     id="metadata3396"><rdf:RDF><cc:Work
         rdf:about=""><dc:format>image/svg+xml</dc:format><dc:type
           rdf:resource="http://purl.org/dc/dcmitype/StillImage" /><dc:title></dc:title></cc:Work></rdf:RDF></metadata><defs
     id="defs3394"><clipPath
       id="clipPath3404"
       clipPathUnits="userSpaceOnUse"><path
         id="path3406"
         d="M 0,48 48,48 48,0 0,0 0,48 Z" /></clipPath><clipPath
       id="clipPath3416"
       clipPathUnits="userSpaceOnUse"><path
         id="path3418"
         d="M 0,48 48,48 48,0 0,0 0,48 Z" /></clipPath><clipPath
       id="clipPath3426"
       clipPathUnits="userSpaceOnUse"><path
         id="path3428"
         d="M 0,48 48,48 48,0 0,0 0,48 Z" /></clipPath><clipPath
       id="clipPath3434"
       clipPathUnits="userSpaceOnUse"><path
         id="path3436"
         d="M 0,48 48,48 48,0 0,0 0,48 Z" /></clipPath><clipPath
       id="clipPath3442"
       clipPathUnits="userSpaceOnUse"><path
         id="path3444"
         d="m -2.13623e-4,48.0002 48.000013623,0 0,-48.000047412 -48.000013623,0 0,48.000047412 z" /></clipPath><clipPath
       id="clipPath3446"
       clipPathUnits="userSpaceOnUse"><path
         id="path3448"
         d="m -2.13623e-4,47.9998 48.000013623,0 0,-47.999952588 -48.000013623,0 0,47.999952588 z" /></clipPath><clipPath
       id="clipPath3450"
       clipPathUnits="userSpaceOnUse"><path
         id="path3452"
         d="M 48,48 0,48 0,0 48,0 48,48 Z" /></clipPath><clipPath
       id="clipPath3658"
       clipPathUnits="userSpaceOnUse"><path
         id="path3660"
         d="M 0,48 48,48 48,0 0,0 0,48 Z" /></clipPath><clipPath
       id="clipPath3668"
       clipPathUnits="userSpaceOnUse"><path
         id="path3670"
         d="m -2.28882e-4,48.0001 48.000028882,0 0,-47.99997793 -48.000028882,0 0,47.99997793 z" /></clipPath><clipPath
       id="clipPath3676"
       clipPathUnits="userSpaceOnUse"><path
         id="path3678"
         d="m -2.28882e-4,48.0001 48.000028882,0 0,-47.99997793 -48.000028882,0 0,47.99997793 z" /></clipPath><clipPath
       id="clipPath3680"
       clipPathUnits="userSpaceOnUse"><path
         id="path3682"
         d="M 0,0 48,0 48,48 0,48 0,0 Z" /></clipPath></defs><g
     transform="matrix(1.25,0,0,-1.25,0,480)"
     id="g3398"><g
       id="g3412"><g
         clip-path="url(#clipPath3416)"
         id="g3414"><g
           transform="matrix(1,0,0,-1,0,48)"
           id="g3420"><g
             id="g3422"><g
               clip-path="url(#clipPath3426)"
               id="g3424" /></g></g></g></g><path
       id="path3762"
       d=""
       style="fill:#000000" /><path
       id="path3760"
       d=""
       style="fill:#000000" /><path
       id="path3758"
       d=""
       style="fill:#000000" /><path
       style="fill:#000000"
       d="m 238.91191,260.8828 c -7.6672,0 -15.55839,-1.77595 -23.68639,-5.28282 15.73119,51.81157 45.77278,76.97094 90.12476,75.54246 32.88319,-0.97806 48.38398,-22.42466 46.49598,-64.3591 -1.4272,-31.32373 -23.18719,-74.22335 -65.26717,-128.66669 C 243.07191,81.2346 206.26553,52.8 176.15353,52.8 c -18.64319,0 -34.43838,17.30913 -47.32797,51.95314 -8.6144,31.75485 -17.2224,63.50328 -25.82399,95.25813 -9.574398,34.62471 -19.846393,51.95958 -30.828788,51.95958 -2.387199,0 -10.771195,-5.07049 -25.113589,-15.15997 L 32,256.31422 c 15.788793,13.95669 31.372786,27.91339 46.707179,41.88939 21.05599,18.30006 36.876781,27.93269 47.411181,28.89789 24.90239,2.41298 40.23038,-14.71599 45.99038,-51.36759 6.21439,-39.54719 10.52159,-64.13388 12.93439,-73.76008 7.1744,-32.80369 15.0784,-49.18624 23.70559,-49.18624 6.6944,0 16.7552,10.64286 30.17599,31.91572 13.39519,21.2793 20.58239,37.47524 21.54239,48.59427 1.92,18.37084 -5.2672,27.57879 -21.54239,27.57879 z"
       id="path4411" /></g><style
     type="text/css"
     id="style3999">
	.st0{fill:#FFFFFF;}
</style><style
     type="text/css"
     id="style4048">
	.st0{fill:#FFFFFF;}
</style></svg>