<?xml version="1.0" encoding="UTF-8" standalone="no"?>
<svg
   xmlns:dc="http://purl.org/dc/elements/1.1/"
   xmlns:cc="http://creativecommons.org/ns#"
   xmlns:rdf="http://www.w3.org/1999/02/22-rdf-syntax-ns#"
   xmlns:svg="http://www.w3.org/2000/svg"
   xmlns="http://www.w3.org/2000/svg"
   viewBox="0 0 480 480"
   height="480"
   width="480"
   xml:space="preserve"
   version="1.1"
   id="svg3390"><metadata
     id="metadata3396"><rdf:RDF><cc:Work
         rdf:about=""><dc:format>image/svg+xml</dc:format><dc:type
           rdf:resource="http://purl.org/dc/dcmitype/StillImage" /><dc:title></dc:title></cc:Work></rdf:RDF></metadata><defs
     id="defs3394"><clipPath
       id="clipPath3404"
       clipPathUnits="userSpaceOnUse"><path
         id="path3406"
         d="M 0,48 48,48 48,0 0,0 0,48 Z" /></clipPath><clipPath
       id="clipPath3416"
       clipPathUnits="userSpaceOnUse"><path
         id="path3418"
         d="M 0,48 48,48 48,0 0,0 0,48 Z" /></clipPath><clipPath
       id="clipPath3426"
       clipPathUnits="userSpaceOnUse"><path
         id="path3428"
         d="M 0,48 48,48 48,0 0,0 0,48 Z" /></clipPath><clipPath
       id="clipPath3434"
       clipPathUnits="userSpaceOnUse"><path
         id="path3436"
         d="M 0,48 48,48 48,0 0,0 0,48 Z" /></clipPath><clipPath
       id="clipPath3442"
       clipPathUnits="userSpaceOnUse"><path
         id="path3444"
         d="m -2.13623e-4,48.0002 48.000013623,0 0,-48.000047412 -48.000013623,0 0,48.000047412 z" /></clipPath><clipPath
       id="clipPath3446"
       clipPathUnits="userSpaceOnUse"><path
         id="path3448"
         d="m -2.13623e-4,47.9998 48.000013623,0 0,-47.999952588 -48.000013623,0 0,47.999952588 z" /></clipPath><clipPath
       id="clipPath3450"
       clipPathUnits="userSpaceOnUse"><path
         id="path3452"
         d="M 48,48 0,48 0,0 48,0 48,48 Z" /></clipPath><clipPath
       id="clipPath3658"
       clipPathUnits="userSpaceOnUse"><path
         id="path3660"
         d="M 0,48 48,48 48,0 0,0 0,48 Z" /></clipPath><clipPath
       id="clipPath3668"
       clipPathUnits="userSpaceOnUse"><path
         id="path3670"
         d="m -2.28882e-4,48.0001 48.000028882,0 0,-47.99997793 -48.000028882,0 0,47.99997793 z" /></clipPath><clipPath
       id="clipPath3676"
       clipPathUnits="userSpaceOnUse"><path
         id="path3678"
         d="m -2.28882e-4,48.0001 48.000028882,0 0,-47.99997793 -48.000028882,0 0,47.99997793 z" /></clipPath><clipPath
       id="clipPath3680"
       clipPathUnits="userSpaceOnUse"><path
         id="path3682"
         d="M 0,0 48,0 48,48 0,48 0,0 Z" /></clipPath></defs><g
     transform="matrix(1.25,0,0,-1.25,0,480)"
     id="g3398"><g
       id="g3412"><g
         clip-path="url(#clipPath3416)"
         id="g3414"><g
           transform="matrix(1,0,0,-1,0,48)"
           id="g3420"><g
             id="g3422"><g
               clip-path="url(#clipPath3426)"
               id="g3424" /></g></g></g></g><path
       id="path3762"
       d=""
       style="fill:#000000" /><path
       id="path3760"
       d=""
       style="fill:#000000" /><path
       id="path3758"
       d=""
       style="fill:#000000" /><path
       style="fill:#000000"
       d="m 342.50918,251.31719 c -5.56778,-0.55926 -28.75405,-5.77267 -36.54254,-7.44404 -8.34526,-2.23706 -84.55982,-61.37798 -89.57081,-75.90608 -1.10716,-5.03341 -1.66394,-12.76029 -1.66394,-20.02434 l -0.56318,-11.73176 c 0,-8.38258 2.31671,-21.88214 3.43027,-29.14618 5.0046,-1.12497 41.27835,-0.14786 47.94688,-1.25996 l -0.83197,-15.016654 c -6.50854,0.46927 -52.56749,0.35998 -78.87684,0.35998 -13.35627,0 -56.29215,-1.47852 -69.47562,-1.07996 l 2.4895,14.290254 c 7.23171,0.5464 37.18251,-1.30496 43.76785,5.67624 3.26387,3.46488 2.22711,7.18047 2.22711,27.28196 l 0,9.50112 c 0,4.48057 0,12.85671 -1.11996,20.68003 -2.78389,8.38901 -69.917202,92.58126 -87.158113,106.00367 -4.9982,1.67137 -36.388944,4.82127 -44.171033,6.5055 L 32,292.87655 c 3.891044,1.95422 38.782449,-0.46927 72.64349,0.77783 22.26471,0.82926 73.03388,0 79.30563,-0.74569 l -1.59993,-11.34606 c -6.67494,-1.6778 -38.84005,-2.29492 -47.17252,-4.52556 21.69514,-32.4118 56.01056,-74.13829 67.14612,-90.35061 6.10535,8.94185 59.9016,46.11706 61.56554,58.96735 -8.34527,1.67137 -35.98577,5.67624 -40.43359,5.67624 l -2.63669,14.63738 c 7.5709,1.18924 47.4029,0 67.19731,0 17.09372,0 53.61066,0 63.98464,-0.85497 l -9.49082,-13.78884 z"
       id="path4510" /></g><style
     type="text/css"
     id="style3999">
	.st0{fill:#FFFFFF;}
</style><style
     type="text/css"
     id="style4048">
	.st0{fill:#FFFFFF;}
</style></svg>