<?xml version="1.0" encoding="UTF-8" standalone="no"?>
<!-- Created with Inkscape (http://www.inkscape.org/) -->

<svg
   xmlns:dc="http://purl.org/dc/elements/1.1/"
   xmlns:cc="http://creativecommons.org/ns#"
   xmlns:rdf="http://www.w3.org/1999/02/22-rdf-syntax-ns#"
   xmlns:svg="http://www.w3.org/2000/svg"
   xmlns="http://www.w3.org/2000/svg"
   xmlns:sodipodi="http://sodipodi.sourceforge.net/DTD/sodipodi-0.dtd"
   xmlns:inkscape="http://www.inkscape.org/namespaces/inkscape"
   id="svg3390"
   version="1.1"
   inkscape:version="0.91 r13725"
   xml:space="preserve"
   width="480"
   height="480"
   viewBox="0 0 480 480"
   sodipodi:docname="new-youtube-frommail.svg"><metadata
     id="metadata3396"><rdf:RDF><cc:Work
         rdf:about=""><dc:format>image/svg+xml</dc:format><dc:type
           rdf:resource="http://purl.org/dc/dcmitype/StillImage" /><dc:title></dc:title></cc:Work></rdf:RDF></metadata><defs
     id="defs3394"><inkscape:path-effect
       effect="bend_path"
       id="path-effect3560"
       is_visible="true"
       bendpath="m 6.2399998,-23.874916 35.0000002,0"
       prop_scale="1"
       scale_y_rel="false"
       vertical="false" /><clipPath
       clipPathUnits="userSpaceOnUse"
       id="clipPath3404"><path
         d="M 0,48 48,48 48,0 0,0 0,48 Z"
         id="path3406"
         inkscape:connector-curvature="0" /></clipPath><clipPath
       clipPathUnits="userSpaceOnUse"
       id="clipPath3416"><path
         d="M 0,48 48,48 48,0 0,0 0,48 Z"
         id="path3418"
         inkscape:connector-curvature="0" /></clipPath><clipPath
       clipPathUnits="userSpaceOnUse"
       id="clipPath3426"><path
         d="M 0,48 48,48 48,0 0,0 0,48 Z"
         id="path3428"
         inkscape:connector-curvature="0" /></clipPath><clipPath
       clipPathUnits="userSpaceOnUse"
       id="clipPath3434"><path
         d="M 0,48 48,48 48,0 0,0 0,48 Z"
         id="path3436"
         inkscape:connector-curvature="0" /></clipPath><clipPath
       clipPathUnits="userSpaceOnUse"
       id="clipPath3442"><path
         d="m -2.13623e-4,48.0002 48.000013623,0 0,-48.000047412 -48.000013623,0 0,48.000047412 z"
         id="path3444"
         inkscape:connector-curvature="0" /></clipPath><clipPath
       clipPathUnits="userSpaceOnUse"
       id="clipPath3446"><path
         d="m -2.13623e-4,47.9998 48.000013623,0 0,-47.999952588 -48.000013623,0 0,47.999952588 z"
         id="path3448"
         inkscape:connector-curvature="0" /></clipPath><clipPath
       clipPathUnits="userSpaceOnUse"
       id="clipPath3450"><path
         d="M 48,48 0,48 0,0 48,0 48,48 Z"
         id="path3452"
         inkscape:connector-curvature="0" /></clipPath><clipPath
       clipPathUnits="userSpaceOnUse"
       id="clipPath3658"><path
         d="M 0,48 48,48 48,0 0,0 0,48 Z"
         id="path3660"
         inkscape:connector-curvature="0" /></clipPath><clipPath
       clipPathUnits="userSpaceOnUse"
       id="clipPath3668"><path
         d="m -2.28882e-4,48.0001 48.000028882,0 0,-47.99997793 -48.000028882,0 0,47.99997793 z"
         id="path3670"
         inkscape:connector-curvature="0" /></clipPath><clipPath
       clipPathUnits="userSpaceOnUse"
       id="clipPath3676"><path
         d="m -2.28882e-4,48.0001 48.000028882,0 0,-47.99997793 -48.000028882,0 0,47.99997793 z"
         id="path3678"
         inkscape:connector-curvature="0" /></clipPath><clipPath
       clipPathUnits="userSpaceOnUse"
       id="clipPath3680"><path
         d="M 0,0 48,0 48,48 0,48 0,0 Z"
         id="path3682"
         inkscape:connector-curvature="0" /></clipPath></defs><sodipodi:namedview
     pagecolor="#ffffff"
     bordercolor="#666666"
     borderopacity="1"
     objecttolerance="10"
     gridtolerance="10"
     guidetolerance="10"
     inkscape:pageopacity="0"
     inkscape:pageshadow="2"
     inkscape:window-width="1280"
     inkscape:window-height="660"
     id="namedview3392"
     showgrid="false"
     inkscape:zoom="0.98333335"
     inkscape:cx="250.26089"
     inkscape:cy="253.16188"
     inkscape:window-x="-8"
     inkscape:window-y="-8"
     inkscape:window-maximized="1"
     inkscape:current-layer="g3398" /><g
     id="g3398"
     inkscape:groupmode="layer"
     inkscape:label="System_Icon_StickerSheet"
     transform="matrix(1.25,0,0,-1.25,0,480)"><g
       id="g3412"><g
         id="g3414"
         clip-path="url(#clipPath3416)"><g
           id="g3420"
           transform="matrix(1,0,0,-1,0,48)"><g
             id="g3422"><g
               id="g3424"
               clip-path="url(#clipPath3426)" /></g></g></g></g><path
       style="fill:#000000"
       d=""
       id="path3762"
       inkscape:connector-curvature="0" /><path
       style="fill:#000000"
       d=""
       id="path3760"
       inkscape:connector-curvature="0" /><path
       style="fill:#000000"
       d=""
       id="path3758"
       inkscape:connector-curvature="0" /><g
       id="g4017"
       transform="matrix(5.1025111,0,0,-5.0919378,8.9383397,375.7058)"><path
         id="path4019"
         d="m 35.1,31.3 c 6.3,0.2 11.8,0.3 17.2,0.5 1.2,0 2.5,0.1 3.7,0.4 3.2,0.7 4.6,3.1 5.1,6 0.4,2.9 0.7,5.8 0.7,8.6 0,4.3 -0.2,8.6 -0.5,12.8 -0.1,1.3 -0.5,2.6 -1,3.7 -1.2,2.7 -3.6,3.6 -6.3,3.7 -7.5,0.2 -14.9,0.4 -22.4,0.5 -4.3,0 -8.6,-0.3 -12.9,-0.4 -1.1,0 -2.1,-0.2 -3.2,-0.5 -2,-0.5 -3.4,-1.8 -4.2,-3.8 -1,-2.5 -1.1,-5.1 -1.2,-7.7 -0.1,-4.6 0,-9.2 0.2,-13.8 0.1,-1.6 0.4,-3.2 0.8,-4.7 0.9,-3 3.1,-4.6 6.2,-4.8 6.3,0 12.5,-0.3 17.8,-0.5 z m 4.7,28.2 c 0.6,0.5 1.2,0.9 1.8,1.3 1.9,1 3.8,0.1 4.2,-2 0.1,-0.7 0.2,-1.4 0.2,-2.1 0,-2.9 0,-5.9 0,-8.8 0,-0.8 -0.1,-1.6 -0.3,-2.3 -0.6,-2.5 -2.7,-3.2 -4.8,-1.7 -0.4,0.3 -0.7,0.6 -1.2,1 0,-2.6 0,-4.9 0,-7.3 -1.1,0 -2.1,0 -3.1,0 0,7.8 0,15.5 0,23.2 1.1,0 2.1,0 3.2,0 -0.1,-0.4 -0.1,-0.8 0,-1.3 z m -5.9,1.3 c 0,-5.8 0,-11.6 0,-17.4 -1.1,0 -2.2,0 -3.3,0 0,0.4 0,0.7 0,1 0,3.7 0,7.5 0,11.2 0,0.9 -0.3,1.5 -0.9,1.9 -0.3,0.3 -0.9,0.5 -1.2,0.4 -0.3,-0.1 -0.5,-0.7 -0.5,-1.1 0,-4.1 0,-8.3 0,-12.4 0,-0.3 0,-0.7 0,-1 -1.2,0 -2.3,0 -3.3,0 0,0.2 0,0.3 0,0.5 0,4.7 0,9.4 0,14.1 0,0.4 0.1,0.9 0.2,1.3 0.4,1.5 1.5,2.2 3,1.7 0.6,-0.2 1.2,-0.6 1.8,-1 0.3,-0.2 0.6,-0.5 1,-0.9 0,0.7 0,1.1 0,1.7 1,0 2.1,0 3.2,0 z m 23.7,-8.1 c 0,-1.7 0.1,-3.4 0,-5 -0.2,-2.7 -2,-4.4 -4.5,-4.6 -2.6,-0.1 -4.7,1.4 -4.9,4.1 -0.3,3.3 -0.3,6.7 0,10 0.3,3 3.1,4.5 6.1,3.8 2.5,-0.6 4,-3.5 3.2,-6.2 -1.1,0 -2.1,0 -3.2,0 0,0.8 0,1.5 -0.1,2.1 -0.1,0.7 -0.5,1.2 -1.3,1.2 -0.7,0 -1.3,-0.4 -1.4,-1.1 -0.1,-1.4 -0.2,-2.9 -0.3,-4.4 2.3,0.1 4.3,0.1 6.4,0.1 z M 25.2,40.9 c 0,-1.2 0,-2.3 0,-3.3 -3.7,0 -7.3,0 -10.9,0 0,1.1 0,2.2 0,3.3 1.2,0 2.4,0 3.6,0 0,6.7 0,13.3 0,19.9 1.2,0 2.3,0 3.6,0 0,-6.7 0,-13.3 0,-19.9 1.3,0 2.5,0 3.7,0 z"
         inkscape:connector-curvature="0" /><g
         id="g4021"><path
           id="path4023"
           d="m 46.4,10.7 c 0,1.7 0,3.4 0,5.1 0,2.9 0,5.7 0,8.6 0,0.4 0.2,1 0.5,1.1 0.3,0.1 0.8,-0.1 1.1,-0.3 0.7,-0.5 1,-1.1 1,-2.1 -0.1,-4.1 0,-8.2 0,-12.3 1.1,0 2.1,0 3.2,0 0,5.8 0,11.6 0,17.4 -1.1,0 -2.1,0 -3.2,0 0,-0.5 0,-1 0,-1.7 -0.3,0.3 -0.5,0.5 -0.7,0.7 -0.5,0.4 -1,0.9 -1.6,1.1 -1.6,0.8 -3,0 -3.4,-1.7 -0.1,-0.3 -0.2,-0.7 -0.2,-1 0,-4.9 0,-9.8 0,-14.7 1.1,-0.2 2.1,-0.2 3.3,-0.2 z"
           inkscape:connector-curvature="0" /><path
           id="path4025"
           d="m 19.8,4.7 c 1.1,0 2.2,0 3.2,0 0.2,0 0.5,0.4 0.6,0.6 0.7,2.5 1.4,5 2,7.5 0,0.2 0.1,0.3 0.3,0.5 0.4,-1.6 0.8,-3.1 1.3,-4.7 0.3,-1.1 0.6,-2.2 0.9,-3.3 0.1,-0.2 0.4,-0.5 0.7,-0.6 1,-0.1 2,0 3.2,0 -0.1,0.3 -0.2,0.6 -0.3,0.9 -1.3,4.1 -2.6,8.3 -3.9,12.4 -0.1,0.4 -0.2,0.9 -0.2,1.4 0,2.9 0,5.8 0,8.7 -1.2,0 -2.3,0 -3.5,0 0,-1.3 -0.1,-2.6 0,-3.8 0.3,-4 -0.5,-7.8 -1.8,-11.5 -0.9,-2.7 -1.7,-5.3 -2.5,-8.1 z"
           inkscape:connector-curvature="0" /><path
           id="path4027"
           d="m 40.7,19.6 c -0.1,1.7 0,3.4 -0.3,5.1 -0.3,2.3 -2.2,3.8 -4.6,3.8 -2.3,0 -4.1,-1.5 -4.5,-3.8 -0.2,-1 -0.2,-2 -0.2,-3 0,-2.4 -0.1,-4.9 0.2,-7.3 0.3,-2.6 2,-3.9 4.5,-3.9 2.5,0 4.1,1.4 4.6,3.9 0,0.3 0.1,0.5 0.1,0.8 0.1,1.4 0.1,2.9 0.2,4.4 -0.1,0 0,0 0,0 z m -6.1,-0.2 c 0,1.4 0,2.8 0,4.2 0,0.4 0,0.8 0.2,1.1 0.3,0.4 0.8,0.8 1.1,0.8 0.4,0 0.9,-0.4 1.2,-0.8 0.2,-0.3 0.2,-0.8 0.2,-1.2 0,-2.4 0,-4.7 0,-7.1 0,-0.6 0,-1.3 -0.1,-1.9 -0.1,-0.6 -0.6,-1 -1.3,-1 -0.7,0 -1.1,0.3 -1.3,1 -0.1,0.3 -0.1,0.6 -0.1,0.9 0,1.3 0.1,2.6 0.1,4 z"
           inkscape:connector-curvature="0" /></g><path
         id="path4029"
         d="m 40.4,52.2 c 0,-1.5 0,-3.1 0,-4.6 0,-0.8 0.6,-1.4 1.5,-1.4 0.8,0 1.2,0.4 1.2,1.1 0,0.5 0.1,1 0.1,1.5 0,2.4 0,4.9 0,7.3 0,0.4 -0.1,0.8 -0.1,1.1 -0.1,0.6 -0.6,1 -1.2,1 -0.8,-0.1 -1.5,-0.6 -1.5,-1.3 -0.1,-1.6 -0.1,-3.2 0,-4.7 z"
         inkscape:connector-curvature="0" /><path
         id="path4031"
         d="m 54,50 c -1.1,0 -1.9,0 -3,0 0.1,-1 0.1,-2 0.2,-3 0.1,-0.7 0.7,-0.9 1.3,-0.9 0.6,0 1.1,0.2 1.2,0.9 0.2,1 0.3,1.9 0.3,3 z"
         inkscape:connector-curvature="0" /></g></g><style
     id="style3999"
     type="text/css">
	.st0{fill:#FFFFFF;}
</style></svg>